<svg id="G20-Saudi-Arabia" xmlns="http://www.w3.org/2000/svg" xmlns:xlink="http://www.w3.org/1999/xlink" width="116.002" height="105.773" viewBox="0 0 116.002 105.773">
  <defs>
    <clipPath id="clip-path">
      <path id="Path_175153" data-name="Path 175153" d="M619.8,322.786c2.636,1.586,5.207,3.236,7.714,4.993,2.443,1.693,4.822,3.493,7.115,5.357,2.143,1.736,4.2,3.579,6.171,5.486,1.286,1.243,2.529,2.55,3.707,3.879,1.457-.707,2.893-1.457,4.286-2.25L639.772,315.5s-7.372,5.207-19.972,7.286" transform="translate(-619.8 -315.5)"/>
    </clipPath>
    <linearGradient id="linear-gradient" x1="-3.068" y1="4.829" x2="-3.031" y2="4.829" gradientUnits="objectBoundingBox">
      <stop offset="0" stop-color="#1b1752"/>
      <stop offset="0.207" stop-color="#19154c"/>
      <stop offset="0.493" stop-color="#14113a"/>
      <stop offset="0.823" stop-color="#0b0a1d"/>
      <stop offset="1" stop-color="#05060a"/>
    </linearGradient>
    <clipPath id="clip-path-2">
      <path id="Path_175154" data-name="Path 175154" d="M228.184,377.221l-1.521.064c-1.007.064-2.036.15-3.021.279a15.363,15.363,0,0,0-2.743.621.4.4,0,0,1-.15.043c-.021,0-.043.021-.086.021a8.221,8.221,0,0,0-.921.364c-.107.043-.214.107-.321.15-.043.021-.064.043-.107.043a3.726,3.726,0,0,0-.386.236l-.193.129h0c-.043.021-.064.064-.107.086l-.064.064c-.021.021-.064.043-.086.064s-.064.043-.086.086l-.086.086-.086.086c-.021.022-.043.064-.086.086-.021.021-.043.064-.064.086s-.043.064-.064.086-.043.064-.064.086-.043.064-.064.086c-.021.043-.043.064-.043.107-.021.021-.021.064-.043.086a1.484,1.484,0,0,0-.064.171c0,.021-.021.021-.021.043a2.245,2.245,0,0,0-.107.643c0,.471-.407,5.764,24.686,12.579a165.235,165.235,0,0,0,51.966,5.357c-.45-.3-.9-.579-1.35-.879q-3.568-2.282-7.264-4.307c-2.593-1.436-5.229-2.764-7.886-4.007-2.786-1.286-5.593-2.486-8.443-3.6a155.786,155.786,0,0,0-22.972-6.922l-1.543-.321c-.986-.214-1.971-.407-2.979-.579s-1.993-.343-3-.493-2.014-.279-3.021-.386c-.514-.064-1.029-.107-1.564-.15-.493-.043-.986-.086-1.5-.107-1.007-.064-2.036-.107-3.043-.107h-.321c-.386,0-.771.022-1.179.022" transform="translate(-217.598 -377.2)"/>
    </clipPath>
    <linearGradient id="linear-gradient-2" x1="-0.032" y1="5.074" x2="-0.018" y2="5.074" xlink:href="#linear-gradient"/>
    <clipPath id="clip-path-3">
      <path id="Path_175156" data-name="Path 175156" d="M219.421,388.6c-.021.021-.043.064-.086.086-.021.021-.043.064-.064.086s-.043.064-.064.086-.043.064-.064.086-.021.043-.043.086v.021c.043.086.107.15.15.236.064-.236.107-.471.171-.686h0" transform="translate(-219.1 -388.6)"/>
    </clipPath>
    <linearGradient id="linear-gradient-3" x1="-9.734" y1="167.599" x2="-6.401" y2="167.599" gradientUnits="objectBoundingBox">
      <stop offset="0" stop-color="#86d2e1"/>
      <stop offset="1" stop-color="#64bb4d"/>
    </linearGradient>
    <clipPath id="clip-path-4">
      <path id="Path_175157" data-name="Path 175157" d="M220.371,387.1c-.021.021-.064.043-.086.064s-.064.043-.086.086l-.086.086-.021.021c-.064.257-.129.493-.193.75.064.086.107.172.171.257.107-.407.214-.836.3-1.264h0" transform="translate(-219.9 -387.1)"/>
    </clipPath>
    <linearGradient id="linear-gradient-4" x1="-7" y1="91.139" x2="-4.728" y2="91.139" xlink:href="#linear-gradient-3"/>
    <clipPath id="clip-path-5">
      <path id="Path_175158" data-name="Path 175158" d="M221.6,385.821l-.193.129h0c-.021.021-.043.021-.043.043-.129.471-.236.943-.364,1.436.064.086.107.15.171.236.15-.621.3-1.243.471-1.864-.021,0-.021,0-.043.021" transform="translate(-221 -385.8)"/>
    </clipPath>
    <linearGradient id="linear-gradient-5" x1="-5.5" y1="61.956" x2="-3.834" y2="61.956" xlink:href="#linear-gradient-3"/>
    <clipPath id="clip-path-6">
      <path id="Path_175159" data-name="Path 175159" d="M222.929,384.643c-.064.043-.129.064-.193.107-.193.664-.364,1.371-.536,2.079.064.064.107.15.171.214q.289-1.221.643-2.443c-.021.021-.043.021-.086.043" transform="translate(-222.2 -384.6)"/>
    </clipPath>
    <linearGradient id="linear-gradient-6" x1="-4.658" y1="47.388" x2="-3.343" y2="47.388" xlink:href="#linear-gradient-3"/>
    <clipPath id="clip-path-7">
      <path id="Path_175160" data-name="Path 175160" d="M224.457,383.643l-.129.064c-.257.9-.493,1.8-.729,2.7.064.064.129.15.193.214.257-1.007.514-2.014.814-3.022a.4.4,0,0,0-.15.043" transform="translate(-223.6 -383.6)"/>
    </clipPath>
    <linearGradient id="linear-gradient-7" x1="-4.064" y1="38.384" x2="-3" y2="38.384" xlink:href="#linear-gradient-3"/>
    <clipPath id="clip-path-8">
      <path id="Path_175161" data-name="Path 175161" d="M226.121,382.607c-.343,1.114-.643,2.229-.921,3.322l.193.193c.3-1.2.643-2.4,1.007-3.622a1.077,1.077,0,0,1-.279.107" transform="translate(-225.2 -382.5)"/>
    </clipPath>
    <linearGradient id="linear-gradient-8" x1="-3.697" y1="32.084" x2="-2.804" y2="32.084" xlink:href="#linear-gradient-3"/>
    <clipPath id="clip-path-9">
      <path id="Path_175162" data-name="Path 175162" d="M228.286,381.643a1.352,1.352,0,0,1-.15.043c-.407,1.329-.793,2.636-1.136,3.943l.193.193c.364-1.393.75-2.807,1.2-4.221-.021.021-.064.021-.107.043" transform="translate(-227 -381.6)"/>
    </clipPath>
    <linearGradient id="linear-gradient-9" x1="-3.477" y1="27.574" x2="-2.708" y2="27.574" xlink:href="#linear-gradient-3"/>
    <clipPath id="clip-path-10">
      <path id="Path_175163" data-name="Path 175163" d="M230.45,380.786c-.514,1.521-.943,3.064-1.35,4.564.064.064.129.107.193.171q.611-2.379,1.414-4.822c-.086.021-.171.064-.257.086" transform="translate(-229.1 -380.7)"/>
    </clipPath>
    <linearGradient id="linear-gradient-10" x1="-3.28" y1="24.182" x2="-2.614" y2="24.182" xlink:href="#linear-gradient-3"/>
    <clipPath id="clip-path-11">
      <path id="Path_175164" data-name="Path 175164" d="M232.886,380.043c-.557,1.607-1.071,3.322-1.586,5.186.064.064.129.107.193.171.471-1.757,1.007-3.579,1.65-5.4a1.287,1.287,0,0,0-.257.043" transform="translate(-231.3 -380)"/>
    </clipPath>
    <linearGradient id="linear-gradient-11" x1="-3.092" y1="21.623" x2="-2.517" y2="21.623" xlink:href="#linear-gradient-3"/>
    <clipPath id="clip-path-12">
      <path id="Path_175165" data-name="Path 175165" d="M235.643,379.243c-.643,1.736-1.243,3.643-1.843,5.786.064.043.129.107.193.15.514-1.929,1.136-3.943,1.886-5.979a.77.77,0,0,1-.236.043" transform="translate(-233.8 -379.2)"/>
    </clipPath>
    <linearGradient id="linear-gradient-12" x1="-3.031" y1="19.555" x2="-2.516" y2="19.555" xlink:href="#linear-gradient-3"/>
    <clipPath id="clip-path-13">
      <path id="Path_175166" data-name="Path 175166" d="M238.457,378.821c-.814,2.143-1.5,4.286-2.057,6.343.064.043.129.107.193.15a65.42,65.42,0,0,1,2.1-6.514,1.154,1.154,0,0,0-.236.021" transform="translate(-236.4 -378.8)"/>
    </clipPath>
    <linearGradient id="linear-gradient-13" x1="-2.963" y1="17.963" x2="-2.5" y2="17.963" xlink:href="#linear-gradient-3"/>
    <clipPath id="clip-path-14">
      <path id="Path_175167" data-name="Path 175167" d="M241.593,378.243a64.681,64.681,0,0,0-2.293,6.879l.193.129a63.04,63.04,0,0,1,2.336-7.05c-.043.021-.15.021-.236.043" transform="translate(-239.3 -378.2)"/>
    </clipPath>
    <linearGradient id="linear-gradient-14" x1="-2.933" y1="16.61" x2="-2.513" y2="16.61" xlink:href="#linear-gradient-3"/>
    <clipPath id="clip-path-15">
      <path id="Path_175168" data-name="Path 175168" d="M245.071,377.843a63.433,63.433,0,0,0-2.572,7.414,1.886,1.886,0,0,0,.214.129,57.9,57.9,0,0,1,2.636-7.586c-.107.021-.193.021-.279.043" transform="translate(-242.5 -377.8)"/>
    </clipPath>
    <linearGradient id="linear-gradient-15" x1="-2.879" y1="15.448" x2="-2.5" y2="15.448" xlink:href="#linear-gradient-3"/>
    <clipPath id="clip-path-16">
      <path id="Path_175169" data-name="Path 175169" d="M248.843,377.6a.8.8,0,0,0-.214.021,59.581,59.581,0,0,0-2.829,7.929,1.87,1.87,0,0,0,.214.129,57.9,57.9,0,0,1,2.871-8.079h-.043" transform="translate(-245.8 -377.6)"/>
    </clipPath>
    <linearGradient id="linear-gradient-16" x1="-2.868" y1="14.514" x2="-2.521" y2="14.514" xlink:href="#linear-gradient-3"/>
    <clipPath id="clip-path-17">
      <path id="Path_175170" data-name="Path 175170" d="M252.507,377.4a54.946,54.946,0,0,0-3.107,8.443,1.9,1.9,0,0,0,.214.129,52.339,52.339,0,0,1,3.172-8.572h-.279" transform="translate(-249.4 -377.4)"/>
    </clipPath>
    <linearGradient id="linear-gradient-17" x1="-2.86" y1="13.684" x2="-2.542" y2="13.684" xlink:href="#linear-gradient-3"/>
    <clipPath id="clip-path-18">
      <path id="Path_175171" data-name="Path 175171" d="M256.564,377.3a51.678,51.678,0,0,0-3.364,8.914c.064.043.15.064.214.107a50.527,50.527,0,0,1,3.429-9.022h-.279" transform="translate(-253.2 -377.3)"/>
    </clipPath>
    <linearGradient id="linear-gradient-18" x1="-2.882" y1="13.004" x2="-2.586" y2="13.004" xlink:href="#linear-gradient-3"/>
    <clipPath id="clip-path-19">
      <path id="Path_175172" data-name="Path 175172" d="M257.2,386.664c.064.043.15.064.214.107A49.333,49.333,0,0,1,261.1,377.3h-.257a50.809,50.809,0,0,0-3.643,9.364" transform="translate(-257.2 -377.3)"/>
    </clipPath>
    <linearGradient id="linear-gradient-19" x1="-2.896" y1="12.386" x2="-2.621" y2="12.386" xlink:href="#linear-gradient-3"/>
    <clipPath id="clip-path-20">
      <path id="Path_175173" data-name="Path 175173" d="M261.5,387.193c.064.043.15.064.214.107a46.5,46.5,0,0,1,3.986-9.9h-.257a48.791,48.791,0,0,0-3.943,9.793" transform="translate(-261.5 -377.4)"/>
    </clipPath>
    <linearGradient id="linear-gradient-20" x1="-2.908" y1="11.847" x2="-2.653" y2="11.847" xlink:href="#linear-gradient-3"/>
    <clipPath id="clip-path-21">
      <path id="Path_175174" data-name="Path 175174" d="M266,387.8a1,1,0,0,1,.214.107,47.333,47.333,0,0,1,4.264-10.286,1.042,1.042,0,0,1-.257-.021A48.5,48.5,0,0,0,266,387.8" transform="translate(-266 -377.6)"/>
    </clipPath>
    <linearGradient id="linear-gradient-21" x1="-2.943" y1="11.398" x2="-2.703" y2="11.398" xlink:href="#linear-gradient-3"/>
    <clipPath id="clip-path-22">
      <path id="Path_175175" data-name="Path 175175" d="M270.8,388.486c.064.021.15.064.214.086a44.631,44.631,0,0,1,4.522-10.65c-.086,0-.172-.021-.257-.021a45.8,45.8,0,0,0-4.479,10.586" transform="translate(-270.8 -377.9)"/>
    </clipPath>
    <linearGradient id="linear-gradient-22" x1="-3" y1="10.978" x2="-2.774" y2="10.978" xlink:href="#linear-gradient-3"/>
    <clipPath id="clip-path-23">
      <path id="Path_175176" data-name="Path 175176" d="M275.9,389.407c.064.021.15.064.214.086a43.312,43.312,0,0,1,4.779-10.972c-.086,0-.15-.021-.236-.021a44.771,44.771,0,0,0-4.757,10.907" transform="translate(-275.9 -378.5)"/>
    </clipPath>
    <linearGradient id="linear-gradient-23" x1="-3.064" y1="10.647" x2="-2.85" y2="10.647" xlink:href="#linear-gradient-3"/>
    <clipPath id="clip-path-24">
      <path id="Path_175177" data-name="Path 175177" d="M281.1,390.564c.064.022.15.064.214.086a55.352,55.352,0,0,1,5.25-11.229c-.086,0-.171-.021-.257-.021a54.149,54.149,0,0,0-5.207,11.165" transform="translate(-281.1 -379.4)"/>
    </clipPath>
    <linearGradient id="linear-gradient-24" x1="-3.004" y1="10.369" x2="-2.808" y2="10.369" xlink:href="#linear-gradient-3"/>
    <clipPath id="clip-path-25">
      <path id="Path_175178" data-name="Path 175178" d="M287.3,391.843a.9.9,0,0,1,.214.086,61.052,61.052,0,0,1,5.7-11.486c-.086-.022-.171-.022-.257-.043a63.914,63.914,0,0,0-5.657,11.443" transform="translate(-287.3 -380.4)"/>
    </clipPath>
    <linearGradient id="linear-gradient-25" x1="-3" y1="10.117" x2="-2.819" y2="10.117" xlink:href="#linear-gradient-3"/>
    <clipPath id="clip-path-26">
      <path id="Path_175179" data-name="Path 175179" d="M293.7,393.257a.9.9,0,0,1,.214.086,70.143,70.143,0,0,1,6.064-11.7c-.086-.021-.171-.021-.257-.043a70.376,70.376,0,0,0-6.022,11.657" transform="translate(-293.7 -381.6)"/>
    </clipPath>
    <linearGradient id="linear-gradient-26" x1="-3.044" y1="9.91" x2="-2.874" y2="9.91" xlink:href="#linear-gradient-3"/>
    <clipPath id="clip-path-27">
      <path id="Path_175180" data-name="Path 175180" d="M300.1,394.75c.064.021.15.043.214.064a76.932,76.932,0,0,1,6.407-11.85.079.079,0,0,1-.064-.021.625.625,0,0,1-.193-.043,82.7,82.7,0,0,0-6.364,11.85" transform="translate(-300.1 -382.9)"/>
    </clipPath>
    <linearGradient id="linear-gradient-27" x1="-3.094" y1="9.744" x2="-2.932" y2="9.744" xlink:href="#linear-gradient-3"/>
    <clipPath id="clip-path-28">
      <path id="Path_175181" data-name="Path 175181" d="M306.8,396.457c.064.021.15.043.236.064a94.173,94.173,0,0,1,6.664-11.979,1.078,1.078,0,0,0-.257-.043,94.955,94.955,0,0,0-6.643,11.957" transform="translate(-306.8 -384.5)"/>
    </clipPath>
    <linearGradient id="linear-gradient-28" x1="-3.177" y1="9.63" x2="-3.022" y2="9.63" xlink:href="#linear-gradient-3"/>
    <clipPath id="clip-path-29">
      <path id="Path_175182" data-name="Path 175182" d="M314.221,396.964c-.214.386-.407.793-.621,1.179.086.021.15.043.236.064.193-.386.407-.75.6-1.136a103.286,103.286,0,0,1,6.279-10.929,1.109,1.109,0,0,0-.236-.043,106.021,106.021,0,0,0-6.257,10.865" transform="translate(-313.6 -386.1)"/>
    </clipPath>
    <linearGradient id="linear-gradient-29" x1="-3.286" y1="9.516" x2="-3.136" y2="9.516" xlink:href="#linear-gradient-3"/>
    <clipPath id="clip-path-30">
      <path id="Path_175183" data-name="Path 175183" d="M322.029,397.429c-.429.793-.879,1.607-1.329,2.4.086.021.15.043.236.064.429-.793.879-1.586,1.307-2.357a108.423,108.423,0,0,1,5.786-9.772c-.086-.021-.171-.043-.236-.064a105.513,105.513,0,0,0-5.764,9.729" transform="translate(-320.7 -387.7)"/>
    </clipPath>
    <linearGradient id="linear-gradient-30" x1="-3.408" y1="9.451" x2="-3.261" y2="9.451" xlink:href="#linear-gradient-3"/>
    <clipPath id="clip-path-31">
      <path id="Path_175184" data-name="Path 175184" d="M329.936,398.214c-.664,1.179-1.329,2.357-2.036,3.536.086.022.15.043.236.064.686-1.157,1.35-2.336,1.993-3.493,1.65-2.936,3.343-5.893,5.25-8.657-.086-.021-.171-.043-.236-.064-1.886,2.743-3.557,5.7-5.207,8.615" transform="translate(-327.9 -389.6)"/>
    </clipPath>
    <linearGradient id="linear-gradient-31" x1="-3.539" y1="9.402" x2="-3.395" y2="9.402" xlink:href="#linear-gradient-3"/>
    <clipPath id="clip-path-32">
      <path id="Path_175185" data-name="Path 175185" d="M338.2,399.086c-.879,1.521-1.779,3.064-2.7,4.564.086.021.15.043.236.064.921-1.479,1.8-3.022,2.679-4.522,1.5-2.571,3-5.164,4.672-7.629-.086-.021-.171-.043-.236-.064-1.671,2.443-3.171,5.036-4.65,7.586" transform="translate(-335.5 -391.5)"/>
    </clipPath>
    <linearGradient id="linear-gradient-32" x1="-3.701" y1="9.368" x2="-3.559" y2="9.368" xlink:href="#linear-gradient-3"/>
    <clipPath id="clip-path-33">
      <path id="Path_175186" data-name="Path 175186" d="M346.643,400.2c-1.071,1.821-2.186,3.707-3.343,5.507.086.021.15.043.236.064,1.136-1.779,2.229-3.643,3.3-5.443,1.307-2.229,2.657-4.5,4.093-6.664-.086-.021-.15-.043-.236-.064-1.414,2.143-2.743,4.393-4.05,6.6" transform="translate(-343.3 -393.6)"/>
    </clipPath>
    <linearGradient id="linear-gradient-33" x1="-3.888" y1="9.348" x2="-3.748" y2="9.348" xlink:href="#linear-gradient-3"/>
    <clipPath id="clip-path-34">
      <path id="Path_175187" data-name="Path 175187" d="M356.429,400.572c-1.457,2.464-2.936,4.993-4.629,7.35.086.021.171.043.236.064,1.672-2.357,3.15-4.843,4.586-7.286.943-1.607,1.886-3.193,2.871-4.736-.086-.021-.15-.043-.236-.064-.964,1.543-1.907,3.129-2.829,4.672" transform="translate(-351.8 -395.9)"/>
    </clipPath>
    <linearGradient id="linear-gradient-34" x1="-4.092" y1="9.373" x2="-3.953" y2="9.373" xlink:href="#linear-gradient-3"/>
    <clipPath id="clip-path-35">
      <path id="Path_175188" data-name="Path 175188" d="M365.586,402.014a86.476,86.476,0,0,1-5.186,8.122,1.076,1.076,0,0,0,.257.043,85.1,85.1,0,0,0,5.143-8.057c.771-1.307,1.522-2.593,2.293-3.857-.086-.021-.15-.043-.236-.064-.793,1.286-1.521,2.55-2.271,3.814" transform="translate(-360.4 -398.2)"/>
    </clipPath>
    <linearGradient id="linear-gradient-35" x1="-4.343" y1="9.413" x2="-4.203" y2="9.413" xlink:href="#linear-gradient-3"/>
    <clipPath id="clip-path-36">
      <path id="Path_175189" data-name="Path 175189" d="M375.036,403.8a73.3,73.3,0,0,1-5.636,8.765,1.075,1.075,0,0,0,.257.043,73.942,73.942,0,0,0,5.593-8.7c.6-1.029,1.179-2.057,1.779-3.043-.086-.021-.15-.043-.236-.064-.6,1.007-1.179,2.014-1.757,3" transform="translate(-369.4 -400.8)"/>
    </clipPath>
    <linearGradient id="linear-gradient-36" x1="-4.632" y1="9.487" x2="-4.492" y2="9.487" xlink:href="#linear-gradient-3"/>
    <clipPath id="clip-path-37">
      <path id="Path_175190" data-name="Path 175190" d="M384.822,405.75a61.292,61.292,0,0,1-6.022,9.343c.086.021.171.021.257.043a64.868,64.868,0,0,0,5.957-9.279c.429-.771.857-1.521,1.307-2.293-.086-.021-.15-.043-.236-.064-.429.75-.836,1.521-1.264,2.25" transform="translate(-378.8 -403.5)"/>
    </clipPath>
    <linearGradient id="linear-gradient-37" x1="-4.966" y1="9.592" x2="-4.823" y2="9.592" xlink:href="#linear-gradient-3"/>
    <clipPath id="clip-path-38">
      <path id="Path_175191" data-name="Path 175191" d="M395,408.021a56.3,56.3,0,0,1-6.3,9.836c.086.021.171.021.257.043a56.7,56.7,0,0,0,6.236-9.772c.279-.514.557-1.029.857-1.564-.064-.021-.15-.043-.214-.064-.279.514-.557,1.007-.836,1.521" transform="translate(-388.7 -406.5)"/>
    </clipPath>
    <linearGradient id="linear-gradient-38" x1="-5.37" y1="9.736" x2="-5.225" y2="9.736" xlink:href="#linear-gradient-3"/>
    <clipPath id="clip-path-39">
      <path id="Path_175192" data-name="Path 175192" d="M405.693,410.493a50.892,50.892,0,0,1-6.493,10.265c.086.021.171.021.279.043a51.346,51.346,0,0,0,6.429-10.2l.45-.836c-.064-.021-.15-.043-.214-.064a5.794,5.794,0,0,0-.45.793" transform="translate(-399.2 -409.7)"/>
    </clipPath>
    <linearGradient id="linear-gradient-39" x1="-5.847" y1="9.939" x2="-5.697" y2="9.939" xlink:href="#linear-gradient-3"/>
    <clipPath id="clip-path-40">
      <path id="Path_175193" data-name="Path 175193" d="M416.721,413.164c-1.864,3.707-3.793,7.543-6.622,10.65.064,0,.129.021.193.021a.129.129,0,0,1,.086.021c2.786-3.107,4.693-6.9,6.536-10.586a.163.163,0,0,0,.043-.086.9.9,0,0,1-.214-.086Z" transform="translate(-410.1 -413.1)"/>
    </clipPath>
    <linearGradient id="linear-gradient-40" x1="-6.405" y1="10.187" x2="-6.249" y2="10.187" xlink:href="#linear-gradient-3"/>
    <clipPath id="clip-path-41">
      <path id="Path_175194" data-name="Path 175194" d="M430.286,426.129c.514-.814.986-1.65,1.436-2.507.514.664,1.05,1.307,1.564,1.972-.471.814-.964,1.629-1.5,2.4-.493-.621-.986-1.243-1.5-1.864m3.3-.557c.45-.814.879-1.629,1.264-2.464l1.543,1.929c-.386.836-.814,1.65-1.264,2.443-.514-.643-1.05-1.286-1.543-1.907M422.872,424.5c.407-.6.814-1.222,1.2-1.864.429.557.879,1.114,1.307,1.672-.386.6-.793,1.2-1.243,1.779-.407-.514-.836-1.05-1.264-1.586m13.779.493c.386-.836.75-1.693,1.093-2.55.579.729,1.157,1.457,1.757,2.186-.343.836-.729,1.65-1.136,2.464-.557-.707-1.136-1.393-1.714-2.1m-10.972-.686c.429-.686.836-1.393,1.221-2.1.493.621.964,1.243,1.457,1.864-.407.686-.814,1.35-1.264,2.014-.493-.6-.964-1.179-1.414-1.779m2.957-.257c.493-.857.964-1.714,1.393-2.614.514.664,1.029,1.307,1.543,1.971-.45.857-.921,1.693-1.436,2.507-.493-.6-1.007-1.243-1.5-1.864m3.214-.664c.429-.836.857-1.693,1.243-2.55l1.607,2.057c-.407.836-.814,1.671-1.264,2.486-.557-.664-1.071-1.329-1.586-1.993m-1.693-2.164c.429-.857.836-1.736,1.221-2.614.514.686,1.029,1.35,1.543,2.036-.386.857-.814,1.714-1.243,2.572-.514-.686-1.029-1.35-1.521-1.993m-7.436,3.086-.257-.321c-.064.043-.107.107-.171.15.107.129.193.257.3.386-.407.579-.836,1.136-1.264,1.671-.279-.364-.579-.729-.857-1.093a1.223,1.223,0,0,0-.171.15c.3.364.6.75.879,1.114-.171.214-.364.429-.557.643.086.021.193.021.279.043.15-.15.279-.321.429-.493.171.214.321.407.493.621.107.021.214.021.343.043-.214-.279-.45-.557-.664-.836q.675-.8,1.286-1.671c.429.536.836,1.071,1.264,1.586-.279.364-.557.707-.857,1.05.086.021.193.021.279.043.257-.3.493-.6.729-.9.3.364.579.729.879,1.093.107.021.214.021.322.043-.364-.429-.707-.879-1.071-1.329.429-.579.836-1.157,1.243-1.779.471.6.943,1.179,1.414,1.779-.321.471-.686.943-1.05,1.393.086,0,.171.021.279.021.321-.407.621-.814.921-1.221.386.471.771.964,1.179,1.436.107,0,.214.021.321.021l-1.35-1.671c.45-.643.879-1.329,1.286-2.014l1.479,1.864c-.407.621-.814,1.221-1.264,1.821.086,0,.171.021.279.021.407-.536.793-1.093,1.157-1.65.493.621,1.007,1.243,1.5,1.843,0,.021-.021.021-.021.043h.064c.064,0,.15.022.214.022h.107a.3.3,0,0,1-.064-.086c.536-.771,1.029-1.564,1.5-2.379.514.643,1.029,1.264,1.543,1.886-.15.257-.3.493-.45.75.086,0,.171.022.257.022.107-.193.236-.364.343-.557.171.214.343.407.514.621a1.618,1.618,0,0,1,.321.021c-.236-.279-.471-.557-.707-.857.45-.793.879-1.607,1.264-2.422.557.707,1.136,1.393,1.714,2.1-.214.429-.45.857-.686,1.264a1.043,1.043,0,0,1,.257.021c.214-.364.407-.707.6-1.071.321.386.621.75.943,1.136h.321c-.386-.45-.771-.921-1.136-1.371.407-.793.772-1.607,1.136-2.443.686.836,1.371,1.693,2.079,2.529-.236.45-.471.9-.75,1.329h.257c.214-.364.429-.75.643-1.136.321.386.643.771.964,1.136h.3c-.386-.45-.771-.9-1.157-1.372a22.71,22.71,0,0,0,1.029-2.336c.6.729,1.2,1.479,1.821,2.207-.236.514-.493,1.007-.75,1.5h.257c.236-.429.45-.857.664-1.307.364.429.707.857,1.071,1.264h.3c-.429-.493-.857-.986-1.264-1.5.257-.557.471-1.136.707-1.714a.669.669,0,0,0-.214-.107c-.193.557-.429,1.093-.664,1.629-.621-.729-1.221-1.457-1.822-2.207.086-.214.171-.429.236-.643a1.992,1.992,0,0,0-.214-.107c-.064.171-.128.364-.193.536-.3-.364-.6-.75-.9-1.114l-.514-.257c.429.536.857,1.093,1.307,1.629-.321.793-.643,1.586-1.029,2.357-.707-.836-1.393-1.693-2.079-2.55.257-.643.514-1.307.771-1.972-.064-.043-.15-.064-.214-.107-.236.621-.471,1.243-.729,1.864-.579-.729-1.179-1.457-1.757-2.186.107-.236.193-.493.279-.729-.064-.043-.15-.064-.214-.107-.086.214-.171.407-.236.621-.3-.386-.6-.771-.921-1.179a4.294,4.294,0,0,1-.45-.214c.429.536.836,1.093,1.264,1.629-.343.857-.707,1.714-1.093,2.55L435,422.872c.364-.793.729-1.586,1.071-2.379a1,1,0,0,1-.214-.107c-.321.771-.664,1.521-1.007,2.271l-1.607-2.057.514-1.157c-.064-.022-.15-.064-.214-.086-.15.343-.3.686-.471,1.029-.472-.6-.921-1.221-1.393-1.821a3.577,3.577,0,0,0-.429-.171c-.407.879-.793,1.757-1.221,2.614-.364-.471-.729-.943-1.071-1.393l-.171.171c.364.493.75.986,1.136,1.457-.429.879-.9,1.757-1.393,2.614-.493-.621-.986-1.243-1.457-1.886.771-1.436,1.479-2.936,2.164-4.414-.064-.021-.15-.064-.214-.086-.664,1.436-1.35,2.893-2.1,4.286-.193-.257-.386-.493-.579-.75l-.171.171c.214.279.429.536.621.814q-.578,1.061-1.221,2.121c-.45-.557-.879-1.114-1.307-1.693,1.071-1.821,2.014-3.729,2.936-5.636-.064-.021-.15-.064-.214-.086a67.333,67.333,0,0,1-4.264,7.607" transform="translate(-420.3 -416.7)"/>
    </clipPath>
    <linearGradient id="linear-gradient-41" x1="-1.768" y1="9.065" x2="-1.727" y2="9.065" xlink:href="#linear-gradient-3"/>
    <clipPath id="clip-path-42">
      <path id="Path_175195" data-name="Path 175195" d="M546.914,463.214a17.07,17.07,0,0,1-.814,1.8h.257c.257-.514.493-1.05.707-1.586.429.514.857,1.007,1.286,1.521a1.416,1.416,0,0,0,.3-.021c-.45-.514-.9-1.05-1.35-1.586-.193-.107-.386-.236-.6-.343a2.013,2.013,0,0,1,.214.214" transform="translate(-546.1 -463)"/>
    </clipPath>
    <linearGradient id="linear-gradient-42" x1="-28.467" y1="49.059" x2="-28.05" y2="49.059" xlink:href="#linear-gradient-3"/>
    <clipPath id="clip-path-43">
      <path id="Path_175196" data-name="Path 175196" d="M631.828,354.7c-.064.021-.15.021-.214.043h-.064c-.043.107-.107.236-.15.364l.193.129.129-.321c.171.257.364.493.536.75.171.107.364.214.536.343-.321-.429-.622-.879-.943-1.307h-.022" transform="translate(-631.4 -354.7)"/>
    </clipPath>
    <linearGradient id="linear-gradient-43" x1="-65.677" y1="93.508" x2="-64.908" y2="93.508" xlink:href="#linear-gradient-3"/>
    <clipPath id="clip-path-44">
      <path id="Path_175197" data-name="Path 175197" d="M558.2,469.721a1.04,1.04,0,0,0,.257-.021c.064-.15.129-.3.214-.471l-.193-.129c-.107.214-.193.429-.279.621" transform="translate(-558.2 -469.1)"/>
    </clipPath>
    <linearGradient id="linear-gradient-44" x1="-160.772" y1="162.475" x2="-158.5" y2="162.475" xlink:href="#linear-gradient-3"/>
    <clipPath id="clip-path-45">
      <path id="Path_175198" data-name="Path 175198" d="M654.808,342.538l-.45-1.864c-.107-.471-.236-.964-.343-1.457.9,1.136,1.822,2.272,2.743,3.386.257,1.071.514,2.121.771,3.214-.9-1.093-1.821-2.164-2.721-3.279m-2.293-.107c-.064-.279-.107-.536-.171-.814-.171-.814-.364-1.607-.536-2.421.922,1.157,1.843,2.314,2.786,3.45.257,1.05.493,2.1.729,3.172-.943-1.114-1.886-2.25-2.807-3.386m4.479.064c-.236-.964-.471-1.929-.729-2.893-.043-.171-.086-.321-.129-.493.857,1.071,1.736,2.164,2.636,3.214.279,1.071.557,2.143.814,3.236-.879-1.007-1.736-2.014-2.593-3.064m1.993-.257c-.3-1.136-.578-2.293-.878-3.407.814,1.007,1.629,1.993,2.443,3,.279,1.071.557,2.164.836,3.257-.815-.964-1.607-1.907-2.4-2.85m-9.557-3.643c-.193-1.029-.364-2.079-.514-3.129.857,1.114,1.714,2.229,2.571,3.321.214.964.407,1.929.622,2.893a2.249,2.249,0,0,0,.086.364c-.943-1.157-1.864-2.293-2.764-3.45m2.271.107c-.236-1.093-.45-2.186-.664-3.3.878,1.136,1.757,2.272,2.657,3.407l.45,1.929c.107.471.214.943.343,1.414-.943-1.157-1.864-2.293-2.786-3.45m2.207,0c-.257-1.136-.536-2.271-.793-3.429.879,1.136,1.779,2.271,2.679,3.407.086.321.171.664.257.986.193.793.407,1.607.6,2.421-.921-1.136-1.843-2.25-2.743-3.386m2.1-.129c-.3-1.157-.579-2.336-.879-3.514.857,1.114,1.736,2.229,2.614,3.322,0,.021.021.064.021.086.279,1.114.578,2.229.857,3.343-.879-1.071-1.757-2.143-2.614-3.236m1.95-.3c-.3-1.179-.622-2.379-.921-3.579.814,1.05,1.65,2.1,2.486,3.15.3,1.136.6,2.293.9,3.45-.836-1.007-1.65-2.014-2.464-3.021m-13.308-3.064c-.021-.836-.021-1.693,0-2.529l1.865,2.507c.086.964.214,1.95.343,2.914-.75-.964-1.479-1.929-2.207-2.893m2.079-.107c-.086-.921-.15-1.822-.172-2.743.664.921,1.35,1.822,2.057,2.743.15,1.029.321,2.079.493,3.107-.793-1.05-1.586-2.079-2.379-3.107m2.121-.107c-.15-.986-.257-1.993-.343-2.979.729.986,1.479,1.971,2.229,2.957.214,1.093.429,2.207.664,3.3-.879-1.093-1.736-2.186-2.55-3.279m2.079-.107c-.193-1.072-.386-2.143-.536-3.214.793,1.071,1.586,2.122,2.379,3.172.257,1.157.514,2.293.771,3.45-.857-1.136-1.736-2.271-2.614-3.407m2.079-.15c-.257-1.136-.493-2.293-.707-3.429.814,1.114,1.65,2.207,2.486,3.3.278,1.179.579,2.357.879,3.536-.9-1.136-1.779-2.271-2.657-3.407m-12.172-1.757c.129-.664.279-1.307.45-1.95.407.557.793,1.114,1.2,1.672-.086.771-.15,1.521-.171,2.293-.493-.664-.986-1.35-1.479-2.014M655,334.5c-.279-1.2-.579-2.4-.836-3.622.836,1.114,1.672,2.25,2.529,3.343.3,1.2.622,2.4.922,3.6-.879-1.093-1.757-2.207-2.614-3.322m-12.257-1.864c.086-.707.214-1.393.364-2.1.429.621.878,1.221,1.329,1.821-.043.836-.043,1.672-.021,2.507-.579-.75-1.136-1.479-1.672-2.229m14.165,1.5c-.322-1.243-.621-2.486-.943-3.729.814,1.093,1.629,2.186,2.486,3.279.3,1.136.579,2.272.879,3.386.021.064.043.15.064.236-.857-1.071-1.672-2.121-2.486-3.172m-12.258-1.843c.043-.771.107-1.521.214-2.293.493.664.964,1.35,1.457,2.014.021.9.064,1.821.15,2.721-.6-.793-1.221-1.607-1.822-2.443m1.907-.343c-.021-.836,0-1.672.043-2.507.536.75,1.071,1.479,1.607,2.229q.128,1.479.321,2.957c-.643-.9-1.307-1.779-1.972-2.679m1.886-.386c-.086-.921-.129-1.843-.15-2.764.6.836,1.2,1.65,1.8,2.464.15,1.071.321,2.143.514,3.193-.707-.943-1.436-1.907-2.164-2.893m1.886-.386c-.15-1.007-.257-2.036-.343-3.043.664.921,1.329,1.821,1.993,2.743.214,1.136.45,2.293.686,3.429-.793-1.05-1.564-2.079-2.336-3.129m1.864-.407c-.214-1.114-.386-2.207-.557-3.322.707,1.007,1.436,1.993,2.164,2.979.257,1.2.536,2.422.836,3.622l-2.443-3.279m1.843-.429c-.257-1.2-.514-2.4-.75-3.6.771,1.071,1.543,2.121,2.314,3.193.3,1.243.621,2.507.921,3.75-.836-1.136-1.672-2.229-2.486-3.343m.664-5.057c-.043.043-.107.064-.15.107-.021,0-.021.021-.043.021.021.021.043.064.064.086.279,1.286.579,2.55.9,3.836-.772-1.029-1.521-2.079-2.25-3.129H653.2c-.064.043-.129.064-.193.107a.021.021,0,0,0-.021.021c.214,1.179.471,2.357.729,3.536l-2.057-2.829a.074.074,0,0,0-.043.021.535.535,0,0,0-.15.086c-.021,0-.043.021-.064.021.15,1.05.321,2.122.514,3.172-.621-.836-1.243-1.693-1.843-2.55-.021,0-.043.021-.064.021-.043.021-.107.043-.15.064-.021,0-.043.021-.086.043.086.964.171,1.907.3,2.871-.557-.771-1.114-1.521-1.671-2.293-.021,0-.043.021-.064.021-.043.021-.107.043-.15.064-.021,0-.043.021-.064.021,0,.879.043,1.736.107,2.614-.514-.686-1.007-1.393-1.521-2.1a.075.075,0,0,0-.043.021,1.477,1.477,0,0,0-.171.064c-.021,0-.043.021-.064.021-.043.793-.064,1.586-.064,2.4-.471-.643-.921-1.264-1.371-1.907h-.021c-.064.021-.129.043-.214.064-.021,0-.021,0-.043.021-.107.729-.172,1.457-.214,2.207-.429-.579-.857-1.179-1.264-1.757h0c-.064.021-.15.043-.236.064h-.021c-.15.664-.279,1.35-.364,2.036-.386-.536-.793-1.071-1.179-1.607v-.021h0c-.086.021-.15.043-.236.064h0c-.193.643-.343,1.286-.471,1.929-.364-.514-.75-1.029-1.114-1.543h0c-.086.021-.171.043-.236.064h-.021c-.214.557-.386,1.136-.557,1.714a1.9,1.9,0,0,0,.214.129c.15-.557.321-1.114.514-1.65.386.536.771,1.071,1.157,1.586-.064.343-.107.686-.15,1.05.064.043.15.107.214.15.043-.3.086-.621.128-.921.493.686,1.007,1.371,1.521,2.057.043.021.086.064.129.086.171.107.321.236.493.343-.129-.171-.257-.343-.386-.493.021-.771.064-1.543.15-2.314.557.771,1.136,1.543,1.714,2.293.021.536.043,1.093.086,1.65.086.064.171.129.236.171-.043-.493-.064-1.007-.086-1.5l2.25,2.957c0,.064.021.129.021.193l.257.193v-.021l.064.064c.257.193.514.386.75.6-.3-.364-.579-.75-.879-1.114-.129-.964-.257-1.95-.364-2.914.793,1.05,1.607,2.1,2.422,3.15.129.729.279,1.457.407,2.186.086.086.193.15.279.236-.129-.664-.257-1.35-.386-2.014.922,1.157,1.843,2.314,2.786,3.45.043.236.107.493.15.729.107.086.193.171.3.257-.043-.193-.086-.386-.129-.6l1.607,1.929c.514.471,1.007.943,1.521,1.436l.043.043a.923.923,0,0,1-.129-.15c-.236-1.05-.471-2.1-.707-3.129.9,1.093,1.822,2.164,2.743,3.236l.579,2.571.15.15a.362.362,0,0,1,.107-.043c-.171-.772-.343-1.522-.514-2.293.514.6,1.029,1.2,1.543,1.779.064-.043.15-.064.214-.107-.643-.729-1.264-1.436-1.886-2.164-.257-1.071-.514-2.122-.771-3.172.857,1.029,1.714,2.036,2.593,3.064.171.686.343,1.371.493,2.057.064-.043.15-.064.214-.107-.129-.514-.257-1.029-.386-1.564.343.407.686.793,1.05,1.2a1,1,0,0,1,.214-.107c-.471-.536-.921-1.05-1.371-1.586-.257-1.071-.536-2.143-.814-3.214.793.943,1.586,1.886,2.4,2.829.129.536.279,1.071.407,1.629.064-.043.15-.086.214-.129-.086-.364-.172-.729-.279-1.093.236.279.471.557.729.836l.193-.129c-.343-.407-.707-.814-1.05-1.2-.279-1.072-.557-2.164-.836-3.236l1.35,1.607-.236-.643c-.407-.493-.836-.986-1.243-1.479-.3-1.157-.6-2.293-.879-3.429.214.257.407.514.621.771l-.257-.686-.514-.643c-.064-.236-.129-.493-.193-.729-.171-.643-.321-1.264-.493-1.907l-.429-1.179-.279-.729-.129-.343.064.257c-.836-1.093-1.65-2.186-2.464-3.279-.3-1.264-.6-2.55-.9-3.814.536.75,1.071,1.5,1.629,2.25l-.3-.793c-.493-.686-.986-1.35-1.457-2.036-.021-.043-.021-.107-.043-.15-.043-.064-.064-.043-.086-.043" transform="translate(-638.8 -325.284)"/>
    </clipPath>
    <linearGradient id="linear-gradient-45" x1="-3.864" y1="5.408" x2="-3.819" y2="5.408" xlink:href="#linear-gradient-3"/>
    <clipPath id="clip-path-46">
      <path id="Path_175199" data-name="Path 175199" d="M729.6,435.3c.021.064.021.129.043.214.043-.021.064-.021.107-.043A1.066,1.066,0,0,1,729.6,435.3Z" transform="translate(-729.6 -435.3)"/>
    </clipPath>
    <linearGradient id="linear-gradient-46" x1="-750.131" y1="489.127" x2="-742.99" y2="489.127" xlink:href="#linear-gradient-3"/>
  </defs>
  <g id="Group_43147" data-name="Group 43147" transform="translate(0 59.915)">
    <path id="Path_175137" data-name="Path 175137" d="M219.9,728.643l.386-.857a3.367,3.367,0,0,0,1.993.664c.943,0,1.329-.343,1.329-.771,0-1.286-3.6-.45-3.6-2.679,0-.964.771-1.8,2.443-1.8a3.871,3.871,0,0,1,2.014.536l-.364.857a3.3,3.3,0,0,0-1.671-.471c-.943,0-1.307.364-1.307.814,0,1.286,3.579.45,3.579,2.657,0,.964-.793,1.779-2.443,1.779a3.859,3.859,0,0,1-2.357-.729" transform="translate(-219.364 -683.513)" fill="#007456"/>
    <path id="Path_175138" data-name="Path 175138" d="M248.379,728.207h-3.021l-.6,1.393H243.6l2.722-6h1.114l2.721,6h-1.179Zm-.386-.879-1.136-2.614-1.136,2.614Z" transform="translate(-237.986 -683.828)" fill="#007456"/>
    <path id="Path_175139" data-name="Path 175139" d="M276.9,726.986V723.6h1.114v3.343c0,1.243.557,1.757,1.543,1.757s1.521-.536,1.521-1.757V723.6h1.114v3.386a2.647,2.647,0,1,1-5.293,0" transform="translate(-264.15 -683.828)" fill="#007456"/>
    <path id="Path_175140" data-name="Path 175140" d="M308.9,723.6h2.636a3.014,3.014,0,1,1,0,6H308.9Zm2.593,5.057a2.064,2.064,0,1,0,0-4.114h-1.457v4.114Z" transform="translate(-289.292 -683.828)" fill="#007456"/>
    <rect id="Rectangle_8539" data-name="Rectangle 8539" width="1.114" height="6" transform="translate(26.743 39.772)" fill="#007456"/>
    <path id="Path_175141" data-name="Path 175141" d="M366.979,728.207h-3.022l-.6,1.393H362.2l2.721-6h1.114l2.721,6h-1.179Zm-.386-.879-1.136-2.614-1.136,2.614Z" transform="translate(-331.171 -683.828)" fill="#007456"/>
    <path id="Path_175142" data-name="Path 175142" d="M400.264,729.6l-1.243-1.757h-1.607V729.6H396.3v-6h2.486c1.586,0,2.572.814,2.572,2.143a1.907,1.907,0,0,1-1.286,1.886l1.393,1.972Zm-1.521-5.057h-1.307v2.4h1.307c.986,0,1.5-.45,1.5-1.2,0-.771-.514-1.2-1.5-1.2" transform="translate(-357.963 -683.828)" fill="#007456"/>
    <path id="Path_175143" data-name="Path 175143" d="M426.579,728.207h-3.021l-.6,1.393H421.8l2.722-6h1.114l2.721,6h-1.179Zm-.386-.879-1.136-2.614-1.136,2.614Z" transform="translate(-377.999 -683.828)" fill="#007456"/>
    <path id="Path_175144" data-name="Path 175144" d="M461.357,727.971c0,1.029-.814,1.629-2.357,1.629h-3v-6h2.829c1.457,0,2.229.6,2.229,1.564a1.48,1.48,0,0,1-.772,1.329,1.452,1.452,0,0,1,1.072,1.479m-4.243-3.493v1.65H458.7c.771,0,1.221-.279,1.221-.814,0-.557-.45-.836-1.221-.836Zm3.107,3.386c0-.6-.45-.857-1.307-.857h-1.822v1.736h1.822c.857-.021,1.307-.279,1.307-.879" transform="translate(-404.87 -683.828)" fill="#007456"/>
    <rect id="Rectangle_8540" data-name="Rectangle 8540" width="1.114" height="6" transform="translate(57.687 39.772)" fill="#007456"/>
    <path id="Path_175145" data-name="Path 175145" d="M500.279,728.207h-3.022l-.6,1.393H495.5l2.721-6h1.114l2.721,6h-1.179Zm-.386-.879-1.136-2.614-1.136,2.614Z" transform="translate(-435.906 -683.828)" fill="#007456"/>
    <path id="Path_175146" data-name="Path 175146" d="M541.993,728.343v.943h-4.457v-.75l2.4-2.271c.579-.557.686-.9.686-1.243,0-.557-.386-.857-1.114-.857a1.723,1.723,0,0,0-1.414.621l-.793-.6a2.817,2.817,0,0,1,2.293-.986c1.307,0,2.164.664,2.164,1.714a2.4,2.4,0,0,1-1.007,1.886l-1.607,1.521h2.85Z" transform="translate(-468.748 -683.513)" fill="#007456"/>
    <path id="Path_175147" data-name="Path 175147" d="M562.1,726.286c0-1.971,1.093-3.086,2.529-3.086s2.529,1.114,2.529,3.086-1.093,3.086-2.529,3.086c-1.457,0-2.529-1.114-2.529-3.086m3.922,0c0-1.457-.579-2.121-1.393-2.121s-1.393.664-1.393,2.121.579,2.121,1.393,2.121,1.393-.664,1.393-2.121" transform="translate(-488.234 -683.513)" fill="#007456"/>
    <path id="Path_175148" data-name="Path 175148" d="M592.193,728.343v.943h-4.457v-.75l2.4-2.271c.579-.557.686-.9.686-1.243,0-.557-.386-.857-1.114-.857a1.724,1.724,0,0,0-1.414.621l-.793-.6a2.817,2.817,0,0,1,2.293-.986c1.307,0,2.164.664,2.164,1.714a2.4,2.4,0,0,1-1.007,1.886l-1.607,1.521h2.85Z" transform="translate(-508.191 -683.513)" fill="#007456"/>
    <path id="Path_175149" data-name="Path 175149" d="M612.3,726.286c0-1.971,1.093-3.086,2.529-3.086s2.529,1.114,2.529,3.086-1.093,3.086-2.529,3.086-2.529-1.114-2.529-3.086m3.922,0c0-1.457-.579-2.121-1.393-2.121s-1.393.664-1.393,2.121.579,2.121,1.393,2.121,1.393-.664,1.393-2.121" transform="translate(-527.676 -683.513)" fill="#007456"/>
    <path id="Path_175150" data-name="Path 175150" d="M241.443,554.243h6.879v13.115a22.56,22.56,0,0,1-13.157,4.114c-10.243,0-17.765-6.986-17.765-16.736S224.943,538,235.315,538c5.722,0,10.457,1.95,13.629,5.593L244.1,548.05a11.1,11.1,0,0,0-8.422-3.643c-6.322,0-10.65,4.2-10.65,10.35,0,6.043,4.329,10.35,10.565,10.35a11.917,11.917,0,0,0,5.872-1.393v-9.472Z" transform="translate(-217.4 -538)" fill="#007456"/>
    <path id="Path_175151" data-name="Path 175151" d="M407.5,564.908v6.107H382.9v-4.864l12.557-11.786c2.893-2.722,3.386-4.393,3.386-5.957,0-2.55-1.779-4.029-5.207-4.029a8.023,8.023,0,0,0-6.75,3.236L381.4,544.1c2.507-3.643,7.072-6,12.922-6,7.264,0,12.086,3.707,12.086,9.557,0,3.15-.879,6-5.443,10.222l-7.479,7.029Z" transform="translate(-346.256 -538.078)" fill="#007456"/>
    <path id="Path_175152" data-name="Path 175152" d="M517.3,554.836c0-10.672,5.957-16.736,13.95-16.736,8.057,0,13.95,6.064,13.95,16.736s-5.914,16.736-13.95,16.736c-7.993,0-13.95-6.064-13.95-16.736m20.336,0c0-7.35-2.614-10.393-6.364-10.393-3.729,0-6.322,3.043-6.322,10.393s2.614,10.393,6.322,10.393c3.75,0,6.364-3.043,6.364-10.393" transform="translate(-453.034 -538.079)" fill="#007456"/>
  </g>
  <g id="Group_43149" data-name="Group 43149" transform="translate(81.112 14.451)">
    <g id="Group_43148" data-name="Group 43148" transform="translate(0 0)" clip-path="url(#clip-path)">
      <rect id="Rectangle_8541" data-name="Rectangle 8541" width="29.015" height="27.001" fill="url(#linear-gradient)"/>
    </g>
  </g>
  <g id="Group_43151" data-name="Group 43151" transform="translate(0.042 26.958)">
    <g id="Group_43150" data-name="Group 43150" transform="translate(0 0)" clip-path="url(#clip-path-2)">
      <rect id="Rectangle_8542" data-name="Rectangle 8542" width="77.059" height="23.079" transform="translate(-0.385 0)" fill="url(#linear-gradient-2)"/>
    </g>
  </g>
  <g id="Group_43152" data-name="Group 43152" transform="translate(81.09 14.451)">
    <path id="Path_175155" data-name="Path 175155" d="M640.293,317.171l-.621-1.671s-7.35,5.207-19.972,7.286c.707.429,1.393.857,2.1,1.286,12.172-2.357,17.529-6.15,18.493-6.9" transform="translate(-619.7 -315.5)" fill="#010101"/>
  </g>
  <g id="Group_43154" data-name="Group 43154" transform="translate(0.364 29.494)">
    <g id="Group_43153" data-name="Group 43153" transform="translate(0 0)" clip-path="url(#clip-path-3)">
      <rect id="Rectangle_8543" data-name="Rectangle 8543" width="0.321" height="0.686" transform="translate(0 -0.021)" fill="url(#linear-gradient-3)"/>
    </g>
  </g>
  <g id="Group_43156" data-name="Group 43156" transform="translate(0.536 29.176)">
    <g id="Group_43155" data-name="Group 43155" transform="translate(0)" clip-path="url(#clip-path-4)">
      <rect id="Rectangle_8544" data-name="Rectangle 8544" width="0.471" height="1.264" transform="translate(0)" fill="url(#linear-gradient-4)"/>
    </g>
  </g>
  <g id="Group_43158" data-name="Group 43158" transform="translate(0.771 28.899)">
    <g id="Group_43157" data-name="Group 43157" transform="translate(0 0)" clip-path="url(#clip-path-5)">
      <rect id="Rectangle_8545" data-name="Rectangle 8545" width="0.643" height="1.864" transform="translate(0 0)" fill="url(#linear-gradient-5)"/>
    </g>
  </g>
  <g id="Group_43160" data-name="Group 43160" transform="translate(1.029 28.644)">
    <g id="Group_43159" data-name="Group 43159" transform="translate(0 0)" clip-path="url(#clip-path-6)">
      <rect id="Rectangle_8546" data-name="Rectangle 8546" width="0.814" height="2.443" transform="translate(0)" fill="url(#linear-gradient-6)"/>
    </g>
  </g>
  <g id="Group_43162" data-name="Group 43162" transform="translate(1.329 28.431)">
    <g id="Group_43161" data-name="Group 43161" transform="translate(0 0)" clip-path="url(#clip-path-7)">
      <rect id="Rectangle_8547" data-name="Rectangle 8547" width="1.007" height="3.022" transform="translate(0 0)" fill="url(#linear-gradient-7)"/>
    </g>
  </g>
  <g id="Group_43164" data-name="Group 43164" transform="translate(1.671 28.197)">
    <g id="Group_43163" data-name="Group 43163" transform="translate(0 0)" clip-path="url(#clip-path-8)">
      <rect id="Rectangle_8548" data-name="Rectangle 8548" width="1.2" height="3.622" transform="translate(0 0.021)" fill="url(#linear-gradient-8)"/>
    </g>
  </g>
  <g id="Group_43166" data-name="Group 43166" transform="translate(2.057 28.005)">
    <g id="Group_43165" data-name="Group 43165" transform="translate(0)" clip-path="url(#clip-path-9)">
      <rect id="Rectangle_8549" data-name="Rectangle 8549" width="1.393" height="4.222" transform="translate(0.021 0)" fill="url(#linear-gradient-9)"/>
    </g>
  </g>
  <g id="Group_43168" data-name="Group 43168" transform="translate(2.507 27.812)">
    <g id="Group_43167" data-name="Group 43167" transform="translate(0)" clip-path="url(#clip-path-10)">
      <rect id="Rectangle_8550" data-name="Rectangle 8550" width="1.607" height="4.822" transform="translate(0 0)" fill="url(#linear-gradient-10)"/>
    </g>
  </g>
  <g id="Group_43170" data-name="Group 43170" transform="translate(2.979 27.662)">
    <g id="Group_43169" data-name="Group 43169" transform="translate(0)" clip-path="url(#clip-path-11)">
      <rect id="Rectangle_8551" data-name="Rectangle 8551" width="1.864" height="5.4" transform="translate(0.021 -0.021)" fill="url(#linear-gradient-11)"/>
    </g>
  </g>
  <g id="Group_43172" data-name="Group 43172" transform="translate(3.514 27.491)">
    <g id="Group_43171" data-name="Group 43171" transform="translate(0 0)" clip-path="url(#clip-path-12)">
      <rect id="Rectangle_8552" data-name="Rectangle 8552" width="2.079" height="5.979" transform="translate(0.021)" fill="url(#linear-gradient-12)"/>
    </g>
  </g>
  <g id="Group_43174" data-name="Group 43174" transform="translate(4.072 27.404)">
    <g id="Group_43173" data-name="Group 43173" transform="translate(0 0)" clip-path="url(#clip-path-13)">
      <rect id="Rectangle_8553" data-name="Rectangle 8553" width="2.314" height="6.514" transform="translate(0.021 -0.021)" fill="url(#linear-gradient-13)"/>
    </g>
  </g>
  <g id="Group_43176" data-name="Group 43176" transform="translate(4.693 27.275)">
    <g id="Group_43175" data-name="Group 43175" transform="translate(0 0)" clip-path="url(#clip-path-14)">
      <rect id="Rectangle_8554" data-name="Rectangle 8554" width="2.55" height="7.05" transform="translate(0.021 0.021)" fill="url(#linear-gradient-14)"/>
    </g>
  </g>
  <g id="Group_43178" data-name="Group 43178" transform="translate(5.379 27.188)">
    <g id="Group_43177" data-name="Group 43177" transform="translate(0 0)" clip-path="url(#clip-path-15)">
      <rect id="Rectangle_8555" data-name="Rectangle 8555" width="2.829" height="7.586" transform="translate(0 0.021)" fill="url(#linear-gradient-15)"/>
    </g>
  </g>
  <g id="Group_43180" data-name="Group 43180" transform="translate(6.086 27.143)">
    <g id="Group_43179" data-name="Group 43179" transform="translate(0 0)" clip-path="url(#clip-path-16)">
      <rect id="Rectangle_8556" data-name="Rectangle 8556" width="3.086" height="8.079" fill="url(#linear-gradient-16)"/>
    </g>
  </g>
  <g id="Group_43182" data-name="Group 43182" transform="translate(6.857 27.098)">
    <g id="Group_43181" data-name="Group 43181" clip-path="url(#clip-path-17)">
      <rect id="Rectangle_8557" data-name="Rectangle 8557" width="3.364" height="8.572" fill="url(#linear-gradient-17)"/>
    </g>
  </g>
  <g id="Group_43184" data-name="Group 43184" transform="translate(7.672 27.074)">
    <g id="Group_43183" data-name="Group 43183" transform="translate(0 0)" clip-path="url(#clip-path-18)">
      <rect id="Rectangle_8558" data-name="Rectangle 8558" width="3.622" height="9.022" fill="url(#linear-gradient-18)"/>
    </g>
  </g>
  <g id="Group_43186" data-name="Group 43186" transform="translate(8.529 27.071)">
    <g id="Group_43185" data-name="Group 43185" transform="translate(0 0)" clip-path="url(#clip-path-19)">
      <rect id="Rectangle_8559" data-name="Rectangle 8559" width="3.9" height="9.472" fill="url(#linear-gradient-19)"/>
    </g>
  </g>
  <g id="Group_43188" data-name="Group 43188" transform="translate(9.45 27.09)">
    <g id="Group_43187" data-name="Group 43187" transform="translate(0)" clip-path="url(#clip-path-20)">
      <rect id="Rectangle_8560" data-name="Rectangle 8560" width="4.2" height="9.9" fill="url(#linear-gradient-20)"/>
    </g>
  </g>
  <g id="Group_43190" data-name="Group 43190" transform="translate(10.415 27.129)">
    <g id="Group_43189" data-name="Group 43189" transform="translate(0 0)" clip-path="url(#clip-path-21)">
      <rect id="Rectangle_8561" data-name="Rectangle 8561" width="4.479" height="10.286" fill="url(#linear-gradient-21)"/>
    </g>
  </g>
  <g id="Group_43192" data-name="Group 43192" transform="translate(11.443 27.189)">
    <g id="Group_43191" data-name="Group 43191" transform="translate(0 0)" clip-path="url(#clip-path-22)">
      <rect id="Rectangle_8562" data-name="Rectangle 8562" width="4.736" height="10.672" transform="translate(0 0.021)" fill="url(#linear-gradient-22)"/>
    </g>
  </g>
  <g id="Group_43194" data-name="Group 43194" transform="translate(12.536 27.313)">
    <g id="Group_43193" data-name="Group 43193" transform="translate(0 0)" clip-path="url(#clip-path-23)">
      <rect id="Rectangle_8563" data-name="Rectangle 8563" width="4.993" height="10.993" transform="translate(0 0)" fill="url(#linear-gradient-23)"/>
    </g>
  </g>
  <g id="Group_43196" data-name="Group 43196" transform="translate(13.65 27.5)">
    <g id="Group_43195" data-name="Group 43195" transform="translate(0 0)" clip-path="url(#clip-path-24)">
      <rect id="Rectangle_8564" data-name="Rectangle 8564" width="5.464" height="11.272" transform="translate(0 -0.021)" fill="url(#linear-gradient-24)"/>
    </g>
  </g>
  <g id="Group_43198" data-name="Group 43198" transform="translate(14.979 27.707)">
    <g id="Group_43197" data-name="Group 43197" transform="translate(0)" clip-path="url(#clip-path-25)">
      <rect id="Rectangle_8565" data-name="Rectangle 8565" width="5.914" height="11.529" transform="translate(0 0)" fill="url(#linear-gradient-25)"/>
    </g>
  </g>
  <g id="Group_43200" data-name="Group 43200" transform="translate(16.35 27.957)">
    <g id="Group_43199" data-name="Group 43199" transform="translate(0)" clip-path="url(#clip-path-26)">
      <rect id="Rectangle_8566" data-name="Rectangle 8566" width="6.279" height="11.743" transform="translate(0 0)" fill="url(#linear-gradient-26)"/>
    </g>
  </g>
  <g id="Group_43202" data-name="Group 43202" transform="translate(17.722 28.228)">
    <g id="Group_43201" data-name="Group 43201" transform="translate(0 0)" clip-path="url(#clip-path-27)">
      <rect id="Rectangle_8567" data-name="Rectangle 8567" width="6.622" height="11.915" fill="url(#linear-gradient-27)"/>
    </g>
  </g>
  <g id="Group_43204" data-name="Group 43204" transform="translate(18.299 28.562)">
    <g id="Group_43203" data-name="Group 43203" transform="translate(0 0)" clip-path="url(#clip-path-28)">
      <rect id="Rectangle_8568" data-name="Rectangle 8568" width="6.9" height="12.022" transform="translate(0 -0.021)" fill="url(#linear-gradient-28)"/>
    </g>
  </g>
  <g id="Group_43206" data-name="Group 43206" transform="translate(19.689 28.896)">
    <g id="Group_43205" data-name="Group 43205" clip-path="url(#clip-path-29)">
      <rect id="Rectangle_8569" data-name="Rectangle 8569" width="7.114" height="12.129" transform="translate(0 -0.021)" fill="url(#linear-gradient-29)"/>
    </g>
  </g>
  <g id="Group_43208" data-name="Group 43208" transform="translate(21.14 29.231)">
    <g id="Group_43207" data-name="Group 43207" transform="translate(0 0)" clip-path="url(#clip-path-30)">
      <rect id="Rectangle_8570" data-name="Rectangle 8570" width="7.307" height="12.172" transform="translate(0 0.021)" fill="url(#linear-gradient-30)"/>
    </g>
  </g>
  <g id="Group_43210" data-name="Group 43210" transform="translate(22.613 29.628)">
    <g id="Group_43209" data-name="Group 43209" transform="translate(0 0)" clip-path="url(#clip-path-31)">
      <rect id="Rectangle_8571" data-name="Rectangle 8571" width="7.479" height="12.193" transform="translate(0.021)" fill="url(#linear-gradient-31)"/>
    </g>
  </g>
  <g id="Group_43212" data-name="Group 43212" transform="translate(24.167 30.026)">
    <g id="Group_43211" data-name="Group 43211" transform="translate(0)" clip-path="url(#clip-path-32)">
      <rect id="Rectangle_8572" data-name="Rectangle 8572" width="7.586" height="12.193" transform="translate(0 0)" fill="url(#linear-gradient-32)"/>
    </g>
  </g>
  <g id="Group_43214" data-name="Group 43214" transform="translate(25.762 30.466)">
    <g id="Group_43213" data-name="Group 43213" transform="translate(0 0)" clip-path="url(#clip-path-33)">
      <rect id="Rectangle_8573" data-name="Rectangle 8573" width="7.65" height="12.172" fill="url(#linear-gradient-33)"/>
    </g>
  </g>
  <g id="Group_43216" data-name="Group 43216" transform="translate(27.501 30.948)">
    <g id="Group_43215" data-name="Group 43215" transform="translate(0 0)" clip-path="url(#clip-path-34)">
      <rect id="Rectangle_8574" data-name="Rectangle 8574" width="7.714" height="12.086" fill="url(#linear-gradient-34)"/>
    </g>
  </g>
  <g id="Group_43218" data-name="Group 43218" transform="translate(29.261 31.43)">
    <g id="Group_43217" data-name="Group 43217" transform="translate(0)" clip-path="url(#clip-path-35)">
      <rect id="Rectangle_8575" data-name="Rectangle 8575" width="7.693" height="11.979" transform="translate(0 0.021)" fill="url(#linear-gradient-35)"/>
    </g>
  </g>
  <g id="Group_43220" data-name="Group 43220" transform="translate(31.103 31.976)">
    <g id="Group_43219" data-name="Group 43219" transform="translate(0 0)" clip-path="url(#clip-path-36)">
      <rect id="Rectangle_8576" data-name="Rectangle 8576" width="7.629" height="11.829" transform="translate(0)" fill="url(#linear-gradient-36)"/>
    </g>
  </g>
  <g id="Group_43222" data-name="Group 43222" transform="translate(33.028 32.543)">
    <g id="Group_43221" data-name="Group 43221" transform="translate(0 0)" clip-path="url(#clip-path-37)">
      <rect id="Rectangle_8577" data-name="Rectangle 8577" width="7.522" height="11.636" transform="translate(0 0.021)" fill="url(#linear-gradient-37)"/>
    </g>
  </g>
  <g id="Group_43224" data-name="Group 43224" transform="translate(35.056 33.173)">
    <g id="Group_43223" data-name="Group 43223" transform="translate(0)" clip-path="url(#clip-path-38)">
      <rect id="Rectangle_8578" data-name="Rectangle 8578" width="7.35" height="11.4" transform="translate(0 0)" fill="url(#linear-gradient-38)"/>
    </g>
  </g>
  <g id="Group_43226" data-name="Group 43226" transform="translate(37.208 33.845)">
    <g id="Group_43225" data-name="Group 43225" transform="translate(0 0)" clip-path="url(#clip-path-39)">
      <rect id="Rectangle_8579" data-name="Rectangle 8579" width="7.136" height="11.1" transform="translate(0 -0.021)" fill="url(#linear-gradient-39)"/>
    </g>
  </g>
  <g id="Group_43228" data-name="Group 43228" transform="translate(39.444 34.56)">
    <g id="Group_43227" data-name="Group 43227" transform="translate(0)" clip-path="url(#clip-path-40)">
      <rect id="Rectangle_8580" data-name="Rectangle 8580" width="6.879" height="10.757" transform="translate(0 -0.021)" fill="url(#linear-gradient-40)"/>
    </g>
  </g>
  <g id="Group_43230" data-name="Group 43230" transform="translate(41.135 35.303)">
    <g id="Group_43229" data-name="Group 43229" transform="translate(0 0)" clip-path="url(#clip-path-41)">
      <rect id="Rectangle_8581" data-name="Rectangle 8581" width="26.143" height="12" transform="translate(-0.021 0)" fill="url(#linear-gradient-41)"/>
    </g>
  </g>
  <g id="Group_43232" data-name="Group 43232" transform="translate(67.397 45.096)">
    <g id="Group_43231" data-name="Group 43231" transform="translate(0)" clip-path="url(#clip-path-42)">
      <rect id="Rectangle_8582" data-name="Rectangle 8582" width="2.571" height="2.014" transform="translate(0)" fill="url(#linear-gradient-42)"/>
    </g>
  </g>
  <g id="Group_43234" data-name="Group 43234" transform="translate(84.923 22.377)">
    <g id="Group_43233" data-name="Group 43233" transform="translate(0 0)" clip-path="url(#clip-path-43)">
      <rect id="Rectangle_8583" data-name="Rectangle 8583" width="1.393" height="1.307" fill="url(#linear-gradient-43)"/>
    </g>
  </g>
  <g id="Group_43236" data-name="Group 43236" transform="translate(69.932 46.389)">
    <g id="Group_43235" data-name="Group 43235" transform="translate(0)" clip-path="url(#clip-path-44)">
      <rect id="Rectangle_8584" data-name="Rectangle 8584" width="0.471" height="0.6" transform="translate(0 0.021)" fill="url(#linear-gradient-44)"/>
    </g>
  </g>
  <g id="Group_43238" data-name="Group 43238" transform="translate(85.183 16.112)">
    <g id="Group_43237" data-name="Group 43237" transform="translate(0 0)" clip-path="url(#clip-path-45)">
      <rect id="Rectangle_8585" data-name="Rectangle 8585" width="24.065" height="23.765" transform="translate(-0.086 -0.018)" fill="url(#linear-gradient-45)"/>
    </g>
  </g>
  <g id="Group_43240" data-name="Group 43240" transform="translate(104.641 39.298)">
    <g id="Group_43239" data-name="Group 43239" transform="translate(0 0)" clip-path="url(#clip-path-46)">
      <rect id="Rectangle_8586" data-name="Rectangle 8586" width="0.15" height="0.214" fill="url(#linear-gradient-46)"/>
    </g>
  </g>
  <g id="Group_43250" data-name="Group 43250" transform="translate(0.043 0)">
    <path id="Path_175200" data-name="Path 175200" d="M731.35,427.571c1.457-.707,2.893-1.457,4.286-2.25l-.557-1.521a33.8,33.8,0,0,1-4.779,2.614c.343.386.686.771,1.05,1.157" transform="translate(-625.552 -387.099)" fill="#010101"/>
    <path id="Path_175201" data-name="Path 175201" d="M293.079,408.729c-.407-.257-.793-.514-1.2-.75-2.657.129-5.464.214-8.422.214a169.711,169.711,0,0,1-24.236-2.036c-16.436-2.55-36.087-7.5-41.122-15.557a.021.021,0,0,1-.021.021c-.021.043-.043.064-.043.107a.162.162,0,0,0-.043.086,1.476,1.476,0,0,0-.064.171c0,.021-.021.021-.021.043a2.244,2.244,0,0,0-.107.643c0,.471-.407,5.764,24.686,12.579a165.3,165.3,0,0,0,51.965,5.357c-.493-.279-.921-.579-1.371-.879" transform="translate(-217.756 -361.001)" fill="#010101"/>
    <path id="Path_175202" data-name="Path 175202" d="M328.071,330.091a29.033,29.033,0,0,0,3.631-7.229,18.664,18.664,0,0,0,.759-9.193,24.952,24.952,0,0,0-1.5-4.993,34.707,34.707,0,0,0-2.728-5.2,51.4,51.4,0,0,0-3.856-5.328,71.374,71.374,0,0,0-4.923-5.391c-1.887-1.88-3.856-3.656-5.908-5.349-2.195-1.839-4.472-3.573-6.81-5.223q-3.723-2.633-7.631-5.014-4.123-2.507-8.369-4.722-4.462-2.319-9.046-4.325a173.557,173.557,0,0,0-24.636-8.692c-.554-.146-1.087-.292-1.641-.439-1.046-.272-2.113-.543-3.18-.773-1.067-.251-2.133-.481-3.221-.689-1.067-.209-2.154-.4-3.241-.585q-1.631-.251-3.262-.439c-1.087-.125-2.174-.209-3.262-.272s-2.174-.084-3.262-.063-2.174.063-3.262.146a15.883,15.883,0,0,0-2.974.543,10.766,10.766,0,0,0-2.339.94,4.639,4.639,0,0,0-1.436,1.316l.123-.251c-.513.94-.964,1.818-1.456,2.779a66.115,66.115,0,0,0-4.062,9.715A56.348,56.348,0,0,0,218.1,282.37a2.773,2.773,0,0,1,.595-.857,6.326,6.326,0,0,1,2.4-1.254,16.25,16.25,0,0,1,2.687-.627c.985-.146,1.969-.209,2.954-.272s1.99-.084,2.974-.063c.985,0,1.99.042,2.974.1,1.005.063,1.99.146,2.974.251s1.99.251,2.974.4,1.969.313,2.933.5,1.949.376,2.913.585c.513.1,1.005.209,1.518.334a153.638,153.638,0,0,1,22.482,6.874c2.79,1.086,5.539,2.3,8.246,3.573,2.605,1.233,5.169,2.549,7.692,3.97,2.4,1.337,4.759,2.779,7.077,4.3,2.174,1.421,4.308,2.925,6.4,4.534.062.042.1.084.164.125.246.188.472.376.718.543.226.188.472.376.7.564l.677.564.677.564.677.564.677.564c.226.188.451.376.677.585.226.188.451.4.656.585,1.662,1.483,3.241,3.05,4.739,4.68a49.858,49.858,0,0,1,3.754,4.638,32.738,32.738,0,0,1,2.708,4.555,22.437,22.437,0,0,1,1.6,4.388,17.2,17.2,0,0,1-.164,8.295,28.005,28.005,0,0,1-3.1,6.644,43.1,43.1,0,0,0,15.016-12.494" transform="translate(-217.993 -254.427)" fill="#bc2126"/>
    <path id="Path_175203" data-name="Path 175203" d="M218.3,391.771h0c.021-.064.043-.107.064-.171a.285.285,0,0,0-.064.171" transform="translate(-218.15 -361.593)" fill="#bc2126"/>
    <path id="Path_175204" data-name="Path 175204" d="M218.8,390.886c.021-.021.021-.064.043-.086a.162.162,0,0,0-.043.086" transform="translate(-218.543 -360.959)" fill="#bc2126"/>
    <path id="Path_175205" data-name="Path 175205" d="M217.641,392.4v.214a.365.365,0,0,1,0-.214" transform="translate(-217.62 -362.226)" fill="#bc2126"/>
    <path id="Path_175206" data-name="Path 175206" d="M218,382.786c0-.129.021-.257.021-.386a2.329,2.329,0,0,1-.021.386" transform="translate(-217.914 -354.318)" fill="#bc2126"/>
    <path id="Path_175207" data-name="Path 175207" d="M217.621,389.164V389.1c0,.15-.021.3-.021.45a2.332,2.332,0,0,0,.021-.386" transform="translate(-217.6 -359.618)" fill="#bc2126"/>
    <path id="Path_175208" data-name="Path 175208" d="M217.7,387.35c0-.15.021-.3.021-.429V386.9a3.163,3.163,0,0,1-.021.45" transform="translate(-217.679 -357.877)" fill="#bc2126"/>
    <path id="Path_175209" data-name="Path 175209" d="M219.9,389.086h0c.021-.021.043-.064.064-.086-.021.021-.043.064-.064.086" transform="translate(-219.407 -359.536)" fill="#bc2126"/>
    <path id="Path_175210" data-name="Path 175210" d="M226.1,384.343c.043-.021.064-.043.107-.043-.043.021-.064.043-.107.043" transform="translate(-224.279 -355.818)" fill="#bc2126"/>
    <path id="Path_175211" data-name="Path 175211" d="M223.8,384.936h0c.129-.086.257-.15.386-.236a3.714,3.714,0,0,1-.386.236" transform="translate(-222.471 -356.136)" fill="#bc2126"/>
    <path id="Path_175212" data-name="Path 175212" d="M675.4,672.2Z" transform="translate(-582.417 -583.528)" fill="#bc2126"/>
    <path id="Path_175213" data-name="Path 175213" d="M220.8,388.221l.021-.021h0a.021.021,0,0,1-.021.021" transform="translate(-220.114 -358.902)" fill="#bc2126"/>
    <path id="Path_175214" data-name="Path 175214" d="M221.3,387.486h0c.021-.021.064-.043.086-.086l-.086.086" transform="translate(-220.507 -358.27)" fill="#bc2126"/>
    <path id="Path_175215" data-name="Path 175215" d="M222.9,386.5h0" transform="translate(-221.764 -357.558)" fill="#bc2126"/>
    <path id="Path_175216" data-name="Path 175216" d="M222.1,386.943c.021-.021.043-.021.043-.043l-.043.043" transform="translate(-221.136 -357.874)" fill="#bc2126"/>
    <path id="Path_175217" data-name="Path 175217" d="M356.4,285.5s3.943.686,7.479,1.586l-5.379,1.907Z" transform="translate(-327.997 -277.477)" fill="#fff"/>
    <path id="Path_175218" data-name="Path 175218" d="M332.857,282.207c-1.157-.193-2.186-.343-3.279-.471-.707-.086-1.393-.171-2.079-.236l1.886,3.214,4.307-2.357c-.236-.043-.621-.107-.836-.15" transform="translate(-304.999 -274.335)" fill="#f0d283"/>
    <path id="Path_175219" data-name="Path 175219" d="M550.5,351.4l2.936,5.036,5.636-.407s-4.179-2.486-8.572-4.629" transform="translate(-482.408 -329.827)" fill="#fff"/>
    <path id="Path_175220" data-name="Path 175220" d="M628.3,397l2.25,5.4,5.25.129c.022,0-4.05-3.257-7.5-5.529" transform="translate(-544.257 -365.913)" fill="#fff"/>
    <path id="Path_175221" data-name="Path 175221" d="M590.5,373l2.486,5.164,5.636-.021c-.022,0-3.686-2.55-8.122-5.143" transform="translate(-514.212 -346.919)" fill="#ecca7f"/>
    <path id="Path_175222" data-name="Path 175222" d="M749.593,525.4l-.793,4.929,2.593.429a24.956,24.956,0,0,0-1.8-5.357" transform="translate(-640.088 -467.509)" fill="#fff"/>
    <path id="Path_175223" data-name="Path 175223" d="M753.9,554.943l1.779.386a17.669,17.669,0,0,0-.279-4.929Z" transform="translate(-644.095 -487.282)" fill="#f0d283"/>
    <path id="Path_175224" data-name="Path 175224" d="M752,578.286l1.05.15a19.1,19.1,0,0,0,1.136-5.036Z" transform="translate(-642.602 -505.483)" fill="#fff"/>
    <path id="Path_175225" data-name="Path 175225" d="M308.971,329.3l2.636,3.557s-2.957-.6-6.707-.964Z" transform="translate(-287.03 -312.333)" fill="#f0d283"/>
    <path id="Path_175226" data-name="Path 175226" d="M283.686,329.614l-2.25-3.214-3.536,2.936s3-.021,5.786.279" transform="translate(-264.978 -310.037)" fill="#fff"/>
    <path id="Path_175227" data-name="Path 175227" d="M283.3,344.357l4.65-2.957,2.572,3.6a62.715,62.715,0,0,0-7.222-.643" transform="translate(-269.221 -321.906)" fill="#fff"/>
    <path id="Path_175228" data-name="Path 175228" d="M307.471,345.079l4.136-2.614s-3.943-.729-6.707-.964Z" transform="translate(-287.03 -321.985)" fill="#007456"/>
    <path id="Path_175229" data-name="Path 175229" d="M323.886,349.757l-2.85-3.857-4.136,2.614c0,.021,3.986.579,6.986,1.243" transform="translate(-296.576 -325.468)" fill="#fff"/>
    <path id="Path_175230" data-name="Path 175230" d="M336.2,337.1l3.771-2.4,3.493,3.986s-4.586-1.157-7.264-1.586" transform="translate(-311.928 -316.608)" fill="#fff"/>
    <path id="Path_175231" data-name="Path 175231" d="M323.914,267.45c-1.157-.15-2.314-.257-3.429-.343-.621-.043-1.264-.086-1.886-.107l1.886,3.107,4.2-2.55c-.257-.043-.514-.086-.771-.107" transform="translate(-297.92 -262.942)" fill="#fff"/>
    <path id="Path_175232" data-name="Path 175232" d="M353.079,270.607c-1.157-.236-2.293-.45-3.364-.621-.879-.15-1.757-.279-2.614-.386l1.993,3.407,4.35-2.314c-.129-.021-.257-.064-.364-.086" transform="translate(-320.587 -264.985)" fill="#fff"/>
    <path id="Path_175233" data-name="Path 175233" d="M583.743,352.279c-1.864-1.136-3.793-2.229-5.743-3.279l2.679,5.164,5.507-.364c-.793-.514-1.629-1.029-2.443-1.521" transform="translate(-504.271 -327.929)" fill="#fff"/>
    <path id="Path_175234" data-name="Path 175234" d="M621.793,375.029c-1.8-1.264-3.686-2.507-5.593-3.729l2.614,5.507h5.464c-.836-.6-1.65-1.2-2.486-1.779" transform="translate(-534.653 -345.577)" fill="#fff"/>
    <path id="Path_175235" data-name="Path 175235" d="M762.407,533.957c-.086-.471-.214-.964-.343-1.457l-1.264,3.857,1.864.364a14.568,14.568,0,0,0-.257-2.764" transform="translate(-649.516 -473.106)" fill="#fff"/>
    <path id="Path_175236" data-name="Path 175236" d="M762.3,556.586l1.007.236a18.775,18.775,0,0,0,.579-4.822Z" transform="translate(-650.694 -488.546)" fill="#fff"/>
    <path id="Path_175237" data-name="Path 175237" d="M529.393,406.2l2.293,4.586s-3.043-1.8-7.586-4.05Z" transform="translate(-461.382 -373.183)" fill="#fff"/>
    <path id="Path_175238" data-name="Path 175238" d="M565.179,427.721l2.121,4.821s-3.643-2.486-7.8-4.843Z" transform="translate(-489.545 -390.197)" fill="#ecca7f"/>
    <path id="Path_175239" data-name="Path 175239" d="M601.364,450.6l2.1,5.293s-4.179-3.386-7.564-5.593Z" transform="translate(-518.489 -408.088)" fill="#fff"/>
    <path id="Path_175240" data-name="Path 175240" d="M559.6,427.6l2.336,4.822,5.443.021s-3.9-2.657-7.779-4.843" transform="translate(-489.624 -390.118)" fill="#007456"/>
    <path id="Path_175241" data-name="Path 175241" d="M529.7,427.3l6.386.064,2.336,4.822c.021,0-4.629-2.871-8.722-4.886" transform="translate(-465.867 -389.881)" fill="#fff"/>
    <path id="Path_175242" data-name="Path 175242" d="M578.15,455.157l-2.207-5.036L570.5,450.1s4.222,2.529,7.65,5.057" transform="translate(-498.289 -407.923)" fill="#fff"/>
    <path id="Path_175243" data-name="Path 175243" d="M714.493,577.314l1.779-3.6L713.1,572.9a20.07,20.07,0,0,1,1.393,4.414" transform="translate(-612.038 -505.074)" fill="#fff"/>
    <path id="Path_175244" data-name="Path 175244" d="M722.086,594.207l-2.143,3.557a16.931,16.931,0,0,0-.343-4.264Z" transform="translate(-617.145 -521.692)" fill="#ecca7f"/>
    <path id="Path_175245" data-name="Path 175245" d="M719.907,614.171l-2.507,3.6a16.362,16.362,0,0,0,.814-4.372Z" transform="translate(-615.416 -537.328)" fill="#fff"/>
    <path id="Path_175246" data-name="Path 175246" d="M711.743,593.5l-2.143,3.236,2.507,1.007a18.3,18.3,0,0,0-.364-4.243" transform="translate(-609.288 -521.692)" fill="#007456"/>
    <path id="Path_175247" data-name="Path 175247" d="M706.614,593.593a18.02,18.02,0,0,0-.814-4.093l2.979.857Z" transform="translate(-606.302 -518.549)" fill="#fff"/>
    <path id="Path_175248" data-name="Path 175248" d="M710.378,609.707,707.4,614.4a17.375,17.375,0,0,0,.471-5.7Z" transform="translate(-607.559 -533.635)" fill="#fff"/>
    <path id="Path_175249" data-name="Path 175249" d="M242.936,290.8h0c-.257.493-.557,1.136-.836,1.757.279-.579.557-1.179.836-1.757" transform="translate(-236.85 -281.642)" fill="#fff"/>
    <path id="Path_175250" data-name="Path 175250" d="M237.864,308.2c-.043.107-.064.15-.064.15h0c.021-.043.043-.107.064-.15" transform="translate(-233.471 -295.313)" fill="#fff"/>
    <path id="Path_175251" data-name="Path 175251" d="M364.09,305.421a24.84,24.84,0,0,0-1.493-4.975,34.566,34.566,0,0,0-2.721-5.183,57.389,57.389,0,0,0-3.846-5.329,71.147,71.147,0,0,0-4.909-5.371c-1.882-1.874-3.866-3.643-5.891-5.329-2.189-1.832-4.459-3.56-6.791-5.2-2.475-1.749-5.032-3.414-7.63-5q-4.112-2.5-8.366-4.7-4.449-2.311-9.021-4.33a175.342,175.342,0,0,0-24.588-8.681c-.552-.146-1.1-.291-1.636-.437-1.043-.271-2.107-.541-3.171-.77-1.064-.25-2.127-.479-3.212-.687s-2.148-.416-3.232-.583-2.168-.312-3.252-.437-2.168-.208-3.273-.271c-1.084-.062-2.168-.083-3.273-.062-1.084.021-2.168.062-3.252.146a15.848,15.848,0,0,0-2.966.541,10.738,10.738,0,0,0-2.332.937,6.252,6.252,0,0,0-2.311,2.789,2.28,2.28,0,0,1-.123.229,4.406,4.406,0,0,1,1.432-1.311,10.341,10.341,0,0,1,2.332-.937,15.847,15.847,0,0,1,2.966-.541c1.084-.1,2.168-.146,3.252-.146,1.084-.021,2.168.021,3.252.062,1.084.062,2.168.146,3.252.271s2.168.271,3.252.437,2.168.354,3.232.583c1.064.208,2.148.437,3.212.687s2.107.5,3.171.77c.552.146,1.1.291,1.636.437a174.99,174.99,0,0,1,24.567,8.66c3.048,1.332,6.055,2.789,9.021,4.309q4.265,2.217,8.346,4.7,3.9,2.373,7.61,5c2.332,1.645,4.6,3.372,6.791,5.2,2.025,1.686,4.009,3.456,5.891,5.329a71.14,71.14,0,0,1,4.909,5.371,51.227,51.227,0,0,1,3.846,5.308,34.589,34.589,0,0,1,2.721,5.183,23.588,23.588,0,0,1,1.493,4.975,18.581,18.581,0,0,1-.757,9.159,30.151,30.151,0,0,1-3.621,7.224c.225-.312.45-.6.675-.916a30.21,30.21,0,0,0,4.112-7.91,19.518,19.518,0,0,0,.7-9.2" transform="translate(-248.4 -248.062)" fill="#010101"/>
    <path id="Path_175252" data-name="Path 175252" d="M224.921,335.6h0c-.321,1.007-.921,3.236-.921,3.236h0c.3-1.093.621-2.186.921-3.236" transform="translate(-222.629 -317.316)" fill="#fff"/>
    <path id="Path_175253" data-name="Path 175253" d="M596.007,371.3l-5.507.364c4.436,2.593,8.122,5.122,8.122,5.122Z" transform="translate(-514.212 -345.577)" fill="#007456"/>
    <path id="Path_175254" data-name="Path 175254" d="M332.857,272.857l.836.15L331.7,269.6l-4.2,2.55c.686.064,1.371.15,2.079.236,1.093.129,2.122.279,3.279.471" transform="translate(-304.999 -264.985)" fill="#007456"/>
    <path id="Path_175255" data-name="Path 175255" d="M295.6,326.464l-1.2-.064,2.25,3.214,4.072-2.572c-.6-.086-1.179-.171-1.779-.236-1.114-.15-2.207-.257-3.343-.343" transform="translate(-277.943 -310.037)" fill="#007456"/>
    <path id="Path_175256" data-name="Path 175256" d="M325.443,329.536c-.514-.086-1.029-.15-1.543-.236l2.614,3.557,3.771-2.4c-.514-.107-1.05-.214-1.564-.321-1.071-.214-2.164-.407-3.279-.6" transform="translate(-302.137 -312.333)" fill="#007456"/>
    <path id="Path_175257" data-name="Path 175257" d="M361,336.514c-.6-.15-1.436-.386-2.357-.6-.493-.129-.986-.236-1.479-.364-.557-.129-1.114-.257-1.693-.386-.557-.129-1.114-.257-1.671-.364l3.493,3.986s4.457,1.093,7.929,2.122l-3.193-4.093a9.3,9.3,0,0,0-1.029-.3" transform="translate(-325.976 -316.699)" fill="#010101"/>
    <path id="Path_175258" data-name="Path 175258" d="M392.2,344.1l3.193,4.093s4.371,1.307,7.8,2.507l-2.7-4.093q-4.114-1.382-8.293-2.507" transform="translate(-356.524 -324.061)" fill="#fff"/>
    <path id="Path_175259" data-name="Path 175259" d="M430.9,355.7l2.7,4.093,5.914-.986c-2.829-1.114-5.722-2.143-8.614-3.107" transform="translate(-387.272 -333.223)" fill="#010101"/>
    <path id="Path_175260" data-name="Path 175260" d="M455.372,372.686a1,1,0,0,1-.214-.107c-.75-.321-1.5-.643-2.272-.964l-3.472-1.414-5.914.986s4.521,1.564,8.572,3.3l5.7-.707c-.793-.386-1.607-.75-2.4-1.093" transform="translate(-397.412 -344.697)" fill="#fff"/>
    <path id="Path_175261" data-name="Path 175261" d="M491.343,387.807c-.021-.021-.064-.021-.086-.043L489.2,386.8l-5.7.707c3.043,1.221,8.7,3.964,8.7,3.964l5.293-.557c-1.286-.707-2.593-1.371-3.9-2.036-.75-.343-1.5-.707-2.25-1.072" transform="translate(-429.244 -357.834)" fill="#010101"/>
    <path id="Path_175262" data-name="Path 175262" d="M548.9,406.2l2.293,4.586,5.657.043q-1.639-1.029-3.279-1.993c-1.543-.921-3.107-1.8-4.672-2.636" transform="translate(-481.118 -373.183)" fill="#007456"/>
    <path id="Path_175263" data-name="Path 175263" d="M586,427.8l2.122,4.8,5.464.321c-1.007-.729-2.014-1.457-3.064-2.164-1.479-1.029-2.979-1.993-4.522-2.957" transform="translate(-510.616 -390.279)" fill="#007456"/>
    <path id="Path_175264" data-name="Path 175264" d="M625.321,454.779c-1.286-1.029-2.593-2.014-3.922-2.979l2.1,5.272a69.745,69.745,0,0,1,5.786,5.1l-.921-4.864c-.986-.857-2.014-1.693-3.043-2.529" transform="translate(-538.782 -409.343)" fill="#010101"/>
    <path id="Path_175265" data-name="Path 175265" d="M657.021,480.343l-.043-.043c-.964-.921-1.971-1.821-2.979-2.7l.922,4.864s2.743,2.55,5.079,5.25l-.257-4.65c-.9-.943-1.8-1.843-2.721-2.721" transform="translate(-564.643 -429.762)" fill="#fff"/>
    <path id="Path_175266" data-name="Path 175266" d="M683.036,505.571l-.043-.043c-.729-.857-1.5-1.693-2.293-2.529l.257,4.65,4.222.6c-.686-.922-1.414-1.8-2.143-2.679" transform="translate(-586.581 -449.783)" fill="#010101"/>
    <path id="Path_175267" data-name="Path 175267" d="M689.379,530.229c-.45-.814-.943-1.629-1.479-2.421-.557-.857-1.157-1.693-1.779-2.507l-4.222-.6a41.538,41.538,0,0,1,3.921,5.164l3.664.578a1,1,0,0,1-.107-.214" transform="translate(-587.523 -466.962)" fill="#fff"/>
    <path id="Path_175268" data-name="Path 175268" d="M703.864,549.479h0L700.2,548.9a31.69,31.69,0,0,1,2.786,5.143l3.15.814a26.223,26.223,0,0,0-1.093-2.979,24.879,24.879,0,0,0-1.179-2.4" transform="translate(-601.902 -486.116)" fill="#010101"/>
    <path id="Path_175269" data-name="Path 175269" d="M721.479,576.7l-1.779,3.6,2.486.707a15.75,15.75,0,0,0-.257-2.443q-.193-.964-.45-1.864" transform="translate(-617.223 -508.079)" fill="#007456"/>
    <path id="Path_175270" data-name="Path 175270" d="M723.343,596.8l-2.143,3.557,1.693.771c.021-.064.021-.128.043-.171a17,17,0,0,0,.407-4.157" transform="translate(-618.402 -524.285)" fill="#007456"/>
    <path id="Path_175271" data-name="Path 175271" d="M338.814,288.264c1.114.193,2.229.407,3.343.621a3.438,3.438,0,0,1,.45.107l-2.1-3.493-4.307,2.357.15.021c.836.107,1.65.236,2.464.386" transform="translate(-311.92 -277.477)" fill="#007456"/>
    <path id="Path_175272" data-name="Path 175272" d="M307.85,284.157c.621.021,1.221.064,1.843.107,1.136.086,2.25.193,3.386.343.214.021.429.064.621.086l.129.021-1.886-3.214-4.243,2.657Z" transform="translate(-289.252 -274.335)" fill="#007456"/>
    <path id="Path_175273" data-name="Path 175273" d="M306.186,280.474s-2.893-.3-5.786-.279l1.543,2.914Z" transform="translate(-282.657 -273.309)" fill="#fff"/>
    <path id="Path_175274" data-name="Path 175274" d="M370.9,295.914c1.243.3,2.507.643,3.75.986l.043.021,5.143-1.714c-3.3-1.029-8.1-2.207-8.1-2.207l-5.336,1.907c.943.193,1.864.407,2.786.622.557.107,1.136.236,1.714.386" transform="translate(-336.03 -283.37)" fill="#010101"/>
    <path id="Path_175275" data-name="Path 175275" d="M405.243,305.014c2.721.75,5.443,1.564,8.143,2.464l.086.021,5.422-1.371c-3.686-1.371-8.55-2.829-8.55-2.829l-5.143,1.714Z" transform="translate(-366.915 -291.463)" fill="#fff"/>
    <path id="Path_175276" data-name="Path 175276" d="M443.786,317.914c2.764.921,5.529,1.929,8.25,3l.107.043-3.021-4.457-5.422,1.371Z" transform="translate(-397.451 -302.21)" fill="#010101"/>
    <path id="Path_175277" data-name="Path 175277" d="M472.264,320.979c1.672.664,3.343,1.35,4.993,2.057,1.136.493,2.293,1.007,3.429,1.543l.193.086-3.043-4.757s-6.107-2.55-8.636-3.407l3.022,4.436Z" transform="translate(-417.807 -302.227)" fill="#fff"/>
    <path id="Path_175278" data-name="Path 175278" d="M572.322,378.243l-2.486-5.143-5.636.407.129.064c1.907,1.05,3.814,2.121,5.679,3.257q1.157.675,2.314,1.414" transform="translate(-493.293 -346.998)" fill="#007456"/>
    <path id="Path_175279" data-name="Path 175279" d="M609.9,402.336l.086.064-2.271-5.4-5.615.021c1.907,1.2,3.771,2.443,5.615,3.729.729.514,1.457,1.05,2.186,1.586" transform="translate(-523.431 -365.911)" fill="#007456"/>
    <path id="Path_175280" data-name="Path 175280" d="M643.7,425.929c.707.579,1.393,1.179,2.079,1.757l.107.086,4.543-.021c-2.743-2.614-6.279-5.422-6.279-5.422l-5.25-.129.107.086c1.586,1.157,3.15,2.379,4.693,3.643" transform="translate(-552.838 -385.853)" fill="#010101"/>
    <path id="Path_175281" data-name="Path 175281" d="M671.507,448.207q1.961,1.7,3.857,3.536c.6.6,1.2,1.2,1.779,1.8l4.179.107a69.047,69.047,0,0,0-5.379-5.55l-4.543.021Z" transform="translate(-579.274 -406.347)" fill="#fff"/>
    <path id="Path_175282" data-name="Path 175282" d="M701.621,477.186c.364.429.729.879,1.093,1.329l.021.043-.257-4.95L698.3,473.5c1.136,1.2,2.25,2.421,3.321,3.686" transform="translate(-600.409 -426.438)" fill="#010101"/>
    <path id="Path_175283" data-name="Path 175283" d="M718.078,478.893a46.837,46.837,0,0,1,2.872,3.986c.321.514.643,1.029.943,1.543l.021.021.236-4.65.021-.236A64.724,64.724,0,0,0,717.8,473.9l.257,4.95Z" transform="translate(-615.73 -426.84)" fill="#fff"/>
    <path id="Path_175284" data-name="Path 175284" d="M737.236,500.457l-.236,4.65v.021a34.173,34.173,0,0,1,1.843,3.643c.236.579.471,1.157.686,1.736h0l.793-4.929a42.856,42.856,0,0,0-3.064-5.379Z" transform="translate(-630.816 -447.655)" fill="#010101"/>
    <path id="Path_175285" data-name="Path 175285" d="M738.121,500.3h0l-.021.236Z" transform="translate(-631.68 -447.569)" fill="#010101"/>
    <path id="Path_175286" data-name="Path 175286" d="M749.679,551.636a16,16,0,0,1,.214,1.736h0l1.5-4.543L748.8,548.4h0a24.086,24.086,0,0,1,.879,3.236" transform="translate(-640.088 -485.701)" fill="#007456"/>
    <path id="Path_175287" data-name="Path 175287" d="M752.1,576.85l2.186-4.864-1.779-.386h0a18.01,18.01,0,0,1-.407,5.25" transform="translate(-642.68 -504.063)" fill="#007456"/>
    <path id="Path_175288" data-name="Path 175288" d="M282.872,283.171c.386,0,.75.022,1.136.043h.257l-1.543-2.914s-2.872,0-4.714.214l-.107.021c.107.407,1.007,2.743,1.007,2.743h.064c.171,0,.343-.021.493-.021,1.157-.086,2.293-.107,3.407-.086" transform="translate(-264.978 -273.392)" fill="#010101"/>
    <g id="Group_43243" data-name="Group 43243" transform="translate(0.021 23.271)">
      <g id="Group_43242" data-name="Group 43242">
        <g id="Group_43241" data-name="Group 43241">
          <path id="Path_175289" data-name="Path 175289" d="M315.335,416.587a23,23,0,0,0-1.589-4.5,31.87,31.87,0,0,0-2.688-4.672,45.809,45.809,0,0,0-3.727-4.757c-1.487-1.671-3.055-3.279-4.7-4.8-.224-.193-.428-.407-.652-.6s-.448-.407-.672-.6l-.672-.579-.672-.579-.672-.579-.672-.579c-.224-.193-.468-.386-.693-.579-.244-.193-.468-.386-.713-.557-.061-.043-.1-.086-.163-.129-2.077-1.629-4.2-3.172-6.354-4.65-2.3-1.564-4.643-3.021-7.026-4.414-2.5-1.457-5.051-2.807-7.637-4.072q-4.032-1.993-8.187-3.664a144.173,144.173,0,0,0-22.321-7.05c-.489-.107-1-.236-1.507-.343-.957-.214-1.914-.407-2.892-.6s-1.935-.364-2.912-.514-1.955-.279-2.953-.407c-.978-.107-1.976-.193-2.953-.257s-1.976-.107-2.953-.107-1.976.021-2.953.086-1.975.15-2.933.279a14.681,14.681,0,0,0-2.668.643,6.151,6.151,0,0,0-2.4,1.286,2.532,2.532,0,0,0-.591.879.439.439,0,0,1-.02.15c0,.129-.02.257-.02.386v.064a3.651,3.651,0,0,0-.02.471h0v.043c0,.15-.02.3-.02.429v.086a2.446,2.446,0,0,1-.02.386v.943h0a2.35,2.35,0,0,1,.1-.643c0-.021.02-.021.02-.043.02-.064.041-.107.061-.171.02-.021.02-.064.041-.086a.234.234,0,0,0,.041-.107c.02-.043.041-.064.061-.107.02-.021.041-.064.061-.086s.041-.064.061-.086.041-.064.061-.086.041-.064.061-.086.041-.064.081-.086l.081-.086c.02-.021.061-.043.081-.086.02-.021.061-.043.081-.064a.283.283,0,0,1,.081-.064c.041-.021.061-.064.1-.086h0l.183-.128c.122-.086.244-.15.367-.236.041-.021.061-.043.1-.064a2.012,2.012,0,0,1,.305-.15c.285-.129.591-.257.876-.364.02,0,.041-.021.081-.021a.364.364,0,0,1,.143-.043,14,14,0,0,1,2.607-.621c.957-.129,1.914-.214,2.872-.279l1.446-.064c.489-.021.957-.021,1.446-.021.978,0,1.935.043,2.892.107.468.021.937.064,1.426.107s1,.086,1.487.15c.957.107,1.914.236,2.892.386.957.15,1.914.322,2.851.493s1.894.386,2.831.579l1.466.321a142.367,142.367,0,0,1,21.812,6.922c2.709,1.093,5.377,2.293,8.024,3.6,2.525,1.243,5.03,2.572,7.495,4.007q3.513,2.025,6.9,4.307c2.118,1.436,4.216,2.957,6.252,4.543.428.343.876.686,1.3,1.05.428.343.855.707,1.263,1.05.428.343.835.707,1.242,1.071l1.222,1.093c.142.129.305.279.448.407a65.722,65.722,0,0,1,4.623,4.714,46.557,46.557,0,0,1,3.666,4.672,33.7,33.7,0,0,1,2.648,4.564,22.656,22.656,0,0,1,1.568,4.414,17.838,17.838,0,0,1-.143,8.357,27.341,27.341,0,0,1-2.444,6.257c.285-.107.611-.236.611-.236.183-.086.387-.171.57-.257a27.983,27.983,0,0,0,3.075-6.814,18.18,18.18,0,0,0,.143-8.443" transform="translate(-217.7 -367)" fill="#010101"/>
        </g>
      </g>
    </g>
    <path id="Path_175290" data-name="Path 175290" d="M762.764,550.764,760.9,550.4a17.677,17.677,0,0,1,.279,4.929Z" transform="translate(-649.595 -487.282)" fill="#007456"/>
    <path id="Path_175291" data-name="Path 175291" d="M340.669,358.58a17.46,17.46,0,0,0,.756-8.87,23.58,23.58,0,0,0-1.472-4.84,32.481,32.481,0,0,0-2.7-5.068,52.428,52.428,0,0,0-3.823-5.234c-1.533-1.849-3.169-3.614-4.886-5.318-1.86-1.849-3.823-3.614-5.846-5.3-2.187-1.828-4.436-3.552-6.746-5.214-2.453-1.766-4.988-3.427-7.564-5.006q-4.078-2.493-8.3-4.715-4.415-2.306-8.974-4.3a152.808,152.808,0,0,0-24.408-8.392c-.552-.145-1.083-.27-1.635-.395-1.043-.249-2.085-.478-3.148-.706s-2.126-.415-3.189-.6-2.126-.353-3.209-.478c-1.063-.145-2.146-.249-3.23-.332s-2.146-.145-3.23-.145c-1.083-.021-2.146,0-3.23.042-1.083.062-2.146.125-3.23.27a15.849,15.849,0,0,0-2.944.644,10.448,10.448,0,0,0-2.31,1.018,3.863,3.863,0,0,0-1.247,1.184c-.143.353-.286.685-.409,1.039a4.283,4.283,0,0,1,.654-.519,10.447,10.447,0,0,1,2.31-1.018,15.851,15.851,0,0,1,2.944-.644c1.063-.145,2.146-.228,3.209-.27,1.083-.062,2.146-.062,3.23-.042s2.146.062,3.23.145,2.146.187,3.23.332c1.063.145,2.146.291,3.209.478s2.126.374,3.168.6c1.043.208,2.085.457,3.128.706.552.125,1.083.27,1.635.395a154.984,154.984,0,0,1,24.367,8.35q4.538,1.994,8.953,4.3,4.232,2.212,8.3,4.694,3.863,2.368,7.563,5.006c2.31,1.641,4.559,3.386,6.746,5.193,2.024,1.682,3.986,3.448,5.846,5.3a65.608,65.608,0,0,1,4.865,5.3,55.6,55.6,0,0,1,3.823,5.214,34.193,34.193,0,0,1,2.678,5.068,22.577,22.577,0,0,1,1.472,4.819,17.461,17.461,0,0,1-.756,8.87,28.439,28.439,0,0,1-1.513,3.552c.225-.229.47-.478.716-.748a26.957,26.957,0,0,0,1.962-4.362" transform="translate(-231.821 -283.889)" fill="#f0d283"/>
    <path id="Path_175292" data-name="Path 175292" d="M512.514,337.143c1.886.879,3.772,1.8,5.636,2.743.943.493,1.886.986,2.807,1.5l.107.043-2.936-5.036c-2.314-1.157-5.764-2.807-8.829-4.093l3.043,4.757Z" transform="translate(-449.718 -314.738)" fill="#010101"/>
    <path id="Path_175293" data-name="Path 175293" d="M263.029,326.067c-.921-.021-1.843,0-2.743.021l-3.086,3.193c2.121-.214,4.436-.236,4.436-.236l3.536-2.936c-.707-.021-1.436-.043-2.143-.043" transform="translate(-248.714 -309.767)" fill="#010101"/>
    <path id="Path_175294" data-name="Path 175294" d="M234.279,326.2l-.086.086.086-.086c-.193,0-.386.021-.6.021-1.114.064-2.229.129-3.343.279a18.293,18.293,0,0,0-3.043.643A7.759,7.759,0,0,0,225,328.214c-.321,1.029-.621,2.121-.9,3.214,2.25-1.629,6.622-2.014,6.922-2.036h0c.043,0,.107-.021.15-.021Z" transform="translate(-222.707 -309.889)" fill="#fff"/>
    <path id="Path_175295" data-name="Path 175295" d="M331.825,373.922a23.325,23.325,0,0,0-1.45-4.822,33.739,33.739,0,0,0-2.655-5.057,48.888,48.888,0,0,0-3.778-5.207c-1.511-1.843-3.125-3.6-4.82-5.293-1.838-1.843-3.778-3.6-5.78-5.272-2.144-1.821-4.37-3.536-6.658-5.186-2.43-1.757-4.922-3.407-7.475-4.972-2.675-1.65-5.412-3.214-8.189-4.672-2.9-1.521-5.861-2.957-8.843-4.264a151.7,151.7,0,0,0-24.1-8.293c-.531-.129-1.082-.257-1.613-.386-1.042-.236-2.063-.471-3.1-.686s-2.083-.407-3.145-.6c-1.062-.171-2.1-.343-3.165-.471s-2.124-.236-3.186-.321-2.124-.129-3.186-.15-2.124,0-3.186.064a31.979,31.979,0,0,0-3.186.279,16.726,16.726,0,0,0-2.9.643,11.006,11.006,0,0,0-2.287,1.007,4.081,4.081,0,0,0-.49.343c-.123.429-.306.986-.429,1.414a6.773,6.773,0,0,1,2.185-1.071,16.724,16.724,0,0,1,2.9-.643,31.969,31.969,0,0,1,3.186-.279c1.062-.064,2.124-.064,3.186-.064,1.062.021,2.124.064,3.186.15s2.124.193,3.186.321,2.1.3,3.166.471c1.042.171,2.1.386,3.145.6s2.063.45,3.1.686c.531.129,1.062.257,1.613.386a149.047,149.047,0,0,1,24.058,8.272c2.982,1.307,5.943,2.743,8.843,4.264,2.778,1.457,5.514,3.022,8.19,4.672,2.532,1.564,5.024,3.214,7.454,4.972,2.287,1.629,4.493,3.364,6.658,5.164q3,2.507,5.759,5.272a67.27,67.27,0,0,1,4.8,5.272,50.958,50.958,0,0,1,3.758,5.207,33.748,33.748,0,0,1,2.655,5.057,22.5,22.5,0,0,1,1.45,4.822,17.94,17.94,0,0,1-.756,8.872,29.73,29.73,0,0,1-2.1,4.672c.143-.107.327-.279.47-.386a28.172,28.172,0,0,0,2.777-5.85,18.239,18.239,0,0,0,.756-8.936" transform="translate(-225.929 -305.436)" fill="#f0d283"/>
    <path id="Path_175296" data-name="Path 175296" d="M743.329,596.35l-1.05-.15a18.836,18.836,0,0,1-.621,2.143,27.453,27.453,0,0,1-2.057,4.5v.021c.578-.621,1.221-1.329,1.821-2.057a.075.075,0,0,1,.021-.043c1.093-2.4,1.886-4.414,1.886-4.414" transform="translate(-632.859 -523.814)" fill="#010101"/>
    <path id="Path_175297" data-name="Path 175297" d="M713.464,617.921a2.841,2.841,0,0,0,.107-.407c0-.043.021-.064.021-.107.021-.064.021-.107.043-.172a.96.96,0,0,0,.043-.236l-2.507,3.6a31.1,31.1,0,0,1-1.672,4.2c.45-.321.9-.664,1.35-1.007a30.49,30.49,0,0,0,1.693-3.343,19.6,19.6,0,0,0,.921-2.529" transform="translate(-609.209 -540.156)" fill="#010101"/>
    <path id="Path_175298" data-name="Path 175298" d="M237.871,286.922c.021-.021.043-.043.043-.064a4.345,4.345,0,0,1,1.093-.943,11.042,11.042,0,0,1,2.421-1.05,16.844,16.844,0,0,1,3.086-.664c.707-.086,1.414-.15,2.121-.214.429-.043.686-.043.686-.043l-1.007-2.743a13.752,13.752,0,0,0-6.857,2.057c-.621,1.264-1.221,2.572-1.757,3.879,0-.021.021-.021.021-.043a.578.578,0,0,0,.15-.171" transform="translate(-233.393 -274.099)" fill="#fff"/>
  </g>
</svg>
