<svg id="Ministry-of-Commerce-01" xmlns="http://www.w3.org/2000/svg" width="102.252" height="105.901" viewBox="0 0 102.252 105.901">
  <path id="Path_174727" data-name="Path 174727" d="M282.492,534.773l-.567.116-2.326,2.326c7.442-1.57,18.154-2.573,30.058-2.573s22.631.988,30.058,2.573l2.5-2.5c-7.645-1.6-18.474-2.514-29.738-2.514-11.4.015-22.325.959-29.985,2.573" transform="translate(-260.705 -474.57)" fill="#00524d"/>
  <path id="Path_174728" data-name="Path 174728" d="M281.926,196.034l.116-.567c1.628-7.674,2.558-18.619,2.558-30.014,0-11.279-.916-22.093-2.5-29.753l-2.5,2.5c1.57,7.442,2.558,18.154,2.558,30.087s-.988,22.631-2.558,30.073Z" transform="translate(-260.705 -135.7)" fill="#00524d"/>
  <path id="Path_174729" data-name="Path 174729" d="M340.09,177.018a68.739,68.739,0,0,0-6.555,5.029c1.09,1,2.195,2.078,3.285,3.256l.1-.1h.218l.044.145.16-.233a.7.7,0,0,1,.218-.77.635.635,0,1,1,.2,1.119.564.564,0,0,0-.058.465,3.083,3.083,0,0,0,2.529,1.206,2.65,2.65,0,0,0,2.035-1,1.067,1.067,0,0,1,1.642.015c1.206,1.759-1.264,3.343-3.023,3.387a6.712,6.712,0,0,1-4.578-1.875c-.189-.2-.32-.291-.48-.218a.492.492,0,0,0-.174.334.752.752,0,0,1-.262.64.643.643,0,1,1-.843-.959.788.788,0,0,1,.538-.189l.073-.015-.073-.044v-.218l.247-.247c-.451-.436-1.715-1.686-3.474-3.241-1.759,1.57-3.023,2.805-3.474,3.241l.247.247v.218l-.058.044.058.015a.839.839,0,0,1,.538.189.643.643,0,1,1-.843.959.7.7,0,0,1-.262-.64.492.492,0,0,0-.174-.334c-.16-.087-.291,0-.48.218a6.7,6.7,0,0,1-4.564,1.875c-1.759-.029-4.244-1.628-3.023-3.387a1.078,1.078,0,0,1,1.642-.015,2.656,2.656,0,0,0,2.049,1,3.074,3.074,0,0,0,2.515-1.206.564.564,0,0,0-.058-.465.674.674,0,0,1-.64-.174.642.642,0,1,1,.858-.945.7.7,0,0,1,.218.77l.16.233.044-.145h.218l.1.1c1.09-1.177,2.195-2.253,3.285-3.256a73.251,73.251,0,0,0-6.555-5.029c-7.282-4.84-12.762-4.375-12.762-4.375,4.113-1.541,9.3-.044,11.657,1.294a60.7,60.7,0,0,1,9.331,6.642,60.7,60.7,0,0,1,9.331-6.642c2.355-1.337,7.529-2.834,11.642-1.294-.015,0-5.494-.451-12.776,4.375m-19.869-23.11a1.891,1.891,0,0,1,.814-.916l.073-.044v-.087a.94.94,0,0,1,.77-1.1l.116-.015v-.131a.38.38,0,0,1,.087-.363,1.185,1.185,0,0,1,.93-.276,3.792,3.792,0,0,1,.552.044l.189.029-.058-.189a.337.337,0,0,1,.014-.276c.044-.073.16-.1.334-.1a3.948,3.948,0,0,1,1.337.349l.189.073-.029-.218a.366.366,0,0,1,.058-.291.557.557,0,0,1,.436-.131,4.049,4.049,0,0,1,1.1.233l.058.029a1.573,1.573,0,0,0,.8.189c.044.247.233.727,1.09,1.148h.029s.451.1,1,.262c.32.1.683.218,1,.334l.015.015-.32.058a17.358,17.358,0,0,0-2.311.727,2.425,2.425,0,0,1-.451.029c-.9,0-1.076-.436-1.09-.436l-.044-.145-.131.087a1.72,1.72,0,0,1-.945.378h-.029l-.131-.015-.131-.029a.439.439,0,0,1-.218-.145l-.087-.1-.087.073a1.615,1.615,0,0,1-1.061.436,1.256,1.256,0,0,1-.567-.131l-.073-.044-.058.058a4.97,4.97,0,0,1-1.57.843l-.029.015-.029.029a1.291,1.291,0,0,1-.945.247c-.247,0-.465-.029-.567-.029a.753.753,0,0,1-.044-.465m2.631-5.712a1.257,1.257,0,0,1,.887-.291h.131l.029-.073a.775.775,0,0,1,.683-.509.689.689,0,0,1,.305.073l.116.058.058-.131a.311.311,0,0,1,.32-.233c.422,0,1.017.538,1.046.552l.145.131.058-.2c.044-.189.116-.189.145-.189.262,0,.8.6,1.061.974l.131.174.087-.2c.058-.16.145-.174.218-.174h.029a1.564,1.564,0,0,0,.581.436,1.064,1.064,0,0,0,.7.959,1.624,1.624,0,0,0,.465,1.308l.015.029a12.348,12.348,0,0,1,1.206,1.1l.291.32.015.029v.029a5.535,5.535,0,0,0-.654-.276,17.137,17.137,0,0,0-1.773-.509c-.916-.451-.945-.916-.945-.988v-.015l.029-.116v-.044h-.145a1.921,1.921,0,0,1-.422-.029l-.116-.029-.276-.116-.116-.087a.731.731,0,0,1-.174-.291l-.015-.1-.1.015-.247.015a1.19,1.19,0,0,1-1.032-.552l-.044-.073-.087.015c-.131,0-.276.015-.407.015a3.808,3.808,0,0,1-1.061-.145l-.029-.015-.029.015-.087.015a2.336,2.336,0,0,1-1.076-.567.315.315,0,0,1,.087-.305m3.837-2.616a1.435,1.435,0,0,1,.61.189l.073.044.073-.044a.662.662,0,0,1,.421-.174.618.618,0,0,1,.451.233l.073.1.1-.087.174-.073c.291,0,.64.625.727.858l.087.189.131-.16.116-.087c.16,0,.407.6.523,1.163l.044.218.16-.145.131-.073c.218,1.235.756,3.154,1.061,4.215l.044.16-.247-.276-.291-.291a11.839,11.839,0,0,0-.916-.814c-.6-.756-.392-1.119-.392-1.119l.087-.116v-.015l-.029-.015-.1-.058a1.5,1.5,0,0,1-.451-.305.663.663,0,0,1-.218-.436v-.087l.029-.087.015-.044-.073-.029-.029-.015a1.2,1.2,0,0,1-.625-.451,1.026,1.026,0,0,1-.174-.451v-.087l-.073-.029a3.649,3.649,0,0,1-1.09-.669l-.029-.029-.029-.015c-.233-.044-.538-.538-.7-.872a.31.31,0,0,1,.334-.218m4.041,1.221h.087l-.014-.145a3.5,3.5,0,0,1,.16-1.919l.087-.044.087.029.145.073.029-.174a3.167,3.167,0,0,1,.567-1.352,3.167,3.167,0,0,1,.567,1.352l.029.174.131-.073.1-.029.087.044a3.654,3.654,0,0,1,.16,1.919l-.015.145h.1a2.121,2.121,0,0,1-.073.712l-.029.2-.073.349c-.189.872-.509,2.093-.858,3.314l-.029.073-.1.363-.015.044v-.044l-.1-.363-.029-.073c-.349-1.221-.654-2.442-.843-3.314l-.073-.349-.029-.2a2.4,2.4,0,0,1-.058-.712m2.587.988.16.145.044-.218c.116-.552.363-1.163.552-1.163l.087.087.131.16.073-.189c.087-.233.436-.858.727-.858l.174.073.1.087.087-.1a.618.618,0,0,1,.451-.233.766.766,0,0,1,.436.174l.058.044.058-.044a1.448,1.448,0,0,1,.625-.189.369.369,0,0,1,.363.2c-.16.334-.465.828-.7.872l-.029.015-.029.029a3.465,3.465,0,0,1-1.076.669l-.073.029v.087a1,1,0,0,1-.174.451,1.144,1.144,0,0,1-.611.451l-.029.015-.073.029.014.044.015.087.015.087a.708.708,0,0,1-.218.436,1.719,1.719,0,0,1-.451.305l-.1.058-.029.015v.015l.073.116s.189.378-.392,1.119c-.087.058-.494.407-.93.814l-.291.291-.247.276.044-.16c.32-1.061.858-2.98,1.076-4.215Zm5.378-.451.058.131.116-.058a.689.689,0,0,1,.305-.073.757.757,0,0,1,.669.509l.044.073h.131a1.257,1.257,0,0,1,.887.291.521.521,0,0,1,.116.305,2.315,2.315,0,0,1-1.09.567l-.087-.015-.029-.015-.029.015a3.809,3.809,0,0,1-1.061.145c-.131,0-.291-.015-.407-.015l-.087-.015-.029.073a1.174,1.174,0,0,1-1.047.552l-.247-.015-.116-.014-.029.131a.61.61,0,0,1-.16.291l-.116.087-.291.116-.1.029a3.385,3.385,0,0,1-.422.029h-.145v.029l.015.116v.015c0,.087-.029.552-.945.988a13.941,13.941,0,0,0-1.773.509,5.792,5.792,0,0,0-.669.276l.015-.029.015-.029.291-.32c.523-.552,1.206-1.09,1.206-1.1l.015-.029a1.6,1.6,0,0,0,.48-1.308,1.091,1.091,0,0,0,.7-.959,1.512,1.512,0,0,0,.6-.436h.029c.058,0,.145.015.218.174l.087.2.131-.174c.262-.378.8-.974,1.061-.974.029,0,.1,0,.145.189l.058.2.145-.131a2.021,2.021,0,0,1,1.032-.552.285.285,0,0,1,.32.218m-.9,8.953-.073-.131-.1.087a.383.383,0,0,1-.189.058.821.821,0,0,1-.552-.276l-.1-.1a3.7,3.7,0,0,1-.392-.567l-.1-.16-.058.087-.044.073a.433.433,0,0,1-.392.174,1.89,1.89,0,0,1-1.046-.451,23.612,23.612,0,0,0-1.948-1.933c-.131-.1-.247-.2-.349-.291l-.233-.16.029-.015.189.029a14.2,14.2,0,0,1,2.776.8h.029a2.9,2.9,0,0,0,.494.029,1.443,1.443,0,0,0,1.235-.465,1.9,1.9,0,0,0,1,.349l.044-.015-.029.189-.058.174h.174c.349,0,1.323.087,1.541.48a.406.406,0,0,1-.029.421l-.073.145.16.044a2.316,2.316,0,0,1,1.235.887.713.713,0,0,1,.044.6l-.058.1.073.058a1.533,1.533,0,0,1,.465,1.686l-.015.058.029.058c0,.015.858,1.279.378,1.919-.363-.131-1.134-.494-1.308-.959v-.029l-.029-.029a7.388,7.388,0,0,1-1.221-1.715l-.044-.087-.087.015h-.073c-.218,0-.814-.116-1.294-1.134m-9.826,16.061h3.358l-.712-3.1.552-.538-.712-2.791.567-.276-.741-3.052.669-.48-.581-2.6.669-.363-.422-2.311.552-.363-.087-2.5v-.015a2.921,2.921,0,0,1,.8-1.25,2.972,2.972,0,0,1,.8,1.25l-.087,2.5.552.363-.422,2.311.669.363-.581,2.6.669.48-.727,3.052.552.276-.712,2.791.552.538-.625,3.081H335.8s.422.189.291.509a9.358,9.358,0,0,1-2.006,1.962c-.145-.087-.145-.741-.233-.858-.073-.073-.8.7-1.119.872a4.2,4.2,0,0,0-.858-.727c-.509.32-1.061.727-1.061.727-.32-.189-.828-.945-.887-.858-.1.116-.1.77-.233.858a8.712,8.712,0,0,1-2.006-1.962c-.16-.305.276-.494.276-.494M322.3,158.181a1.548,1.548,0,0,1,.465-1.686l.073-.058-.029-.1a.766.766,0,0,1,.029-.6,2.424,2.424,0,0,1,1.25-.887l.131-.044-.058-.145a.437.437,0,0,1-.015-.422c.218-.392,1.177-.48,1.541-.48h.174l-.058-.174-.029-.189.073.015a1.811,1.811,0,0,0,.974-.349,1.42,1.42,0,0,0,1.235.465,2.906,2.906,0,0,0,.494-.029h.029a15.772,15.772,0,0,1,2.776-.8l.189-.029.029.015-.233.16-.349.291a21.38,21.38,0,0,0-1.948,1.933,2,2,0,0,1-1.047.451.486.486,0,0,1-.392-.16l-.044-.087-.058-.1-.1.174a4.135,4.135,0,0,1-.407.567l-.1.1a.8.8,0,0,1-.538.276l-.189-.058-.116-.087-.058.131c-.48,1.017-1.076,1.134-1.294,1.134h-.073l-.087-.015-.029.087a6.744,6.744,0,0,1-1.235,1.715l-.029.029-.015.029c-.16.465-.945.828-1.308.959-.48-.64.378-1.9.378-1.919l.029-.058Zm3.823,2.3a.863.863,0,0,1-.233-1.134l.073-.116-.1-.073-.16-.276c-.029-.392.48-.945.669-1.134l.145-.131-.174-.087-.145-.16c-.015-.262.61-.756,1.047-1.017l.189-.1-.174-.116-.058-.044a2.829,2.829,0,0,0,.32-.436.777.777,0,0,0,.48.16,2.221,2.221,0,0,0,1.192-.494l.029-.029a24.229,24.229,0,0,1,2.122-2.078,14.432,14.432,0,0,0-.945,2.253c-.6.988-1.061.843-1.061.843l-.131-.044-.029.16c-.131,1.076-.64,1.1-.669,1.1h-.116v.131a1.36,1.36,0,0,1-.7,1.294l-.073.029v.087a5.108,5.108,0,0,1-.349,1.57v.073c.029.305-.392.858-.7,1.163l-.262-.189a1.824,1.824,0,0,1-.1-1.061l.015-.087Zm11.744-1.134a.863.863,0,0,1-.233,1.134l-.058.058.015.087a1.862,1.862,0,0,1-.1,1.061l-.276.189c-.305-.305-.727-.858-.7-1.163v-.029l-.029-.044a5.211,5.211,0,0,1-.334-1.57l-.015-.087-.073-.029a1.36,1.36,0,0,1-.7-1.294v-.131h-.116c-.029,0-.538-.029-.669-1.1l-.029-.16-.145.044s-.451.16-1.061-.843a16.874,16.874,0,0,0-.945-2.253,22.171,22.171,0,0,1,2.122,2.078l.029.029a2.221,2.221,0,0,0,1.192.494.73.73,0,0,0,.465-.16,4.277,4.277,0,0,0,.32.436l-.058.044-.16.116.174.1c.451.262,1.076.756,1.061,1.017l-.16.16-.174.087.145.131c.189.189.683.741.669,1.134l-.16.276-.1.073Zm3.91-7.718-.015.131.131.015c.029,0,.8.1.77,1.1v.087l.073.044s.683.407.8.916a.537.537,0,0,1-.058.422,4.716,4.716,0,0,1-.567.029,1.291,1.291,0,0,1-.945-.247l-.029-.029-.029-.015a4.826,4.826,0,0,1-1.555-.843l-.058-.058-.073.044a1.184,1.184,0,0,1-.567.131,1.644,1.644,0,0,1-1.061-.436l-.087-.073-.073.1a.478.478,0,0,1-.218.131l-.116.029-.131.014h-.029a1.616,1.616,0,0,1-.945-.378l-.131-.073-.058.145s-.189.436-1.076.436c-.131,0-.291-.015-.451-.029a21.044,21.044,0,0,0-2.311-.727l-.334-.058.029-.015c.32-.131.683-.233,1-.334.552-.145,1.017-.262,1.017-.262h.029c.872-.422,1.061-.9,1.09-1.148a1.573,1.573,0,0,0,.8-.189l.044-.029a4.049,4.049,0,0,1,1.1-.233.579.579,0,0,1,.436.131.366.366,0,0,1,.058.291l-.015.218.189-.073a4.485,4.485,0,0,1,1.337-.349.5.5,0,0,1,.349.1.351.351,0,0,1,0,.276l-.058.189.189-.029a3.467,3.467,0,0,1,.538-.044,1.243,1.243,0,0,1,.93.276.561.561,0,0,1,.073.407m19.68-14.826c-7.674,1.57-18.416,2.456-29.578,2.456s-21.889-.887-29.578-2.456c1.57,7.689,2.456,18.43,2.456,29.593a159.089,159.089,0,0,1-2.456,29.593c7.689-1.57,18.43-2.456,29.578-2.456,11.177,0,21.9.887,29.578,2.456C359.9,188.311,359,177.57,359,166.393a159.2,159.2,0,0,1,2.456-29.593" transform="translate(-280.105 -136.64)" fill="#00524d"/>
  <path id="Path_174730" data-name="Path 174730" d="M519.971,230.681l-.014.131.131.015a.94.94,0,0,1,.77,1.1v.087l.073.044s.7.407.8.916a.606.606,0,0,1-.058.422,4.709,4.709,0,0,1-.567.029,1.345,1.345,0,0,1-.959-.233l-.029-.029h-.029a4.7,4.7,0,0,1-1.555-.858l-.058-.058-.073.044a1.183,1.183,0,0,1-.567.131,1.644,1.644,0,0,1-1.061-.436l-.087-.073-.087.1a.583.583,0,0,1-.218.145l-.116.029-.131.015h-.029a1.546,1.546,0,0,1-.93-.378l-.131-.087-.058.145s-.189.436-1.09.436c-.131,0-.291-.015-.451-.029a17.354,17.354,0,0,0-2.311-.727l-.334-.058.029-.015c.32-.131.683-.233,1-.334.552-.145,1.017-.262,1.017-.262h.029c.872-.422,1.061-.9,1.09-1.148a1.572,1.572,0,0,0,.8-.189l.044-.029a4.048,4.048,0,0,1,1.1-.233.619.619,0,0,1,.436.131.366.366,0,0,1,.058.291l-.029.218.189-.087a4.485,4.485,0,0,1,1.337-.349.5.5,0,0,1,.349.1.351.351,0,0,1,0,.276l-.058.189.189-.029a3.468,3.468,0,0,1,.538-.044,1.243,1.243,0,0,1,.93.276.432.432,0,0,1,.116.407" transform="translate(-458.3 -215.695)" fill="#fff"/>
  <path id="Path_174731" data-name="Path 174731" d="M514.95,255.577a.861.861,0,0,1-.233,1.134l-.058.044.014.087a1.594,1.594,0,0,1-.1,1.046l-.262.189c-.305-.32-.727-.858-.7-1.163v-.044l-.029-.029a4.738,4.738,0,0,1-.334-1.57l-.015-.087-.073-.029a1.394,1.394,0,0,1-.7-1.308v-.131h-.116c-.029,0-.538-.029-.669-1.1l-.029-.16-.145.044s-.451.16-1.061-.858a16.963,16.963,0,0,0-.945-2.238,24.892,24.892,0,0,1,2.122,2.064l.029.029a2.221,2.221,0,0,0,1.192.494.777.777,0,0,0,.48-.16,4.271,4.271,0,0,0,.32.436l-.058.058-.16.116.174.1c.451.262,1.076.756,1.061,1.017l-.145.16-.174.087.16.131c.189.189.683.741.669,1.134l-.16.276-.1.073Z" transform="translate(-457.189 -232.874)" fill="#fff"/>
  <path id="Path_174732" data-name="Path 174732" d="M463.714,256.967a.863.863,0,0,1-.233-1.134l.073-.116-.1-.073-.16-.276c-.029-.392.48-.945.669-1.134l.145-.131-.174-.087-.145-.16c-.015-.262.61-.756,1.046-1.017l.189-.1-.174-.116-.058-.058a4.283,4.283,0,0,0,.32-.436.777.777,0,0,0,.48.16,2.265,2.265,0,0,0,1.192-.494l.015-.029a22.768,22.768,0,0,1,2.122-2.064,15.1,15.1,0,0,0-.945,2.238c-.6.988-1.061.858-1.061.858l-.131-.058-.029.16c-.131,1.076-.64,1.1-.669,1.1h-.116v.131a1.368,1.368,0,0,1-.7,1.308l-.073.029v.087a4.969,4.969,0,0,1-.349,1.57v.073c.029.305-.392.857-.7,1.163l-.262-.189a1.776,1.776,0,0,1-.1-1.047l.014-.087Z" transform="translate(-417.697 -233.13)" fill="#fff"/>
  <path id="Path_174733" data-name="Path 174733" d="M436.479,251.338a1.576,1.576,0,0,1,.465-1.686l.073-.058-.029-.1a.837.837,0,0,1,.029-.6,2.424,2.424,0,0,1,1.25-.887l.131-.044-.073-.145a.511.511,0,0,1-.015-.436c.218-.392,1.177-.48,1.541-.48h.174l-.058-.189-.029-.189.073.014a1.769,1.769,0,0,0,.959-.349,1.443,1.443,0,0,0,1.235.465c.145,0,.305-.015.48-.029h.029a15.36,15.36,0,0,1,2.776-.8l.189-.029.029.015-.233.16-.363.276a19.172,19.172,0,0,0-1.948,1.948,2.006,2.006,0,0,1-1.047.436.454.454,0,0,1-.392-.16l-.044-.073-.058-.1-.1.174a6.1,6.1,0,0,1-.392.567l-.1.116a.824.824,0,0,1-.538.276l-.189-.044-.116-.1-.058.145c-.48,1.017-1.076,1.134-1.308,1.134h-.073l-.087-.015-.029.073a6.423,6.423,0,0,1-1.235,1.715l-.029.029-.015.029c-.16.465-.945.828-1.308.959-.48-.64.378-1.9.378-1.919l.044-.058Z" transform="translate(-394.284 -229.797)" fill="#fff"/>
  <path id="Path_174734" data-name="Path 174734" d="M477.016,266.022h3.357l-.712-3.081.552-.552L479.5,259.6l.567-.276-.741-3.052.669-.48-.6-2.6.669-.363-.421-2.311.552-.363-.087-2.5v-.015a2.9,2.9,0,0,1,.8-1.235,2.972,2.972,0,0,1,.8,1.25l-.087,2.5.552.363-.422,2.311.669.363-.581,2.6.669.48-.727,3.052.552.276-.712,2.791.552.552-.625,3.067h3.285s.436.189.291.509a9.361,9.361,0,0,1-2.006,1.962c-.145-.087-.145-.741-.233-.858-.073-.087-.8.7-1.119.872a4.2,4.2,0,0,0-.858-.727c-.509.32-1.061.727-1.061.727-.32-.189-.828-.945-.887-.858-.1.116-.1.77-.232.858a8.713,8.713,0,0,1-2.006-1.962c-.145-.32.291-.509.291-.509" transform="translate(-429.153 -230.31)" fill="#fff"/>
  <path id="Path_174735" data-name="Path 174735" d="M513.6,249.619l-.073-.131-.116.087a.323.323,0,0,1-.189.058.771.771,0,0,1-.538-.276l-.1-.1a3.7,3.7,0,0,1-.392-.567l-.1-.16-.058.087-.043.073a.454.454,0,0,1-.392.16,1.89,1.89,0,0,1-1.047-.451,23.624,23.624,0,0,0-1.948-1.933c-.131-.1-.247-.2-.363-.291l-.233-.16.029-.015.189.029a14.2,14.2,0,0,1,2.776.8h.014a2.994,2.994,0,0,0,.494.029,1.443,1.443,0,0,0,1.235-.465,1.9,1.9,0,0,0,1,.349l.044-.015-.044.189-.058.174h.174c.349,0,1.308.087,1.526.48a.434.434,0,0,1-.029.436l-.058.145.145.044a2.316,2.316,0,0,1,1.235.887.766.766,0,0,1,.044.6v.1l.073.058a1.507,1.507,0,0,1,.465,1.686l-.015.058.044.058c0,.015.858,1.279.378,1.919-.363-.131-1.148-.494-1.308-.959v-.029l-.029-.029a6.582,6.582,0,0,1-1.221-1.715l-.044-.087-.087.015H514.9c-.233,0-.814-.116-1.308-1.134" transform="translate(-455.907 -229.968)" fill="#fff"/>
  <path id="Path_174736" data-name="Path 174736" d="M514.411,208.067l.058.131.116-.058a.688.688,0,0,1,.305-.073.763.763,0,0,1,.669.494l.029.087h.145a1.257,1.257,0,0,1,.887.291.469.469,0,0,1,.116.305,2.385,2.385,0,0,1-1.09.567l-.087-.015-.029-.015-.029.015a3.807,3.807,0,0,1-1.061.145,4.1,4.1,0,0,1-.421-.029l-.073-.015-.044.073a1.163,1.163,0,0,1-1.032.552l-.247-.029-.116-.015-.029.131a.61.61,0,0,1-.16.291l-.116.087-.276.116-.1.029a3.38,3.38,0,0,1-.422.029h-.145v.029l.015.131v.015c0,.087-.029.552-.93.988a13.939,13.939,0,0,0-1.773.509,7.1,7.1,0,0,0-.669.276l.015-.015.015-.029.291-.32a13.117,13.117,0,0,1,1.206-1.09l.015-.029a1.613,1.613,0,0,0,.48-1.308,1.093,1.093,0,0,0,.7-.974,1.544,1.544,0,0,0,.581-.422h.029c.058,0,.145.015.218.174l.087.2.116-.174c.262-.378.8-.974,1.076-.974.029,0,.1,0,.145.189l.058.2.146-.131a2.02,2.02,0,0,1,1.032-.552.263.263,0,0,1,.305.2" transform="translate(-455.822 -197.369)" fill="#fff"/>
  <path id="Path_174737" data-name="Path 174737" d="M508.179,199.495l.16.145.044-.218c.116-.552.349-1.163.552-1.163l.073.087.131.16.073-.189c.087-.218.436-.858.727-.858l.174.087.1.087.073-.1a.618.618,0,0,1,.451-.233.7.7,0,0,1,.436.174l.058.058.058-.044a1.435,1.435,0,0,1,.611-.189.379.379,0,0,1,.378.218c-.16.334-.465.828-.7.872h-.029l-.029.029a3.325,3.325,0,0,1-1.09.683l-.073.029v.087a.994.994,0,0,1-.174.451,1.222,1.222,0,0,1-.61.451l-.044.015-.073.029.015.044.015.087v.073a.67.67,0,0,1-.2.436,1.72,1.72,0,0,1-.451.32l-.1.058-.029.015v.015l.073.116s.189.378-.392,1.119c-.073.058-.494.407-.93.814l-.291.291-.262.276.044-.145c.32-1.061.858-2.98,1.076-4.215Z" transform="translate(-454.967 -188.347)" fill="#fff"/>
  <path id="Path_174738" data-name="Path 174738" d="M497.833,184.832h.087l-.015-.145a3.5,3.5,0,0,1,.16-1.919l.087-.058.087.029.145.087.029-.174a3.168,3.168,0,0,1,.567-1.352,3.167,3.167,0,0,1,.567,1.352l.029.174.131-.087.1-.029.087.058a3.654,3.654,0,0,1,.16,1.919l-.015.145h.1a2.121,2.121,0,0,1-.073.712l-.029.2-.073.349c-.189.872-.509,2.093-.858,3.314l-.029.073-.1.363-.015.044v-.044l-.1-.363-.029-.073c-.349-1.235-.654-2.442-.843-3.314l-.073-.349-.029-.2a2.381,2.381,0,0,1-.058-.712" transform="translate(-447.208 -174.672)" fill="#fff"/>
  <path id="Path_174739" data-name="Path 174739" d="M467.878,197.2a1.435,1.435,0,0,1,.61.189l.073.044.058-.058a.8.8,0,0,1,.422-.174.618.618,0,0,1,.451.233l.073.1.1-.087.174-.073c.291,0,.639.625.727.858l.087.189.116-.16.131-.087c.16,0,.407.6.523,1.163l.044.218.16-.145.131-.073c.218,1.235.756,3.154,1.061,4.2l.044.16-.262-.276-.291-.291a11.806,11.806,0,0,0-.916-.814c-.6-.756-.392-1.119-.392-1.119l.073-.116v-.015l-.029-.015-.1-.058a1.716,1.716,0,0,1-.451-.305.626.626,0,0,1-.2-.436v-.073l.029-.087.015-.044-.073-.029-.029-.015a1.2,1.2,0,0,1-.625-.451,1.027,1.027,0,0,1-.174-.451l-.015-.087-.073-.029a3.648,3.648,0,0,1-1.09-.669l-.029-.029-.029-.015c-.233-.044-.538-.538-.7-.872a.422.422,0,0,1,.378-.2" transform="translate(-421.294 -188.261)" fill="#fff"/>
  <path id="Path_174740" data-name="Path 174740" d="M443.085,208.7a1.257,1.257,0,0,1,.887-.291h.145l.029-.073a.79.79,0,0,1,.683-.509.689.689,0,0,1,.305.073l.116.058.044-.131a.311.311,0,0,1,.32-.233c.436,0,1.017.538,1.047.552l.145.131.044-.2c.044-.189.116-.189.145-.189.262,0,.8.6,1.061.974l.131.174.087-.2c.058-.16.145-.174.218-.174h.029a1.564,1.564,0,0,0,.581.436,1.091,1.091,0,0,0,.7.959,1.624,1.624,0,0,0,.465,1.308l.015.015a12.352,12.352,0,0,1,1.206,1.1l.291.32.015.029v.029a5.535,5.535,0,0,0-.654-.276,17.13,17.13,0,0,0-1.773-.509c-.916-.451-.945-.916-.945-.988v-.015l.029-.116v-.044H448.3a1.922,1.922,0,0,1-.422-.029l-.116-.029-.276-.131-.116-.073a.73.73,0,0,1-.174-.291v-.087l-.116.015-.247.015a1.19,1.19,0,0,1-1.032-.552l-.044-.073-.073.015a3.84,3.84,0,0,1-.422.029,3.028,3.028,0,0,1-1.061-.16l-.029-.015-.029.015-.087.015a2.336,2.336,0,0,1-1.076-.567.359.359,0,0,1,.1-.305" transform="translate(-400.338 -197.149)" fill="#fff"/>
  <path id="Path_174741" data-name="Path 174741" d="M425.476,233.134c.116-.509.8-.9.814-.916l.073-.044V232.1a.94.94,0,0,1,.77-1.1l.116-.015-.015-.131a.472.472,0,0,1,.087-.363,1.243,1.243,0,0,1,.93-.276,3.466,3.466,0,0,1,.538.044l.189.029-.058-.2c-.029-.131-.029-.218.015-.262.044-.073.16-.1.334-.1a4.493,4.493,0,0,1,1.337.334l.189.087-.029-.218a.366.366,0,0,1,.058-.291.6.6,0,0,1,.436-.131,3.748,3.748,0,0,1,1.09.233l.058.029a1.437,1.437,0,0,0,.8.189c.044.247.233.727,1.1,1.148h.029s.451.1,1,.262c.32.1.683.218,1,.334l.014.015-.32.058a21.056,21.056,0,0,0-2.311.712,2.426,2.426,0,0,1-.451.029c-.9,0-1.09-.436-1.09-.436l-.044-.145-.131.087a1.687,1.687,0,0,1-.945.363h-.029l-.131-.015-.131-.029a.439.439,0,0,1-.218-.145l-.073-.1-.087.087a1.635,1.635,0,0,1-1.061.451,1.256,1.256,0,0,1-.567-.131l-.073-.044-.058.058a4.826,4.826,0,0,1-1.555.843l-.029.015-.029.029c-.131.16-.465.233-.945.233-.247,0-.465-.029-.567-.029a.754.754,0,0,1-.044-.465" transform="translate(-385.36 -215.866)" fill="#fff"/>
  <path id="Path_174742" data-name="Path 174742" d="M390.444,383.934a71.231,71.231,0,0,0-6.555,5.029c1.09,1,2.195,2.078,3.285,3.256l.1-.1h.218l.044.145.16-.233a.7.7,0,0,1,.218-.77.635.635,0,1,1,.2,1.119.564.564,0,0,0-.058.465,3.083,3.083,0,0,0,2.529,1.206,2.65,2.65,0,0,0,2.035-1,1.067,1.067,0,0,1,1.642.015c1.206,1.759-1.265,3.343-3.023,3.387a6.712,6.712,0,0,1-4.578-1.875c-.189-.218-.32-.291-.48-.218a.492.492,0,0,0-.174.334.74.74,0,0,1-.247.64.683.683,0,0,1-.959,0,.665.665,0,0,1,.116-.945.765.765,0,0,1,.538-.189l.058-.015-.073-.044v-.218l.247-.233c-.436-.436-1.715-1.686-3.474-3.241-1.744,1.57-3.023,2.805-3.474,3.241l.247.233v.218l-.058.044.058.015a.765.765,0,0,1,.538.189.638.638,0,1,1-.843.945.715.715,0,0,1-.262-.64.451.451,0,0,0-.189-.334c-.16-.087-.291,0-.48.218a6.746,6.746,0,0,1-4.578,1.875c-1.759-.029-4.244-1.628-3.023-3.387a1.078,1.078,0,0,1,1.642-.015,2.65,2.65,0,0,0,2.035,1,3.053,3.053,0,0,0,2.515-1.206.564.564,0,0,0-.058-.465.674.674,0,0,1-.64-.174.637.637,0,1,1,.843-.945.7.7,0,0,1,.218.77l.16.233.044-.145h.218l.1.1c1.09-1.177,2.195-2.253,3.285-3.256a73.248,73.248,0,0,0-6.555-5.029c-7.282-4.84-12.762-4.375-12.762-4.375,4.113-1.541,9.3-.044,11.657,1.279a60.705,60.705,0,0,1,9.331,6.642,61.436,61.436,0,0,1,9.331-6.642c2.355-1.323,7.529-2.82,11.642-1.279.044,0-5.451-.465-12.718,4.375" transform="translate(-330.444 -343.557)" fill="#fff"/>
  <path id="Path_174743" data-name="Path 174743" d="M154.513,663.933c-.029-.625-.683-1.323-1.948-2.093a19.128,19.128,0,0,0-1.366,1.846,1.33,1.33,0,0,0-.131.552c0,.581.334.872,1.017.872a5.188,5.188,0,0,0,1.977-.436.817.817,0,0,0,.451-.741m.756-7.253-.843,1.4-1.977-1.192-.6,1.119-2.093-1.221.872-1.483,1.933,1.221.669-1.1Zm.61,6.177a5.819,5.819,0,0,1-.712,2.122,4.64,4.64,0,0,1-1,1.047,4.435,4.435,0,0,1-2.267.9,2.965,2.965,0,0,1-1.5-.189,1.192,1.192,0,0,1-.8-1.163c0-.814.64-2.064,1.933-3.735l1.642-2.151a6.325,6.325,0,0,0,1.017.9,12.228,12.228,0,0,1,1.017.785,1.918,1.918,0,0,1,.669,1.483" transform="translate(-149.6 -579.777)" fill="#00524d"/>
  <path id="Path_174744" data-name="Path 174744" d="M196.01,698.76a7.177,7.177,0,0,1-1.526,4.07c-.916,1.337-1.89,1.991-2.907,1.991a8.418,8.418,0,0,1-2.544-.669c-1.279-.494-1.933-.887-1.933-1.206l.145-.145a10.224,10.224,0,0,1,1.119.422,4.868,4.868,0,0,0,1.686.422c.93,0,2.035-.625,3.343-1.889s1.948-2.34,1.948-3.27c0-.669-.785-1.57-2.369-2.718.087-.392.247-1.1.465-2.166a7.685,7.685,0,0,1,1.788,1.831,6.671,6.671,0,0,1,.785,3.328" transform="translate(-181.649 -612.51)" fill="#00524d"/>
  <path id="Path_174745" data-name="Path 174745" d="M268.846,653.937H265.4q-.349-6.432-.9-12.267c.247-.334.64-.858,1.163-1.57l.567,6.744a37.189,37.189,0,0,0,.581,4.855l.16.175a1.266,1.266,0,0,0,.945.276h.916v1.788Z" transform="translate(-247.8 -566.786)" fill="#00524d"/>
  <rect id="Rectangle_8527" data-name="Rectangle 8527" width="3.474" height="1.788" transform="translate(20.421 85.363)" fill="#00524d"/>
  <rect id="Rectangle_8528" data-name="Rectangle 8528" width="3.488" height="1.788" transform="translate(23.445 85.363)" fill="#00524d"/>
  <path id="Path_174746" data-name="Path 174746" d="M341.141,700.485l-.858,1.439-1.948-1.221.872-1.381Zm5.552-3.474h-4.84c-.422,0-.712-.32-.872-.974a14.248,14.248,0,0,1-.233-1.453,6.02,6.02,0,0,1-1.09.828,7.909,7.909,0,0,0-1.1.8,2.828,2.828,0,0,1-2.064.8H332.1v-1.788h4.433a7.25,7.25,0,0,0,4.346-1.948c-.7-.145-1.715-.363-3.081-.64l-.974-.2a3.8,3.8,0,0,0-1.991.916l-.029-.073a2.153,2.153,0,0,1,.189-.785c.567-1.337,1.381-1.991,2.427-1.991a11.107,11.107,0,0,1,2.849.581,17.3,17.3,0,0,0,4.288.872h.6c.567-.014.785-.029.625-.029-.145.407-.407,1.032-.77,1.846-.16-.014-.363-.029-.64-.029a6.7,6.7,0,0,0-2.892.509,1.014,1.014,0,0,0,.451.872l.189.116h4.549v1.773Z" transform="translate(-305.574 -609.861)" fill="#00524d"/>
  <path id="Path_174747" data-name="Path 174747" d="M435.79,661.552l-.858,1.41-1.991-1.192-.625,1.1-2.049-1.206.858-1.468,1.933,1.221.654-1.1Zm.7,9.564H435.47a1.36,1.36,0,0,1-.727-.247,1.287,1.287,0,0,1-.305-.45c-.116-.233-.189-.363-.233-.378-.073,0-.2.175-.407.538s-.363.538-.48.538H429.7v-1.788h4.666l.044-2.354a24.835,24.835,0,0,1,1.613-1.948l.029.2a19.725,19.725,0,0,1-.407,3.357,2.621,2.621,0,0,0-.073.523c.015.131.131.2.363.2h.552Z" transform="translate(-388.988 -583.965)" fill="#00524d"/>
  <path id="Path_174748" data-name="Path 174748" d="M479.248,646.152l-1.017,2.02-.262-.073.6,5.988a12.251,12.251,0,0,1-.247,1.991c-.174.93-.349,1.41-.523,1.41H473.1V655.7h4.419c.044,0,.073-.145.073-.422a65.266,65.266,0,0,0-1.047-8.023l-.131-.044a.6.6,0,0,1-.334-.523,1.031,1.031,0,0,1,.116-.436l.93-1.613c.174-.32.305-.436.392-.363l.16.174-.087.305-.1.291a.339.339,0,0,0,.2.276c.538.291,1.061.567,1.555.829" transform="translate(-426.08 -570.339)" fill="#00524d"/>
  <path id="Path_174749" data-name="Path 174749" d="M535.018,651.553a9.9,9.9,0,0,1-.828,3.081c-.276-3.154-.64-6.962-1.119-11.439-.058-.494.393-1.526,1.337-3.1.073.116.2,2.049.378,5.77Z" transform="translate(-477.33 -566.786)" fill="#00524d"/>
  <path id="Path_174750" data-name="Path 174750" d="M605.213,663.933c-.044-.625-.683-1.323-1.948-2.093a21.965,21.965,0,0,0-1.366,1.846,1.331,1.331,0,0,0-.131.552c0,.581.334.872,1.017.872a5.131,5.131,0,0,0,1.977-.436.876.876,0,0,0,.451-.741m.741-7.253-.843,1.4-1.977-1.192-.6,1.119-2.093-1.221.872-1.483,1.933,1.221.669-1.1Zm.61,6.177a6.007,6.007,0,0,1-.7,2.122,5.372,5.372,0,0,1-1,1.047,4.435,4.435,0,0,1-2.267.9,2.964,2.964,0,0,1-1.5-.189,1.192,1.192,0,0,1-.8-1.163c0-.814.64-2.064,1.933-3.735l1.642-2.151a6.327,6.327,0,0,0,1.018.9,10.047,10.047,0,0,1,1.017.785,1.953,1.953,0,0,1,.654,1.483" transform="translate(-534.792 -579.777)" fill="#00524d"/>
  <path id="Path_174751" data-name="Path 174751" d="M646.61,698.76a7.177,7.177,0,0,1-1.526,4.07c-.916,1.337-1.889,1.991-2.907,1.991a8.417,8.417,0,0,1-2.544-.669c-1.279-.494-1.933-.887-1.933-1.206l.145-.145a10.241,10.241,0,0,1,1.119.422,4.878,4.878,0,0,0,1.671.422c.93,0,2.035-.625,3.343-1.889s1.948-2.34,1.948-3.27c0-.669-.785-1.57-2.384-2.718.087-.392.247-1.1.48-2.166a7.983,7.983,0,0,1,1.788,1.831,6.379,6.379,0,0,1,.8,3.328" transform="translate(-566.756 -612.51)" fill="#00524d"/>
  <path id="Path_174752" data-name="Path 174752" d="M719.333,651.553a9.631,9.631,0,0,1-.843,3.081c-.276-3.154-.639-6.962-1.119-11.439-.058-.494.393-1.526,1.337-3.1.073.116.189,2.049.378,5.77Z" transform="translate(-634.842 -566.786)" fill="#00524d"/>
  <path id="Path_174753" data-name="Path 174753" d="M739.757,660.792l-.857,1.453-2.02-1.221.872-1.424ZM742,669.7a7.177,7.177,0,0,1-1.526,4.07c-.916,1.337-1.889,1.991-2.907,1.991a8.419,8.419,0,0,1-2.544-.669c-1.279-.494-1.919-.887-1.919-1.206l.145-.145a11.046,11.046,0,0,1,1.134.422,4.8,4.8,0,0,0,1.671.422c.916,0,2.035-.625,3.343-1.889s1.948-2.34,1.948-3.27c0-.669-.785-1.57-2.369-2.718.087-.392.247-1.1.465-2.166a7.683,7.683,0,0,1,1.788,1.831A6.671,6.671,0,0,1,742,669.7" transform="translate(-648.289 -583.452)" fill="#00524d"/>
  <path id="Path_174754" data-name="Path 174754" d="M798.205,692.5a2.577,2.577,0,0,0-.363-1.235,1.223,1.223,0,0,0-.959-.741,1.313,1.313,0,0,0-.916.523,1.394,1.394,0,0,0-.509.93c.015.291.233.509.654.669a2.6,2.6,0,0,0,.988.189,1.386,1.386,0,0,0,1.1-.334m1.308.218a10.679,10.679,0,0,1-1.047,4.695,7.29,7.29,0,0,1-1.424,2.006,2.773,2.773,0,0,1-2.122,1,21.529,21.529,0,0,1-2.5-.407c-1.352-.291-2.02-.552-2.02-.785,0-.116.087-.189.261-.189a5.792,5.792,0,0,1,1.177.2,5.44,5.44,0,0,0,1.192.2,2.619,2.619,0,0,0,.785-.116,9.73,9.73,0,0,0,3.3-2.166A4.448,4.448,0,0,0,798.8,694.1a3.389,3.389,0,0,0-.145-1.1,3.291,3.291,0,0,1-1.192,1.613,2.369,2.369,0,0,1-1.25.145,1.345,1.345,0,0,1-1.1-.843,3.37,3.37,0,0,1-.32-1.424,5.187,5.187,0,0,1,.945-2.427c.683-1.1,1.294-1.657,1.8-1.657.363,0,.77.465,1.25,1.381a6.448,6.448,0,0,1,.727,2.936" transform="translate(-697.261 -608.066)" fill="#00524d"/>
  <path id="Path_174755" data-name="Path 174755" d="M151.468,795.9l2.18,5.741,2.209-5.741h1.453v7.631h-1.265v-5.262l-2.02,5.262H153.2l-1.933-5.262v5.262H150V795.9Z" transform="translate(-149.942 -699.941)" fill="#00524d"/>
  <path id="Path_174756" data-name="Path 174756" d="M207.3,803.531h1.25v-5.509H207.3Zm0-6.541h1.25V795.9H207.3Z" transform="translate(-198.913 -699.941)" fill="#00524d"/>
  <path id="Path_174757" data-name="Path 174757" d="M222,809.987h1.265v.45a2.381,2.381,0,0,1,.785-.407,2.852,2.852,0,0,1,.858-.131,2.622,2.622,0,0,1,.785.116,1.368,1.368,0,0,1,.567.334,1.474,1.474,0,0,1,.363.523,1.755,1.755,0,0,1,.131.7v3.91h-1.264v-3.823a1.045,1.045,0,0,0-.189-.712.735.735,0,0,0-.552-.2,1.6,1.6,0,0,0-.581.116,1.55,1.55,0,0,0-.785.785,1.376,1.376,0,0,0-.116.538v3.285H222Z" transform="translate(-211.477 -711.906)" fill="#00524d"/>
  <path id="Path_174758" data-name="Path 174758" d="M261.4,803.531h1.25v-5.509H261.4Zm0-6.541h1.25V795.9H261.4Z" transform="translate(-245.15 -699.941)" fill="#00524d"/>
  <path id="Path_174759" data-name="Path 174759" d="M277.394,813.835a1.253,1.253,0,0,0,.087.494,1.11,1.11,0,0,0,.218.334l.305.189a1.114,1.114,0,0,0,.392.058,3.292,3.292,0,0,0,.363-.029,1.225,1.225,0,0,0,.349-.116l.262-.232a.6.6,0,0,0,.1-.363.509.509,0,0,0-.1-.334l-.262-.247a1.3,1.3,0,0,0-.378-.174,4.116,4.116,0,0,0-.451-.16c-.233-.087-.465-.174-.712-.262a3.592,3.592,0,0,1-.625-.32,1.96,1.96,0,0,1-.465-.451,1.188,1.188,0,0,1-.174-.654,1.222,1.222,0,0,1,.174-.654,1.422,1.422,0,0,1,.465-.465,2.3,2.3,0,0,1,.669-.262,3.42,3.42,0,0,1,.785-.087,3.227,3.227,0,0,1,.858.1,1.944,1.944,0,0,1,.683.291,1.419,1.419,0,0,1,.465.509,1.629,1.629,0,0,1,.189.727h-1.264a1.189,1.189,0,0,0-.116-.363l-.2-.233-.291-.131-.334-.029a1.052,1.052,0,0,0-.611.16.524.524,0,0,0-.2.436l.1.32.262.233a2.455,2.455,0,0,0,.392.189,4.09,4.09,0,0,0,.451.16l.7.262a3.785,3.785,0,0,1,.64.334,1.907,1.907,0,0,1,.465.436.982.982,0,0,1,.174.581,1.649,1.649,0,0,1-.189.785,1.505,1.505,0,0,1-.523.523,2.742,2.742,0,0,1-.756.305,4.494,4.494,0,0,1-.9.1,3.407,3.407,0,0,1-.872-.116,2.065,2.065,0,0,1-.712-.363,1.971,1.971,0,0,1-.494-.6,1.949,1.949,0,0,1-.2-.843h1.294Z" transform="translate(-257.714 -712.077)" fill="#00524d"/>
  <path id="Path_174760" data-name="Path 174760" d="M313.078,799.6v1.584h.828v.858h-.828V805.4a.642.642,0,0,0,.1.422l.262.116.189-.029c.087-.015.233-.029.407-.073v.828c-.16.044-.305.073-.465.1a2.351,2.351,0,0,1-.436.029,2.7,2.7,0,0,1-.494-.058,1.245,1.245,0,0,1-.422-.189.985.985,0,0,1-.291-.349,1.16,1.16,0,0,1-.1-.523v-3.634H311v-.858h.828V799.6Z" transform="translate(-287.541 -703.103)" fill="#00524d"/>
  <path id="Path_174761" data-name="Path 174761" d="M336.8,809.9h1.119l.073.494a1.5,1.5,0,0,1,.523-.436,1.438,1.438,0,0,1,.64-.16l.276.029.334.087v1.032a2.772,2.772,0,0,0-.625-.189.9.9,0,0,0-.451.1,1.076,1.076,0,0,0-.334.291,1.263,1.263,0,0,0-.2.422,1.953,1.953,0,0,0-.073.509v3.3h-1.25V809.9Z" transform="translate(-309.591 -711.821)" fill="#00524d"/>
  <path id="Path_174762" data-name="Path 174762" d="M360.645,814.264l1.294-3.765h1.308l-2.34,6.628a2.083,2.083,0,0,1-.291.567,1.436,1.436,0,0,1-.363.363,1.019,1.019,0,0,1-.392.2,1.314,1.314,0,0,1-.407.058,1.6,1.6,0,0,1-.363-.029,1.462,1.462,0,0,1-.436-.131v-.93l.189.073.2.073.189.058.116.015.145-.073.131-.2.1-.247.073-.233.233-.741L358,810.5h1.337Z" transform="translate(-327.709 -712.419)" fill="#00524d"/>
  <path id="Path_174763" data-name="Path 174763" d="M413.95,812.649a2.6,2.6,0,0,0,.1.77,2.041,2.041,0,0,0,.276.625,1.208,1.208,0,0,0,.436.422,1.137,1.137,0,0,0,1.163,0,1.208,1.208,0,0,0,.436-.422,2.067,2.067,0,0,0,.291-.625,2.6,2.6,0,0,0,.1-.77,2.567,2.567,0,0,0-.1-.756,1.658,1.658,0,0,0-.291-.625,1.209,1.209,0,0,0-.436-.422,1.125,1.125,0,0,0-.581-.16,1.166,1.166,0,0,0-.581.16,1.34,1.34,0,0,0-.436.422,1.744,1.744,0,0,0-.276.625,2.567,2.567,0,0,0-.1.756m-1.25.015a3.447,3.447,0,0,1,.174-1.1,2.966,2.966,0,0,1,.509-.916,2.2,2.2,0,0,1,.828-.61,2.594,2.594,0,0,1,1.134-.233,2.55,2.55,0,0,1,1.134.233,2.376,2.376,0,0,1,.843.61,2.841,2.841,0,0,1,.523.916,3.451,3.451,0,0,1,.174,1.1,3.387,3.387,0,0,1-.174,1.1,2.416,2.416,0,0,1-.523.9,2.379,2.379,0,0,1-.843.61,2.818,2.818,0,0,1-1.134.233,2.552,2.552,0,0,1-1.134-.233,2.458,2.458,0,0,1-.828-.61,2.5,2.5,0,0,1-.509-.9,3.038,3.038,0,0,1-.174-1.1" transform="translate(-374.459 -711.821)" fill="#00524d"/>
  <path id="Path_174764" data-name="Path 174764" d="M453.916,796.74v-1.221a1.063,1.063,0,0,1,.087-.436.97.97,0,0,1,.276-.363,1.249,1.249,0,0,1,.436-.232,1.781,1.781,0,0,1,.567-.087,1.7,1.7,0,0,1,.436.073,1.94,1.94,0,0,1,.465.218v.829c-.189-.073-.334-.131-.451-.174l-.189-.073-.262.087a.369.369,0,0,0-.1.305v1.076h.93v.887h-.93v4.622h-1.265v-4.622H453v-.887Z" transform="translate(-408.901 -698.659)" fill="#00524d"/>
  <path id="Path_174765" data-name="Path 174765" d="M496.85,798.153a4.707,4.707,0,0,0,.2,1.439,3.045,3.045,0,0,0,.523,1.017,2.2,2.2,0,0,0,.741.6,1.927,1.927,0,0,0,.843.189,1.731,1.731,0,0,0,.785-.174,1.9,1.9,0,0,0,.611-.465,2.312,2.312,0,0,0,.436-.669,3.58,3.58,0,0,0,.262-.756h1.279a3.834,3.834,0,0,1-.392,1.148,3.465,3.465,0,0,1-.7.945,3.245,3.245,0,0,1-1,.625,3.289,3.289,0,0,1-1.279.232,3.626,3.626,0,0,1-1.468-.291,3.134,3.134,0,0,1-1.119-.814,3.779,3.779,0,0,1-.727-1.308,5.807,5.807,0,0,1-.247-1.744,4.567,4.567,0,0,1,.1-.988,5.415,5.415,0,0,1,.32-.93,3.547,3.547,0,0,1,.509-.8,3.651,3.651,0,0,1,.7-.64,3.335,3.335,0,0,1,.887-.422,3.438,3.438,0,0,1,1.046-.145,3.883,3.883,0,0,1,1.279.189,3.364,3.364,0,0,1,.988.523,2.8,2.8,0,0,1,.7.8,3.773,3.773,0,0,1,.436,1.017h-1.294a2.758,2.758,0,0,0-.814-1.25,2.067,2.067,0,0,0-1.308-.407,1.718,1.718,0,0,0-.93.247,2.437,2.437,0,0,0-.727.669,2.884,2.884,0,0,0-.465.974,3.7,3.7,0,0,0-.174,1.192" transform="translate(-445.309 -698.488)" fill="#00524d"/>
  <path id="Path_174766" data-name="Path 174766" d="M550.15,812.649a2.6,2.6,0,0,0,.1.77,2.043,2.043,0,0,0,.276.625,1.208,1.208,0,0,0,.436.422,1.137,1.137,0,0,0,1.163,0,1.208,1.208,0,0,0,.436-.422,1.747,1.747,0,0,0,.276-.625,2.6,2.6,0,0,0,.1-.77,2.567,2.567,0,0,0-.1-.756,1.9,1.9,0,0,0-.276-.625,1.208,1.208,0,0,0-.436-.422,1.125,1.125,0,0,0-.581-.16,1.166,1.166,0,0,0-.581.16,1.339,1.339,0,0,0-.436.422,2.044,2.044,0,0,0-.276.625,2.569,2.569,0,0,0-.1.756m-1.25.015a3.449,3.449,0,0,1,.174-1.1,2.963,2.963,0,0,1,.509-.916,2.2,2.2,0,0,1,.829-.61,2.594,2.594,0,0,1,1.134-.233,2.658,2.658,0,0,1,1.148.233,2.2,2.2,0,0,1,.828.61,2.594,2.594,0,0,1,.523.916,3.451,3.451,0,0,1,.174,1.1,3.387,3.387,0,0,1-.174,1.1,2.413,2.413,0,0,1-.523.9,2.458,2.458,0,0,1-.828.61,2.836,2.836,0,0,1-1.148.233,2.551,2.551,0,0,1-1.134-.233,2.457,2.457,0,0,1-.829-.61,2.5,2.5,0,0,1-.509-.9,3.04,3.04,0,0,1-.174-1.1" transform="translate(-490.863 -711.821)" fill="#00524d"/>
  <path id="Path_174767" data-name="Path 174767" d="M591.3,809.731h1.25v.407a2.019,2.019,0,0,1,.712-.392,2.694,2.694,0,0,1,.727-.116,2.032,2.032,0,0,1,.77.16,1.649,1.649,0,0,1,.654.552,1.578,1.578,0,0,1,.363-.334c.145-.087.291-.16.436-.232a2.8,2.8,0,0,1,.465-.131,2.491,2.491,0,0,1,.451-.043,2.193,2.193,0,0,1,.77.131,1.841,1.841,0,0,1,.611.363,2.048,2.048,0,0,1,.392.538,1.5,1.5,0,0,1,.145.669v3.91H597.8v-3.663a1.641,1.641,0,0,0-.073-.509.979.979,0,0,0-.189-.32l-.262-.16-.291-.058a.942.942,0,0,0-.422.1,1.145,1.145,0,0,0-.363.291,1.291,1.291,0,0,0-.262.436,1.269,1.269,0,0,0-.1.538v3.372h-1.25v-3.692a1.642,1.642,0,0,0-.073-.509.978.978,0,0,0-.189-.32l-.247-.16-.262-.058a1,1,0,0,0-.494.131,1.282,1.282,0,0,0-.393.349,1.41,1.41,0,0,0-.262.451,1.583,1.583,0,0,0-.1.48v3.314h-1.25v-5.494Z" transform="translate(-527.1 -711.65)" fill="#00524d"/>
  <path id="Path_174768" data-name="Path 174768" d="M651,809.731h1.25v.407a2.018,2.018,0,0,1,.712-.392,2.693,2.693,0,0,1,.727-.116,2.032,2.032,0,0,1,.77.16,1.649,1.649,0,0,1,.654.552,1.58,1.58,0,0,1,.363-.334,4.144,4.144,0,0,1,.436-.232,2.788,2.788,0,0,1,.465-.131,2.488,2.488,0,0,1,.45-.043,2.193,2.193,0,0,1,.77.131,1.84,1.84,0,0,1,.61.363,2.044,2.044,0,0,1,.393.538,1.5,1.5,0,0,1,.145.669v3.91H657.5v-3.663a1.642,1.642,0,0,0-.073-.509.98.98,0,0,0-.189-.32l-.262-.16-.291-.058a.9.9,0,0,0-.422.1,1.147,1.147,0,0,0-.363.291,1.292,1.292,0,0,0-.262.436,1.27,1.27,0,0,0-.1.538v3.372h-1.25v-3.692a1.643,1.643,0,0,0-.073-.509,1.329,1.329,0,0,0-.189-.32l-.247-.16-.262-.058a1,1,0,0,0-.494.131,1.279,1.279,0,0,0-.392.349,1.4,1.4,0,0,0-.262.451,1.583,1.583,0,0,0-.1.48v3.314H651Z" transform="translate(-578.122 -711.65)" fill="#00524d"/>
  <path id="Path_174769" data-name="Path 174769" d="M714.568,812.111a2.314,2.314,0,0,0-.116-.567,1.563,1.563,0,0,0-.276-.451,1.253,1.253,0,0,0-.421-.305,1.337,1.337,0,0,0-.552-.1,1.238,1.238,0,0,0-.509.116,1.2,1.2,0,0,0-.407.305,1.783,1.783,0,0,0-.276.451,1.706,1.706,0,0,0-.131.552Zm-2.674.785a2.379,2.379,0,0,0,.131.654,2.076,2.076,0,0,0,.291.567,1.542,1.542,0,0,0,.422.392.949.949,0,0,0,.523.145,1.354,1.354,0,0,0,1.323-1.061h1.177a2.14,2.14,0,0,1-.334.814,2.827,2.827,0,0,1-.567.61,2.547,2.547,0,0,1-.741.378,2.7,2.7,0,0,1-.843.131,2.5,2.5,0,0,1-1.948-.872,2.864,2.864,0,0,1-.538-.945,3.177,3.177,0,0,1-.189-1.119,3.258,3.258,0,0,1,.189-1.061,2.86,2.86,0,0,1,.523-.887,2.376,2.376,0,0,1,.843-.61,2.509,2.509,0,0,1,1.1-.233,2.837,2.837,0,0,1,1.076.2,2.305,2.305,0,0,1,.814.552,2.568,2.568,0,0,1,.523.858,3.128,3.128,0,0,1,.174,1.061v.392h-3.953Z" transform="translate(-629.06 -711.821)" fill="#00524d"/>
  <path id="Path_174770" data-name="Path 174770" d="M752.2,809.9h1.119l.073.494a1.5,1.5,0,0,1,.523-.436,1.437,1.437,0,0,1,.64-.16l.276.029.334.087v1.032a2.771,2.771,0,0,0-.625-.189.9.9,0,0,0-.451.1,1.077,1.077,0,0,0-.334.291,1.266,1.266,0,0,0-.2.422,1.487,1.487,0,0,0-.073.509v3.3h-1.25V809.9Z" transform="translate(-664.613 -711.821)" fill="#00524d"/>
  <path id="Path_174771" data-name="Path 174771" d="M780.548,811.975a1.578,1.578,0,0,0-.422-.8,1,1,0,0,0-.683-.233,1.024,1.024,0,0,0-.552.16,1.256,1.256,0,0,0-.407.422,2.008,2.008,0,0,0-.262.6,2.9,2.9,0,0,0-.087.712,3.382,3.382,0,0,0,.087.77,2.468,2.468,0,0,0,.262.669,1.405,1.405,0,0,0,.407.465.883.883,0,0,0,.538.174.823.823,0,0,0,.422-.1l.32-.276a1.851,1.851,0,0,0,.233-.407,4.874,4.874,0,0,0,.145-.494h1.323a3.535,3.535,0,0,1-.247.916,2.4,2.4,0,0,1-.509.683,2.22,2.22,0,0,1-.741.436,2.828,2.828,0,0,1-.959.145,2.334,2.334,0,0,1-1.134-.262,2.384,2.384,0,0,1-.785-.683,3.064,3.064,0,0,1-.451-.959,4.32,4.32,0,0,1-.145-1.046,2.965,2.965,0,0,1,.189-1.09,2.634,2.634,0,0,1,.523-.872,2.377,2.377,0,0,1,.814-.581,2.519,2.519,0,0,1,1.061-.218,3.044,3.044,0,0,1,.93.145,2.3,2.3,0,0,1,.7.392,1.925,1.925,0,0,1,.48.6,2.769,2.769,0,0,1,.276.756h-1.323Z" transform="translate(-685.723 -712.077)" fill="#00524d"/>
  <path id="Path_174772" data-name="Path 174772" d="M820.468,812.111a2.311,2.311,0,0,0-.116-.567,1.562,1.562,0,0,0-.276-.451,1.256,1.256,0,0,0-.422-.305,1.337,1.337,0,0,0-.552-.1,1.238,1.238,0,0,0-.509.116,1.2,1.2,0,0,0-.407.305,1.788,1.788,0,0,0-.276.451,1.708,1.708,0,0,0-.131.552Zm-2.674.785a2.372,2.372,0,0,0,.131.654,2.079,2.079,0,0,0,.291.567,1.785,1.785,0,0,0,.422.392.949.949,0,0,0,.523.145,1.343,1.343,0,0,0,1.323-1.061h1.177a2.145,2.145,0,0,1-.334.814,2.834,2.834,0,0,1-.567.61,2.549,2.549,0,0,1-.741.378,2.763,2.763,0,0,1-.843.131,2.5,2.5,0,0,1-1.948-.872,2.631,2.631,0,0,1-.538-.945,3.177,3.177,0,0,1-.189-1.119,2.917,2.917,0,0,1,.189-1.061,3.176,3.176,0,0,1,.523-.887,2.374,2.374,0,0,1,.843-.61,2.508,2.508,0,0,1,1.1-.233,2.835,2.835,0,0,1,1.076.2,2.306,2.306,0,0,1,.814.552,2.566,2.566,0,0,1,.523.858,3.127,3.127,0,0,1,.189,1.061v.392h-3.968Z" transform="translate(-719.567 -711.821)" fill="#00524d"/>
</svg>
