<svg id="General-Entertainment-Authority-01" xmlns="http://www.w3.org/2000/svg" width="96.725" height="113.919" viewBox="0 0 96.725 113.919">
  <g id="Group_43113" data-name="Group 43113" transform="translate(0 95.772)">
    <path id="Path_174620" data-name="Path 174620" d="M205.068,813.867h-.373a.089.089,0,0,0-.081.049.231.231,0,0,0-.032.1v1.948c-.081.016-.195.016-.341.032a4.874,4.874,0,0,1-.519.016,1.24,1.24,0,0,1-.438-.081.74.74,0,0,1-.357-.276,1.709,1.709,0,0,1-.243-.487,2.339,2.339,0,0,1-.081-.714v-.909a2.566,2.566,0,0,1,.1-.763,1.392,1.392,0,0,1,.26-.487.834.834,0,0,1,.39-.243,1.4,1.4,0,0,1,.454-.065h.714a1.751,1.751,0,0,1,.292.016c.1,0,.195.016.292.016h.032c.065,0,.081-.016.081-.065v-.341a.124.124,0,0,0-.032-.081c-.016-.016-.049-.016-.081-.032-.13-.016-.292-.049-.5-.065s-.471-.032-.779-.032a2.245,2.245,0,0,0-.649.1,1.534,1.534,0,0,0-.584.341,1.733,1.733,0,0,0-.422.649A2.7,2.7,0,0,0,202,813.51v.909a2.584,2.584,0,0,0,.162.99,1.708,1.708,0,0,0,.406.649,1.405,1.405,0,0,0,.568.357,1.739,1.739,0,0,0,.633.114c.325,0,.584-.016.8-.032s.39-.049.568-.065a.142.142,0,0,0,.13-.146V814a.23.23,0,0,0-.032-.1C205.133,813.883,205.1,813.867,205.068,813.867Z" transform="translate(-202 -799.664)" fill="#2d3985"/>
    <path id="Path_174621" data-name="Path 174621" d="M229.63,819.938a1.223,1.223,0,0,0-.471-.325,1.6,1.6,0,0,0-.649-.114,1.468,1.468,0,0,0-1.12.422,1.666,1.666,0,0,0-.39,1.169v.617a2.2,2.2,0,0,0,.13.8,1.448,1.448,0,0,0,.341.5,1.184,1.184,0,0,0,.487.26,2.18,2.18,0,0,0,.568.081c.227,0,.438-.016.633-.032s.39-.049.584-.081a.39.39,0,0,0,.114-.049.231.231,0,0,0,.032-.1v-.26a.124.124,0,0,0-.032-.081.122.122,0,0,0-.081-.016h-.016a5.314,5.314,0,0,1-.568.049c-.227.016-.438.016-.633.016a.977.977,0,0,1-.714-.243,1.212,1.212,0,0,1-.243-.86v-.1h2.273c.081,0,.13-.049.13-.146v-.373a2.02,2.02,0,0,0-.1-.649A1.586,1.586,0,0,0,229.63,819.938Zm-.227,1.218h-1.8v-.065a1.242,1.242,0,0,1,.227-.812.87.87,0,0,1,.682-.26.858.858,0,0,1,.665.244,1.23,1.23,0,0,1,.227.828Z" transform="translate(-222.942 -806.449)" fill="#2d3985"/>
    <path id="Path_174622" data-name="Path 174622" d="M252.188,819.5a1.879,1.879,0,0,0-.552.081,2.518,2.518,0,0,0-.536.243v-.13a.23.23,0,0,0-.032-.1.115.115,0,0,0-.1-.049h-.341a.14.14,0,0,0-.1.049.119.119,0,0,0-.032.1v3.458a.231.231,0,0,0,.032.1.116.116,0,0,0,.1.049h.341a.172.172,0,0,0,.146-.146V820.3a2.893,2.893,0,0,1,.471-.195,1.491,1.491,0,0,1,.455-.081,1.081,1.081,0,0,1,.341.049.463.463,0,0,1,.227.146.489.489,0,0,1,.13.276,1.633,1.633,0,0,1,.049.438v2.224a.172.172,0,0,0,.146.146h.325a.172.172,0,0,0,.146-.146v-2.24a1.722,1.722,0,0,0-.276-1.039A1.222,1.222,0,0,0,252.188,819.5Z" transform="translate(-242.627 -806.449)" fill="#2d3985"/>
    <path id="Path_174623" data-name="Path 174623" d="M275.73,819.938a1.223,1.223,0,0,0-.471-.325,1.6,1.6,0,0,0-.649-.114,1.468,1.468,0,0,0-1.12.422,1.666,1.666,0,0,0-.39,1.169v.617a2.2,2.2,0,0,0,.13.8,1.448,1.448,0,0,0,.341.5,1.184,1.184,0,0,0,.487.26,2.18,2.18,0,0,0,.568.081c.227,0,.438-.016.633-.032s.39-.049.584-.081a.39.39,0,0,0,.114-.049.23.23,0,0,0,.032-.1v-.26a.124.124,0,0,0-.032-.081.122.122,0,0,0-.081-.016h-.033a5.313,5.313,0,0,1-.568.049c-.227.016-.438.016-.633.016a.977.977,0,0,1-.714-.243,1.211,1.211,0,0,1-.243-.86v-.1h2.273c.081,0,.13-.049.13-.146v-.373a2.021,2.021,0,0,0-.1-.649A1.281,1.281,0,0,0,275.73,819.938Zm-.227,1.218h-1.8v-.065a1.242,1.242,0,0,1,.227-.812.848.848,0,0,1,.682-.26.858.858,0,0,1,.665.244,1.23,1.23,0,0,1,.227.828Z" transform="translate(-261.559 -806.449)" fill="#2d3985"/>
    <path id="Path_174624" data-name="Path 174624" d="M298.142,819.5a1.685,1.685,0,0,0-.471.081,1.425,1.425,0,0,0-.487.26v-.146a.232.232,0,0,0-.033-.1.115.115,0,0,0-.1-.049h-.325a.14.14,0,0,0-.1.049.12.12,0,0,0-.032.1v3.458a.23.23,0,0,0,.032.1.116.116,0,0,0,.1.049h.341a.172.172,0,0,0,.146-.146v-2.841a2.585,2.585,0,0,1,.487-.227,1.4,1.4,0,0,1,.455-.065c.1,0,.146-.032.146-.114v-.276A.148.148,0,0,0,298.142,819.5Z" transform="translate(-281.244 -806.449)" fill="#2d3985"/>
    <path id="Path_174625" data-name="Path 174625" d="M310.412,819.5c-.227,0-.422.016-.6.032a3.386,3.386,0,0,0-.455.065c-.1.016-.146.049-.146.13v.243c0,.049.016.081.032.081a.147.147,0,0,0,.081.016h.032a3.747,3.747,0,0,1,.455-.032c.162-.016.357-.016.584-.016a.793.793,0,0,1,.568.162.832.832,0,0,1,.162.6v.276h-.5a3.427,3.427,0,0,0-.763.065,1.307,1.307,0,0,0-.5.211.782.782,0,0,0-.276.341,1.454,1.454,0,0,0-.081.487v.081a1.316,1.316,0,0,0,.1.536.848.848,0,0,0,.6.519,1.766,1.766,0,0,0,.422.049,1.581,1.581,0,0,0,.552-.1,2.88,2.88,0,0,0,.5-.244v.146a.172.172,0,0,0,.146.146h.308a.172.172,0,0,0,.146-.146v-2.37a1.318,1.318,0,0,0-.308-.941A1.473,1.473,0,0,0,310.412,819.5Zm.73,3.084a2.738,2.738,0,0,1-.454.211,1.4,1.4,0,0,1-.455.065.722.722,0,0,1-.454-.13.567.567,0,0,1-.162-.487v-.081a.816.816,0,0,1,.049-.308.5.5,0,0,1,.162-.211.759.759,0,0,1,.325-.114,2.3,2.3,0,0,1,.5-.032h.5v1.088Z" transform="translate(-291.631 -806.449)" fill="#2d3985"/>
    <path id="Path_174626" data-name="Path 174626" d="M332.471,811.4h-.357a.124.124,0,0,0-.081.032.175.175,0,0,0-.032.1v4.837a.231.231,0,0,0,.032.1.089.089,0,0,0,.081.049h.357a.089.089,0,0,0,.081-.049.231.231,0,0,0,.032-.1v-4.853a.229.229,0,0,0-.032-.1C332.536,811.4,332.519,811.4,332.471,811.4Z" transform="translate(-310.898 -799.664)" fill="#2d3985"/>
    <path id="Path_174627" data-name="Path 174627" d="M355.376,811.532c-.065,0-.162-.016-.276-.016s-.227-.016-.341-.016h-.714a1.705,1.705,0,0,0-1.088.292,1.174,1.174,0,0,0-.357.974v2.613a1.174,1.174,0,0,0,.357.974,1.705,1.705,0,0,0,1.088.292h.714a2.62,2.62,0,0,0,.357-.016,1.163,1.163,0,0,0,.26-.016c.016,0,.032-.016.049-.032s.016-.032.016-.065v-.341a.077.077,0,0,0-.081-.081h-1.315a3.037,3.037,0,0,1-.438-.032.435.435,0,0,1-.243-.13.388.388,0,0,1-.114-.211,1.673,1.673,0,0,1-.032-.325v-1.152h2.094a.23.23,0,0,0,.1-.033.14.14,0,0,0,.049-.1v-.26a.14.14,0,0,0-.049-.1.119.119,0,0,0-.1-.033h-2.094v-.941a1.673,1.673,0,0,1,.032-.325.5.5,0,0,1,.114-.227.858.858,0,0,1,.243-.13,1.713,1.713,0,0,1,.438-.033h1.315a.077.077,0,0,0,.081-.081v-.341a.1.1,0,0,0-.016-.065Q355.4,811.532,355.376,811.532Z" transform="translate(-328.154 -799.748)" fill="#2d3985"/>
    <path id="Path_174628" data-name="Path 174628" d="M376.888,819.5a1.879,1.879,0,0,0-.552.081,2.518,2.518,0,0,0-.536.243v-.13a.231.231,0,0,0-.032-.1.115.115,0,0,0-.1-.049h-.341a.14.14,0,0,0-.1.049.119.119,0,0,0-.032.1v3.458a.231.231,0,0,0,.032.1.116.116,0,0,0,.1.049h.341a.172.172,0,0,0,.146-.146V820.3a2.893,2.893,0,0,1,.471-.195,1.491,1.491,0,0,1,.455-.081,1.08,1.08,0,0,1,.341.049.464.464,0,0,1,.227.146.489.489,0,0,1,.13.276,1.635,1.635,0,0,1,.049.438v2.224a.172.172,0,0,0,.146.146h.325a.172.172,0,0,0,.146-.146v-2.24a1.722,1.722,0,0,0-.276-1.039A1.222,1.222,0,0,0,376.888,819.5Z" transform="translate(-347.085 -806.449)" fill="#2d3985"/>
    <path id="Path_174629" data-name="Path 174629" d="M398.043,818.488h-.373a.482.482,0,0,1-.292-.081.537.537,0,0,1-.081-.357v-2.37h.73a.172.172,0,0,0,.146-.146v-.227a.172.172,0,0,0-.146-.146h-.73v-.747a.113.113,0,0,0-.1-.114h-.016l-.357.049c-.081.016-.13.065-.13.13v.665h-.666a.119.119,0,0,0-.13.13v.179c0,.065.049.114.13.13l.666.081v2.37a1.224,1.224,0,0,0,.065.454.655.655,0,0,0,.162.276.708.708,0,0,0,.292.146,1.582,1.582,0,0,0,.406.032.994.994,0,0,0,.211-.016c.081,0,.162-.016.227-.016.081-.016.13-.049.13-.114v-.244C398.173,818.52,398.14,818.488,398.043,818.488Z" transform="translate(-364.425 -802.093)" fill="#2d3985"/>
    <path id="Path_174630" data-name="Path 174630" d="M415.63,819.938a1.223,1.223,0,0,0-.471-.325,1.6,1.6,0,0,0-.649-.114,1.468,1.468,0,0,0-1.12.422,1.639,1.639,0,0,0-.39,1.169v.617a2.2,2.2,0,0,0,.13.8,1.447,1.447,0,0,0,.341.5,1.184,1.184,0,0,0,.487.26,2.181,2.181,0,0,0,.568.081c.227,0,.438-.016.633-.032s.39-.049.584-.081a.39.39,0,0,0,.114-.049.231.231,0,0,0,.032-.1v-.26a.124.124,0,0,0-.032-.081.122.122,0,0,0-.081-.016h-.016a5.314,5.314,0,0,1-.568.049c-.227.016-.438.016-.633.016a.977.977,0,0,1-.714-.243,1.212,1.212,0,0,1-.243-.86v-.1h2.273c.081,0,.13-.049.13-.146v-.373a2.022,2.022,0,0,0-.1-.649A1.122,1.122,0,0,0,415.63,819.938Zm-.211,1.218h-1.8v-.065a1.242,1.242,0,0,1,.227-.812.848.848,0,0,1,.682-.26.858.858,0,0,1,.666.244,1.231,1.231,0,0,1,.227.828Z" transform="translate(-378.75 -806.449)" fill="#2d3985"/>
    <path id="Path_174631" data-name="Path 174631" d="M438.142,819.5a1.686,1.686,0,0,0-.471.081,1.425,1.425,0,0,0-.487.26v-.146a.231.231,0,0,0-.033-.1.115.115,0,0,0-.1-.049h-.325a.14.14,0,0,0-.1.049.12.12,0,0,0-.032.1v3.458a.231.231,0,0,0,.032.1.116.116,0,0,0,.1.049h.341a.172.172,0,0,0,.146-.146v-2.841a2.582,2.582,0,0,1,.487-.227,1.4,1.4,0,0,1,.455-.065c.1,0,.146-.032.146-.114v-.276A.147.147,0,0,0,438.142,819.5Z" transform="translate(-398.519 -806.449)" fill="#2d3985"/>
    <path id="Path_174632" data-name="Path 174632" d="M451.243,818.488h-.373a.482.482,0,0,1-.292-.081.537.537,0,0,1-.081-.357v-2.37h.731a.172.172,0,0,0,.146-.146v-.227a.172.172,0,0,0-.146-.146H450.5v-.747a.112.112,0,0,0-.1-.114h-.016l-.357.049c-.081.016-.13.065-.13.13v.665h-.665a.12.12,0,0,0-.13.13v.179c0,.065.049.114.13.13l.665.081v2.37a1.226,1.226,0,0,0,.065.454.656.656,0,0,0,.162.276.708.708,0,0,0,.292.146,1.582,1.582,0,0,0,.406.032.994.994,0,0,0,.211-.016c.081,0,.162-.016.227-.016.081-.016.13-.049.13-.114v-.244C451.389,818.52,451.34,818.488,451.243,818.488Z" transform="translate(-408.99 -802.093)" fill="#2d3985"/>
    <path id="Path_174633" data-name="Path 174633" d="M467.612,819.5c-.227,0-.422.016-.6.032a3.382,3.382,0,0,0-.454.065c-.1.016-.146.049-.146.13v.243c0,.049.016.081.033.081a.146.146,0,0,0,.081.016h.033a3.744,3.744,0,0,1,.454-.032c.162-.016.357-.016.584-.016a.793.793,0,0,1,.568.162.832.832,0,0,1,.162.6v.276h-.5a3.426,3.426,0,0,0-.763.065,1.306,1.306,0,0,0-.5.211.782.782,0,0,0-.276.341,1.455,1.455,0,0,0-.081.487v.081a1.316,1.316,0,0,0,.1.536.848.848,0,0,0,.6.519,1.765,1.765,0,0,0,.422.049,1.431,1.431,0,0,0,.536-.1,2.879,2.879,0,0,0,.5-.244v.146a.172.172,0,0,0,.146.146h.308a.172.172,0,0,0,.146-.146v-2.37a1.318,1.318,0,0,0-.308-.941A1.4,1.4,0,0,0,467.612,819.5Zm.73,3.084a2.737,2.737,0,0,1-.454.211,1.4,1.4,0,0,1-.454.065.722.722,0,0,1-.454-.13.62.62,0,0,1-.162-.487v-.081a.817.817,0,0,1,.049-.308.5.5,0,0,1,.162-.211.759.759,0,0,1,.325-.114,2.3,2.3,0,0,1,.5-.032h.5v1.088Z" transform="translate(-423.314 -806.449)" fill="#2d3985"/>
    <path id="Path_174634" data-name="Path 174634" d="M489.671,819.8h-.325a.172.172,0,0,0-.146.146V823.4a.172.172,0,0,0,.146.146h.325a.172.172,0,0,0,.146-.146V819.93a.14.14,0,0,0-.049-.1A.232.232,0,0,0,489.671,819.8Z" transform="translate(-442.58 -806.7)" fill="#2d3985"/>
    <path id="Path_174635" data-name="Path 174635" d="M489.687,811.1h-.341a.172.172,0,0,0-.146.146v.536a.172.172,0,0,0,.146.146h.341a.172.172,0,0,0,.146-.146v-.536a.172.172,0,0,0-.146-.146Z" transform="translate(-442.58 -799.412)" fill="#2d3985"/>
    <path id="Path_174636" data-name="Path 174636" d="M500.788,819.5a1.879,1.879,0,0,0-.552.081,2.518,2.518,0,0,0-.536.243v-.13a.23.23,0,0,0-.032-.1.115.115,0,0,0-.1-.049h-.341a.14.14,0,0,0-.1.049.119.119,0,0,0-.033.1v3.458a.231.231,0,0,0,.033.1.116.116,0,0,0,.1.049h.341a.172.172,0,0,0,.146-.146V820.3a2.9,2.9,0,0,1,.471-.195,1.491,1.491,0,0,1,.454-.081,1.081,1.081,0,0,1,.341.049.463.463,0,0,1,.227.146.49.49,0,0,1,.13.276,1.632,1.632,0,0,1,.049.438v2.224a.172.172,0,0,0,.146.146h.325a.172.172,0,0,0,.146-.146v-2.24a1.722,1.722,0,0,0-.276-1.039A1.222,1.222,0,0,0,500.788,819.5Z" transform="translate(-450.873 -806.449)" fill="#2d3985"/>
    <path id="Path_174637" data-name="Path 174637" d="M526.588,819.676a.872.872,0,0,0-.357-.211,1.242,1.242,0,0,0-.438-.065,2.223,2.223,0,0,0-.552.065,2.4,2.4,0,0,0-.568.211.617.617,0,0,0-.292-.211.982.982,0,0,0-.39-.065,1.431,1.431,0,0,0-.536.1,2.976,2.976,0,0,0-.455.227v-.13a.232.232,0,0,0-.032-.1.116.116,0,0,0-.1-.049h-.341a.14.14,0,0,0-.1.049.119.119,0,0,0-.032.1v3.474a.228.228,0,0,0,.032.1.089.089,0,0,0,.081.049h.357a.089.089,0,0,0,.081-.049.229.229,0,0,0,.032-.1V820.2l.438-.195a1.286,1.286,0,0,1,.406-.081.962.962,0,0,1,.227.032.337.337,0,0,1,.162.1.426.426,0,0,1,.1.211,2.073,2.073,0,0,1,.032.357v2.451a.231.231,0,0,0,.032.1.089.089,0,0,0,.081.049h.357a.089.089,0,0,0,.081-.049.23.23,0,0,0,.032-.1V820.65a1.788,1.788,0,0,0-.065-.536,2.967,2.967,0,0,1,.406-.13,1.817,1.817,0,0,1,.39-.049,1.258,1.258,0,0,1,.244.032.391.391,0,0,1,.195.114.6.6,0,0,1,.13.227,1.114,1.114,0,0,1,.049.357v2.4a.172.172,0,0,0,.146.146h.325a.173.173,0,0,0,.146-.146v-2.4a2.065,2.065,0,0,0-.081-.6A.918.918,0,0,0,526.588,819.676Z" transform="translate(-470.391 -806.365)" fill="#2d3985"/>
    <path id="Path_174638" data-name="Path 174638" d="M557.729,819.938a1.221,1.221,0,0,0-.471-.325,1.6,1.6,0,0,0-.649-.114,1.468,1.468,0,0,0-1.12.422,1.666,1.666,0,0,0-.39,1.169v.617a2.2,2.2,0,0,0,.13.8,1.447,1.447,0,0,0,.341.5,1.184,1.184,0,0,0,.487.26,2.18,2.18,0,0,0,.568.081c.227,0,.438-.016.633-.032s.39-.049.584-.081a.388.388,0,0,0,.114-.049.23.23,0,0,0,.032-.1v-.26a.124.124,0,0,0-.032-.081.121.121,0,0,0-.081-.016h-.032a5.315,5.315,0,0,1-.568.049c-.227.016-.438.016-.633.016a.977.977,0,0,1-.714-.243,1.211,1.211,0,0,1-.243-.86v-.1h2.272c.081,0,.13-.049.13-.146v-.373a2.021,2.021,0,0,0-.1-.649A1.09,1.09,0,0,0,557.729,819.938Zm-.227,1.218h-1.8v-.065a1.241,1.241,0,0,1,.227-.812.87.87,0,0,1,.682-.26.858.858,0,0,1,.666.244,1.231,1.231,0,0,1,.227.828v.065Z" transform="translate(-497.783 -806.449)" fill="#2d3985"/>
    <path id="Path_174639" data-name="Path 174639" d="M580.288,819.5a1.878,1.878,0,0,0-.552.081,2.514,2.514,0,0,0-.536.243v-.13a.23.23,0,0,0-.033-.1.115.115,0,0,0-.1-.049h-.341a.14.14,0,0,0-.1.049.119.119,0,0,0-.032.1v3.458a.229.229,0,0,0,.032.1.116.116,0,0,0,.1.049h.341a.172.172,0,0,0,.146-.146V820.3a2.889,2.889,0,0,1,.471-.195,1.491,1.491,0,0,1,.455-.081,1.081,1.081,0,0,1,.341.049.464.464,0,0,1,.227.146.49.49,0,0,1,.13.276,1.634,1.634,0,0,1,.049.438v2.224a.172.172,0,0,0,.146.146h.325a.172.172,0,0,0,.146-.146v-2.24a1.721,1.721,0,0,0-.276-1.039A1.2,1.2,0,0,0,580.288,819.5Z" transform="translate(-517.469 -806.449)" fill="#2d3985"/>
    <path id="Path_174640" data-name="Path 174640" d="M601.443,818.488h-.373a.482.482,0,0,1-.292-.081.537.537,0,0,1-.081-.357v-2.37h.731a.172.172,0,0,0,.146-.146v-.227a.172.172,0,0,0-.146-.146H600.7v-.747a.125.125,0,0,0-.032-.081.123.123,0,0,0-.065-.032h-.016l-.357.049c-.081.016-.13.065-.13.13v.665h-.666a.119.119,0,0,0-.13.13v.179c0,.065.049.114.13.13l.666.081v2.37a1.222,1.222,0,0,0,.065.454.654.654,0,0,0,.162.276.709.709,0,0,0,.292.146,1.582,1.582,0,0,0,.406.032.994.994,0,0,0,.211-.016c.081,0,.162-.016.227-.016.081-.016.13-.049.13-.114v-.244C601.589,818.52,601.54,818.488,601.443,818.488Z" transform="translate(-534.808 -802.093)" fill="#2d3985"/>
    <path id="Path_174641" data-name="Path 174641" d="M628.813,811.919a.955.955,0,0,0-.114-.26.85.85,0,0,0-.178-.162.993.993,0,0,0-.195-.081,1.172,1.172,0,0,0-.39,0,.989.989,0,0,0-.195.081.811.811,0,0,0-.179.162.549.549,0,0,0-.114.26l-1.25,4.431v.049a.1.1,0,0,0,.114.114h.406c.032,0,.049-.016.081-.032.016-.016.032-.049.049-.065l.438-1.558h1.753l.438,1.558c.016.032.016.049.049.065a.124.124,0,0,0,.081.032h.406c.081,0,.114-.032.114-.114v-.049Zm-1.445,2.386.617-2.24c.016-.081.065-.13.13-.13s.114.049.13.13l.617,2.24Z" transform="translate(-557.342 -799.664)" fill="#2d3985"/>
    <path id="Path_174642" data-name="Path 174642" d="M656.276,819.716h-.341a.172.172,0,0,0-.146.146v2.857a2.893,2.893,0,0,1-.471.195,1.493,1.493,0,0,1-.454.081,1.082,1.082,0,0,1-.341-.049.553.553,0,0,1-.227-.146.49.49,0,0,1-.13-.276,2.778,2.778,0,0,1-.049-.438v-2.24a.172.172,0,0,0-.146-.146h-.325a.173.173,0,0,0-.146.146v2.24a1.721,1.721,0,0,0,.276,1.039,1.072,1.072,0,0,0,.893.373,1.877,1.877,0,0,0,.552-.081,2.523,2.523,0,0,0,.536-.243v.13a.231.231,0,0,0,.033.1.116.116,0,0,0,.1.049h.341a.141.141,0,0,0,.1-.049.119.119,0,0,0,.032-.1V819.83a.23.23,0,0,0-.032-.1C656.341,819.732,656.308,819.716,656.276,819.716Z" transform="translate(-580.211 -806.616)" fill="#2d3985"/>
    <path id="Path_174643" data-name="Path 174643" d="M677.343,818.488h-.373a.481.481,0,0,1-.292-.081.535.535,0,0,1-.081-.357v-2.37h.73a.173.173,0,0,0,.146-.146v-.227a.173.173,0,0,0-.146-.146h-.73v-.747a.113.113,0,0,0-.1-.114h-.032l-.357.049c-.081.016-.13.065-.13.13v.665h-.649a.119.119,0,0,0-.13.13v.179c0,.065.049.114.13.13l.666.081v2.37a1.225,1.225,0,0,0,.065.454.655.655,0,0,0,.162.276.708.708,0,0,0,.292.146,1.583,1.583,0,0,0,.406.032,1,1,0,0,0,.211-.016c.081,0,.162-.016.227-.016.081-.016.13-.049.13-.114v-.244C677.489,818.52,677.44,818.488,677.343,818.488Z" transform="translate(-598.388 -802.093)" fill="#2d3985"/>
    <path id="Path_174644" data-name="Path 174644" d="M695.716,812.972a1.259,1.259,0,0,0-.39-.26,1.554,1.554,0,0,0-.5-.081,3.071,3.071,0,0,0-.5.049,1.876,1.876,0,0,0-.536.162v-1.4a.232.232,0,0,0-.032-.1.116.116,0,0,0-.1-.049h-.325a.141.141,0,0,0-.1.049.12.12,0,0,0-.032.1v4.837a.231.231,0,0,0,.032.1.116.116,0,0,0,.1.049h.341a.172.172,0,0,0,.146-.146v-2.938a.857.857,0,0,1,.244-.081,1.508,1.508,0,0,1,.26-.065,1.249,1.249,0,0,1,.244-.033c.081,0,.146-.016.195-.016a.724.724,0,0,1,.536.195.97.97,0,0,1,.195.7v2.24a.172.172,0,0,0,.146.146h.325a.172.172,0,0,0,.146-.146v-2.24a2.534,2.534,0,0,0-.081-.649A3.166,3.166,0,0,0,695.716,812.972Z" transform="translate(-613.466 -799.58)" fill="#2d3985"/>
    <path id="Path_174645" data-name="Path 174645" d="M718.346,819.954a1.4,1.4,0,0,0-.471-.341,1.682,1.682,0,0,0-.665-.114,1.6,1.6,0,0,0-.649.114,1.259,1.259,0,0,0-.471.341,1.486,1.486,0,0,0-.292.519,2.305,2.305,0,0,0-.1.682v.519a2.308,2.308,0,0,0,.1.682,1.354,1.354,0,0,0,.292.519,1.4,1.4,0,0,0,.471.341,1.655,1.655,0,0,0,.649.114,1.738,1.738,0,0,0,.665-.114,1.258,1.258,0,0,0,.471-.341,1.483,1.483,0,0,0,.292-.519,2.3,2.3,0,0,0,.1-.682v-.519a2.3,2.3,0,0,0-.1-.682A1.485,1.485,0,0,0,718.346,819.954Zm-.211,1.721a1.356,1.356,0,0,1-.227.828.817.817,0,0,1-.7.308.778.778,0,0,1-.7-.308,1.425,1.425,0,0,1-.211-.828v-.519a1.358,1.358,0,0,1,.211-.828.818.818,0,0,1,.7-.308.778.778,0,0,1,.7.308,1.424,1.424,0,0,1,.211.828v.519Z" transform="translate(-632.314 -806.449)" fill="#2d3985"/>
    <path id="Path_174646" data-name="Path 174646" d="M740.842,819.5a1.686,1.686,0,0,0-.471.081,1.426,1.426,0,0,0-.487.26v-.146a.233.233,0,0,0-.032-.1.116.116,0,0,0-.1-.049h-.325a.14.14,0,0,0-.1.049.12.12,0,0,0-.032.1v3.458a.229.229,0,0,0,.032.1.116.116,0,0,0,.1.049h.341a.172.172,0,0,0,.146-.146v-2.841a2.578,2.578,0,0,1,.487-.227,1.4,1.4,0,0,1,.454-.065c.1,0,.146-.032.146-.114v-.276A.148.148,0,0,0,740.842,819.5Z" transform="translate(-652.083 -806.449)" fill="#2d3985"/>
    <path id="Path_174647" data-name="Path 174647" d="M754.571,819.8h-.325a.172.172,0,0,0-.146.146V823.4a.172.172,0,0,0,.146.146h.325a.172.172,0,0,0,.146-.146V819.93a.14.14,0,0,0-.049-.1A.231.231,0,0,0,754.571,819.8Z" transform="translate(-664.481 -806.7)" fill="#2d3985"/>
    <path id="Path_174648" data-name="Path 174648" d="M754.487,811.1h-.341a.172.172,0,0,0-.146.146v.536a.172.172,0,0,0,.146.146h.341a.172.172,0,0,0,.146-.146v-.536a.141.141,0,0,0-.049-.1A.1.1,0,0,0,754.487,811.1Z" transform="translate(-664.397 -799.412)" fill="#2d3985"/>
    <path id="Path_174649" data-name="Path 174649" d="M764.326,818.488h-.373a.481.481,0,0,1-.292-.081.535.535,0,0,1-.081-.357v-2.37h.73a.172.172,0,0,0,.146-.146v-.227a.172.172,0,0,0-.146-.146h-.73v-.747a.124.124,0,0,0-.032-.081.123.123,0,0,0-.065-.032h-.016l-.357.049c-.081.016-.13.065-.13.13v.665h-.649a.119.119,0,0,0-.13.13v.179c0,.065.049.114.13.13l.666.081v2.37a1.225,1.225,0,0,0,.065.454.654.654,0,0,0,.162.276.708.708,0,0,0,.292.146,1.582,1.582,0,0,0,.406.032,1,1,0,0,0,.211-.016c.081,0,.162-.016.227-.016.081-.016.13-.049.13-.114v-.244C764.473,818.52,764.424,818.488,764.326,818.488Z" transform="translate(-671.266 -802.093)" fill="#2d3985"/>
    <path id="Path_174650" data-name="Path 174650" d="M781.8,819.716h-.373a.125.125,0,0,0-.081.032c-.016.016-.032.049-.049.065l-.828,3.1h-.114a.1.1,0,0,1-.065-.016.311.311,0,0,1-.065-.13l-.8-2.954a.217.217,0,0,0-.049-.081.123.123,0,0,0-.065-.032h-.373c-.081,0-.13.032-.13.114v.049l.909,3.1a1.251,1.251,0,0,0,.1.244.573.573,0,0,0,.114.146.491.491,0,0,0,.13.065.451.451,0,0,0,.146.016h.1l-.065.276a3.066,3.066,0,0,1-.1.292.509.509,0,0,1-.13.179.356.356,0,0,1-.195.081,1.231,1.231,0,0,1-.26.016,2.3,2.3,0,0,1-.308-.016c-.13-.016-.227-.016-.309-.032h-.016c-.081,0-.13.032-.13.114v.243a.089.089,0,0,0,.049.081.232.232,0,0,0,.1.033c.065.016.162.032.276.049a2.084,2.084,0,0,0,.308.016,2.045,2.045,0,0,0,.487-.049.86.86,0,0,0,.341-.179.732.732,0,0,0,.227-.308,3.622,3.622,0,0,0,.179-.471l1.12-3.912V819.8C781.917,819.765,781.884,819.716,781.8,819.716Z" transform="translate(-685.171 -806.617)" fill="#2d3985"/>
    <path id="Path_174651" data-name="Path 174651" d="M268.1,789.2h-.373a.208.208,0,0,0-.162.065.176.176,0,0,0-.065.146v.519a.2.2,0,0,0,.065.146.208.208,0,0,0,.162.065h.373a.158.158,0,0,0,.146-.065.176.176,0,0,0,.065-.146v-.519a.158.158,0,0,0-.065-.146A.2.2,0,0,0,268.1,789.2Z" transform="translate(-256.868 -781.067)" fill="#2d3985"/>
    <path id="Path_174652" data-name="Path 174652" d="M258.317,790.041a.158.158,0,0,0,.146-.065.176.176,0,0,0,.065-.146v-.52a.158.158,0,0,0-.065-.146.288.288,0,0,0-.162-.065h-.373a.208.208,0,0,0-.162.065.176.176,0,0,0-.065.146v.52a.2.2,0,0,0,.065.146.208.208,0,0,0,.162.065Z" transform="translate(-248.659 -780.984)" fill="#2d3985"/>
    <path id="Path_174653" data-name="Path 174653" d="M288.511,744.841h.406a.208.208,0,0,0,.162-.065.158.158,0,0,0,.065-.146v-.519a.158.158,0,0,0-.065-.146.291.291,0,0,0-.146-.065h-.422a.158.158,0,0,0-.146.065.176.176,0,0,0-.065.146v.519a.176.176,0,0,0,.065.146A.158.158,0,0,0,288.511,744.841Z" transform="translate(-274.291 -743.121)" fill="#2d3985"/>
    <path id="Path_174654" data-name="Path 174654" d="M218.889,760.437c0-.1.016-.195.016-.308s.016-.227.016-.357v-3.247a.189.189,0,0,0-.032-.114c-.016-.033-.065-.049-.13-.065a4.771,4.771,0,0,0-.649-.114c-.26-.016-.519-.032-.779-.032a2.238,2.238,0,0,0-1.623.552,1.969,1.969,0,0,0-.584,1.51v.227a2.327,2.327,0,0,0,.114.812,1.717,1.717,0,0,0,.308.536h-1.266a.791.791,0,0,1-.195-.016,1.1,1.1,0,0,1-.227-.032.546.546,0,0,1-.195-.065.194.194,0,0,1-.114-.114v-2.63a.168.168,0,0,0-.179-.179h-.438a.168.168,0,0,0-.179.179V759.5a.259.259,0,0,1-.065.195.674.674,0,0,1-.179.114c-.065.016-.146.032-.227.049-.081,0-.146.016-.211.016h-4.724a.833.833,0,0,1-.487-.114.569.569,0,0,1-.179-.487v-2.695c0-.049,0-.1-.016-.114-.016-.032-.049-.049-.114-.065s-.146-.032-.243-.049-.195-.033-.308-.049-.211-.016-.325-.033c-.114,0-.211-.016-.292-.016a3.983,3.983,0,0,0-1.006.114,2.175,2.175,0,0,0-.779.373,1.709,1.709,0,0,0-.519.649,2.484,2.484,0,0,0-.179.974v.243a1.912,1.912,0,0,0,.487,1.412,1.844,1.844,0,0,0,1.364.487h.081a2.68,2.68,0,0,0,.747-.1.923.923,0,0,0,.5-.308.886.886,0,0,0,.438.438,1.9,1.9,0,0,0,.73.13h4.707a2.816,2.816,0,0,0,.6-.065,1.307,1.307,0,0,0,.568-.26,1.225,1.225,0,0,0,.568.26,3,3,0,0,0,.633.065h3.587a6.686,6.686,0,0,0,.779-.049A.2.2,0,0,0,218.889,760.437ZM205.871,759.2a.449.449,0,0,1-.081.26.647.647,0,0,1-.195.162,1.372,1.372,0,0,1-.276.081,1.777,1.777,0,0,1-.292.016h-.179a1.048,1.048,0,0,1-.877-.325,1.36,1.36,0,0,1-.26-.893v-.195a1.427,1.427,0,0,1,.114-.633,1.161,1.161,0,0,1,.325-.406,1.477,1.477,0,0,1,.487-.211,3.793,3.793,0,0,1,.633-.065,1.657,1.657,0,0,1,.276.016,2.96,2.96,0,0,1,.341.032V759.2Zm12.239.633a3.959,3.959,0,0,1-.455.016h-.487a1.146,1.146,0,0,1-.941-.357,1.521,1.521,0,0,1-.308-1.006v-.211a1.333,1.333,0,0,1,.341-.99,1.373,1.373,0,0,1,1.006-.341,4.087,4.087,0,0,1,.454.016,3.163,3.163,0,0,1,.39.032Z" transform="translate(-202.754 -753.424)" fill="#2d3985"/>
    <path id="Path_174655" data-name="Path 174655" d="M337.643,747.341h.373a.223.223,0,0,0,.211-.211v-.519a.159.159,0,0,0-.065-.146A.289.289,0,0,0,338,746.4h-.373a.208.208,0,0,0-.162.065.177.177,0,0,0-.065.146v.519a.176.176,0,0,0,.065.146A.4.4,0,0,0,337.643,747.341Z" transform="translate(-315.421 -745.215)" fill="#2d3985"/>
    <path id="Path_174656" data-name="Path 174656" d="M347.427,747.341h.373a.223.223,0,0,0,.211-.211v-.519a.159.159,0,0,0-.065-.146.292.292,0,0,0-.146-.065h-.373a.209.209,0,0,0-.162.065.176.176,0,0,0-.065.146v.519a.176.176,0,0,0,.065.146A.342.342,0,0,0,347.427,747.341Z" transform="translate(-323.63 -745.215)" fill="#2d3985"/>
    <path id="Path_174657" data-name="Path 174657" d="M316.115,746.575c.114-.016.227-.016.308-.033a.8.8,0,0,0,.227-.049c.081-.032.13-.065.146-.114a.486.486,0,0,0,.065-.162c.016-.081.016-.162.033-.26,0-.1.016-.195.016-.292v-6.087a.168.168,0,0,0-.179-.179h-.471a.168.168,0,0,0-.179.179v5.844c0,.162-.016.26-.065.292a.774.774,0,0,1-.357.049h-.86a.79.79,0,0,1-.195-.016,1.1,1.1,0,0,1-.227-.033.549.549,0,0,1-.195-.065.194.194,0,0,1-.114-.114v-5.957a.168.168,0,0,0-.179-.179h-.471a.168.168,0,0,0-.179.179v5.844a.259.259,0,0,1-.065.195.665.665,0,0,1-.179.114c-.065.016-.146.033-.227.049-.081,0-.146.016-.211.016h-.584a.787.787,0,0,1-.195-.016,1.092,1.092,0,0,1-.227-.032.547.547,0,0,1-.195-.065.194.194,0,0,1-.114-.113v-2.662a.168.168,0,0,0-.179-.179h-.438a.168.168,0,0,0-.179.179v2.516a.259.259,0,0,1-.065.195.664.664,0,0,1-.179.114c-.065.016-.146.033-.227.049-.081,0-.146.016-.211.016H306.44v-2.889a.184.184,0,0,0-.049-.13.147.147,0,0,0-.114-.049h-.471a.168.168,0,0,0-.179.179v4.253a2.1,2.1,0,0,1-.049.5.485.485,0,0,1-.179.276.654.654,0,0,1-.325.13,4.221,4.221,0,0,1-.519.032h-.195c-.114,0-.162.049-.162.13v.406a.137.137,0,0,0,.032.1.355.355,0,0,0,.13.049c.065.016.146.016.26.032.1,0,.179.016.211.016a2.662,2.662,0,0,0,.893-.13,1.078,1.078,0,0,0,.536-.471,1.665,1.665,0,0,0,.146-.454,3.155,3.155,0,0,0,.032-.568v-.617h3.214a2.806,2.806,0,0,0,.6-.065,1.305,1.305,0,0,0,.568-.26,1.224,1.224,0,0,0,.568.26,2.986,2.986,0,0,0,.633.065h.487a2.8,2.8,0,0,0,.6-.065,1.305,1.305,0,0,0,.568-.26,1.01,1.01,0,0,0,.26.162.973.973,0,0,0,.308.1l.325.049a2.062,2.062,0,0,0,.308.016h.941C315.887,746.591,316,746.575,316.115,746.575Z" transform="translate(-287.61 -739.351)" fill="#2d3985"/>
    <path id="Path_174658" data-name="Path 174658" d="M420.527,745.041h.373a.223.223,0,0,0,.211-.211v-.519a.158.158,0,0,0-.065-.146.29.29,0,0,0-.146-.065h-.373a.209.209,0,0,0-.162.065.176.176,0,0,0-.065.146v.519a.176.176,0,0,0,.065.146A.287.287,0,0,0,420.527,745.041Z" transform="translate(-384.865 -743.288)" fill="#2d3985"/>
    <path id="Path_174659" data-name="Path 174659" d="M410.827,745.041h.373a.223.223,0,0,0,.211-.211v-.519a.158.158,0,0,0-.065-.146.288.288,0,0,0-.162-.065h-.357a.209.209,0,0,0-.162.065.176.176,0,0,0-.065.146v.519a.176.176,0,0,0,.065.146A.287.287,0,0,0,410.827,745.041Z" transform="translate(-376.739 -743.288)" fill="#2d3985"/>
    <path id="Path_174660" data-name="Path 174660" d="M420.707,760.458a2.181,2.181,0,0,0,.455-1.51v-.487a2.11,2.11,0,0,0-.487-1.51,1.916,1.916,0,0,0-1.445-.519,1.963,1.963,0,0,0-1.477.536,2.1,2.1,0,0,0-.519,1.51v.925a1.29,1.29,0,0,1-.032.276.266.266,0,0,1-.114.179.37.37,0,0,1-.195.1.5.5,0,0,1-.211.049c-.065,0-.13.016-.179.016h-6.655a.833.833,0,0,1-.487-.114.569.569,0,0,1-.179-.487v-2.695c0-.049,0-.1-.016-.114-.016-.032-.049-.049-.114-.065s-.146-.032-.243-.049-.195-.032-.308-.049c-.1-.016-.211-.016-.325-.033-.114,0-.211-.016-.292-.016a3.988,3.988,0,0,0-1.006.114,2.179,2.179,0,0,0-.779.373,1.708,1.708,0,0,0-.519.649,2.485,2.485,0,0,0-.179.974v.243a1.913,1.913,0,0,0,.487,1.412,1.843,1.843,0,0,0,1.363.487h.081a2.685,2.685,0,0,0,.747-.1.923.923,0,0,0,.5-.309.886.886,0,0,0,.438.438,1.9,1.9,0,0,0,.73.13h6.623a2.487,2.487,0,0,0,.73-.1.9.9,0,0,0,.5-.357,1.352,1.352,0,0,0,.649.455,2.8,2.8,0,0,0,.942.146A1.846,1.846,0,0,0,420.707,760.458Zm-12.3-1.088a.449.449,0,0,1-.081.26.649.649,0,0,1-.195.162,1.375,1.375,0,0,1-.276.081,1.765,1.765,0,0,1-.292.016h-.179a1.048,1.048,0,0,1-.877-.325,1.36,1.36,0,0,1-.26-.893v-.195a1.426,1.426,0,0,1,.114-.633,1.16,1.16,0,0,1,.325-.406,1.475,1.475,0,0,1,.487-.211,3.8,3.8,0,0,1,.633-.065,1.663,1.663,0,0,1,.276.016,2.988,2.988,0,0,1,.341.032v2.159Zm9.691.13a2.629,2.629,0,0,1-.032-.536v-.422a1.616,1.616,0,0,1,.276-1.007,1.1,1.1,0,0,1,.909-.357.972.972,0,0,1,.877.357,1.77,1.77,0,0,1,.26,1.007v.357a1.5,1.5,0,0,1-.26,1.006,1.16,1.16,0,0,1-.893.308,1.535,1.535,0,0,1-.73-.146A.769.769,0,0,1,418.094,759.5Z" transform="translate(-372.383 -753.592)" fill="#2d3985"/>
    <path id="Path_174661" data-name="Path 174661" d="M522.787,746.129a.487.487,0,0,0,.065-.162c.016-.081.016-.162.032-.26,0-.1.016-.195.016-.292v-6.087a.168.168,0,0,0-.179-.179h-.471a.168.168,0,0,0-.179.179v5.844c0,.162-.016.26-.065.292a.775.775,0,0,1-.357.049h-1.932a1.066,1.066,0,0,0,.26-.276,2.21,2.21,0,0,0,.211-.39,2.1,2.1,0,0,0,.13-.455,2.321,2.321,0,0,0,.049-.471v-.179a1.957,1.957,0,0,0-.162-.844,1.784,1.784,0,0,0-.438-.584,1.9,1.9,0,0,0-.682-.325,3.56,3.56,0,0,0-.86-.114,3.225,3.225,0,0,0-.568.049,5.466,5.466,0,0,0-.552.13,2.176,2.176,0,0,0-.487.195,2.321,2.321,0,0,0-.39.26.361.361,0,0,0-.162.243l-.016.276v.081a.7.7,0,0,0,.016.081l.909,2.305h-3.8a1.475,1.475,0,0,1-.276-.016.354.354,0,0,1-.195-.081.441.441,0,0,1-.13-.162.818.818,0,0,1-.049-.309v-5.633a.184.184,0,0,0-.049-.13.2.2,0,0,0-.13-.065h-.471a.147.147,0,0,0-.13.065.184.184,0,0,0-.049.13v5.811a2.064,2.064,0,0,0,.081.6.832.832,0,0,0,.243.373.885.885,0,0,0,.39.195,2.517,2.517,0,0,0,.536.049h8.8c.13,0,.244-.016.357-.016.114-.016.227-.016.308-.032a.792.792,0,0,0,.227-.049A.236.236,0,0,0,522.787,746.129Zm-3.214-2.191a1.927,1.927,0,0,1-.276,1.023,1.215,1.215,0,0,1-.779.552H517.8L516.829,743a1.976,1.976,0,0,1,.747-.308,3.487,3.487,0,0,1,.649-.065,1.629,1.629,0,0,1,.99.276,1.076,1.076,0,0,1,.357.909Z" transform="translate(-461.428 -739.1)" fill="#2d3985"/>
    <path id="Path_174662" data-name="Path 174662" d="M590.878,746.423h.471a.148.148,0,0,0,.13-.065.185.185,0,0,0,.049-.13v-6.834a.185.185,0,0,0-.049-.13.2.2,0,0,0-.13-.065h-.471a.147.147,0,0,0-.13.065.184.184,0,0,0-.049.13v6.834a.184.184,0,0,0,.049.13A.148.148,0,0,0,590.878,746.423Z" transform="translate(-527.604 -739.184)" fill="#2d3985"/>
    <path id="Path_174663" data-name="Path 174663" d="M634.327,745.041h.373a.223.223,0,0,0,.211-.211v-.519a.158.158,0,0,0-.065-.146.291.291,0,0,0-.146-.065h-.373a.209.209,0,0,0-.162.065.176.176,0,0,0-.065.146v.519a.176.176,0,0,0,.065.146A.342.342,0,0,0,634.327,745.041Z" transform="translate(-563.96 -743.288)" fill="#2d3985"/>
    <path id="Path_174664" data-name="Path 174664" d="M624.543,745.041h.373a.223.223,0,0,0,.211-.211v-.519a.158.158,0,0,0-.065-.146.287.287,0,0,0-.162-.065h-.373a.208.208,0,0,0-.162.065.176.176,0,0,0-.065.146v.519a.176.176,0,0,0,.065.146A.4.4,0,0,0,624.543,745.041Z" transform="translate(-555.75 -743.288)" fill="#2d3985"/>
    <path id="Path_174665" data-name="Path 174665" d="M676.995,743.7h1.3c.049,0,.1,0,.114-.016a.1.1,0,0,0,.049-.1v-.146c0-.081-.049-.114-.162-.114h-.649a.487.487,0,0,1-.146-.162.645.645,0,0,1-.065-.325c0-.292.162-.438.5-.438h.292c.081,0,.13-.032.13-.1v-.146c0-.049-.032-.1-.114-.114-.065-.016-.13-.016-.195-.032-.065,0-.114-.016-.179-.016a1.016,1.016,0,0,0-.665.195.694.694,0,0,0-.227.584,1.782,1.782,0,0,0,.032.292.781.781,0,0,0,.13.26h-.162c-.114,0-.179.033-.179.1v.162C676.832,743.672,676.881,743.7,676.995,743.7Z" transform="translate(-599.728 -741.529)" fill="#2d3985"/>
    <path id="Path_174666" data-name="Path 174666" d="M704.417,790.041a.158.158,0,0,0,.146-.065.176.176,0,0,0,.065-.146v-.52a.158.158,0,0,0-.065-.146.288.288,0,0,0-.162-.065h-.373a.209.209,0,0,0-.162.065.176.176,0,0,0-.065.146v.52a.2.2,0,0,0,.065.146.208.208,0,0,0,.162.065Z" transform="translate(-622.346 -780.984)" fill="#2d3985"/>
    <path id="Path_174667" data-name="Path 174667" d="M714.363,790.076a.177.177,0,0,0,.065-.146v-.519a.158.158,0,0,0-.065-.146.291.291,0,0,0-.146-.065h-.39a.208.208,0,0,0-.162.065.176.176,0,0,0-.065.146v.519a.2.2,0,0,0,.065.146.209.209,0,0,0,.162.065h.373A.489.489,0,0,0,714.363,790.076Z" transform="translate(-630.555 -781.067)" fill="#2d3985"/>
    <path id="Path_174668" data-name="Path 174668" d="M645.591,745.666v-6.087a.168.168,0,0,0-.179-.179h-.471a.168.168,0,0,0-.179.179v5.844c0,.162-.016.26-.065.292a.776.776,0,0,1-.357.049h-1.12a3.272,3.272,0,0,0-.406.016,1.419,1.419,0,0,0-.308.081.7.7,0,0,0-.373.487.571.571,0,0,0-.016.1c0,.049-.016.1-.016.162a.555.555,0,0,1-.016.162v.113a2.078,2.078,0,0,1-.243,1.039.958.958,0,0,1-.844.325.972.972,0,0,1-.877-.357,2.021,2.021,0,0,1-.227-1.071v-.244h.406c.146,0,.292-.016.438-.016.146-.016.276-.016.422-.032a1.809,1.809,0,0,0,.341-.065,1.71,1.71,0,0,0,1.055-.8,2.839,2.839,0,0,0,.341-1.445v-.146a1.75,1.75,0,0,0-.584-1.461,2.625,2.625,0,0,0-1.607-.455c-.244,0-.487.016-.714.032a3.858,3.858,0,0,0-.649.114c-.146.033-.227.114-.227.244v3.2h-3.247a.786.786,0,0,1-.195-.016,1.091,1.091,0,0,1-.227-.032.55.55,0,0,1-.195-.065.194.194,0,0,1-.114-.114v-2.613a.168.168,0,0,0-.179-.179h-.438a.168.168,0,0,0-.178.179v2.516a.258.258,0,0,1-.065.195.665.665,0,0,1-.179.114c-.065.016-.146.033-.227.049-.081,0-.146.016-.211.016h-2.581a.79.79,0,0,1-.195-.016,1.092,1.092,0,0,1-.227-.032.548.548,0,0,1-.195-.065.194.194,0,0,1-.114-.113v-2.662a.168.168,0,0,0-.179-.179h-.438a.168.168,0,0,0-.179.179v2.516a.258.258,0,0,1-.065.195.664.664,0,0,1-.179.114c-.065.016-.146.033-.227.049-.081,0-.146.016-.211.016h-4.724a.83.83,0,0,1-.487-.114.568.568,0,0,1-.179-.487V742.5a.914.914,0,0,0-.016-.114c-.016-.032-.049-.049-.114-.065s-.146-.032-.243-.049-.195-.032-.308-.049c-.1-.016-.211-.016-.325-.032-.114,0-.211-.016-.292-.016a3.981,3.981,0,0,0-1.006.114,2.175,2.175,0,0,0-.779.373,1.709,1.709,0,0,0-.52.649,2.485,2.485,0,0,0-.179.974v.243a1.912,1.912,0,0,0,.487,1.412,1.843,1.843,0,0,0,1.364.487h.081a2.683,2.683,0,0,0,.747-.1.923.923,0,0,0,.5-.308.885.885,0,0,0,.438.438,1.9,1.9,0,0,0,.73.13h4.724a2.813,2.813,0,0,0,.6-.065,1.307,1.307,0,0,0,.568-.26,1.226,1.226,0,0,0,.568.26,2.993,2.993,0,0,0,.633.065h2.451a2.813,2.813,0,0,0,.6-.065,1.306,1.306,0,0,0,.568-.26,1.227,1.227,0,0,0,.568.26,2.994,2.994,0,0,0,.633.065h3.23v.308a3.617,3.617,0,0,0,.1.877,1.681,1.681,0,0,0,.308.666,1.432,1.432,0,0,0,.584.422,2.511,2.511,0,0,0,.925.146,1.731,1.731,0,0,0,1.4-.519,2.507,2.507,0,0,0,.454-1.526l.016-.357c.032,0,.114-.016.227-.016h1.347c.13,0,.244-.016.357-.016.114-.016.227-.016.308-.032a.793.793,0,0,0,.227-.049c.081-.033.13-.065.146-.114a.483.483,0,0,0,.065-.162c.016-.081.016-.162.033-.26A.277.277,0,0,1,645.591,745.666Zm-5.681-2.695a2.914,2.914,0,0,1,.357-.032c.114,0,.26-.016.438-.016a2.027,2.027,0,0,1,.568.065,1.073,1.073,0,0,1,.438.195.94.94,0,0,1,.276.373,1.43,1.43,0,0,1,.1.568v.179a1.64,1.64,0,0,1-.325,1.087,1.34,1.34,0,0,1-1.087.373h-.763Zm-17.271,2.159a.45.45,0,0,1-.081.26.648.648,0,0,1-.195.162,1.367,1.367,0,0,1-.276.081,1.763,1.763,0,0,1-.292.016h-.179a1.048,1.048,0,0,1-.877-.325,1.361,1.361,0,0,1-.26-.893v-.195a1.427,1.427,0,0,1,.114-.633,1.159,1.159,0,0,1,.325-.406,1.476,1.476,0,0,1,.487-.211,3.792,3.792,0,0,1,.633-.065,1.675,1.675,0,0,1,.276.016,2.975,2.975,0,0,1,.341.032v2.159Z" transform="translate(-551.897 -739.351)" fill="#2d3985"/>
    <path id="Path_174669" data-name="Path 174669" d="M789.479,746.423h.471a.148.148,0,0,0,.13-.065.184.184,0,0,0,.049-.13v-6.834a.185.185,0,0,0-.049-.13.2.2,0,0,0-.13-.065h-.471a.148.148,0,0,0-.13.065.184.184,0,0,0-.049.13v6.834a.184.184,0,0,0,.049.13A.132.132,0,0,0,789.479,746.423Z" transform="translate(-693.967 -739.184)" fill="#2d3985"/>
  </g>
  <g id="Group_43118" data-name="Group 43118" transform="translate(2.435 0)">
    <g id="Group_43116" data-name="Group 43116" transform="translate(33.406 31.41)">
      <path id="Path_174670" data-name="Path 174670" d="M441.662,443.181h0l-2.873-1.347.179-.357-.357-.179-.227.341-1.932-.893-.99-.471-.292-.146-.308-.146h-.032l-1.023-.487-.1-.049-.211-.1-.308-.146-.26-.114-.357-.179-2.062-.974-.536-.243-.292-.146-2.5-1.169-.7-.325-1.088-.5-.958-.454-.195-.1-1.071.1-.373.016,1.7.844,1.363.665.942.455,1.883.925.617.308,1.2.584,1.623.8h.016l.292.146.292.146,1.071.519.292.146.292.146h0l2.24,1.088.032.033.422.081.584.114.26.26-.292.454.52.26.162-.325,2.873,1.412Z" transform="translate(-422.8 -420.001)" fill="#50aeb2"/>
      <g id="Group_43115" data-name="Group 43115" transform="translate(0.26)">
        <g id="Group_43114" data-name="Group 43114">
          <path id="Path_174671" data-name="Path 174671" d="M495.125,348.246l1.185-1.1.455-1.088.146-.325-.146-.033-.26-.032-.519-.065-1.185,2.646.049.26Z" transform="translate(-483.372 -345.113)" fill="#50aeb2"/>
          <path id="Path_174672" data-name="Path 174672" d="M486.4,402.981l.536-.244v-9.756l-.779-.682h-.146l-.812.763v9.674l.877.406Z" transform="translate(-475.331 -384.232)" fill="#50aeb2"/>
          <path id="Path_174673" data-name="Path 174673" d="M450.065,395.776l.13-.13,1.006-.941.812-.763.877-.828.73-.7V392.4l-.779.016-1.364.016h-.617l-1.786,1.656-.779.714-.195.844-.568,2.435-.033.114.081-.081Z" transform="translate(-443.75 -384.316)" fill="#50aeb2"/>
          <path id="Path_174674" data-name="Path 174674" d="M497.5,344.954l-.471.422-.471.438-.86.8.049.276.438-.179.341-.146.341-.146.649-.26,2.354-.974,2.191-2.078-2.029-.5-2.516,2.321Z" transform="translate(-484.126 -342.6)" fill="#50aeb2"/>
          <path id="Path_174675" data-name="Path 174675" d="M499.482,356.717l-.682.276-1.282.536-.942.39-.341.146-.341.146-.195.081.114.1.114.1h.13l.292-.016h.893l.276-.016h.5l2.37-.032h.341l1.12-.438,2.824-1.1-1.607-.958-.081-.049-.6-.373-2.224.925Z" transform="translate(-484.126 -353.406)" fill="#50aeb2"/>
          <path id="Path_174676" data-name="Path 174676" d="M475.915,349.876l.065-.373-1.071-2.4-.909.13.649,1.558Z" transform="translate(-465.949 -346.369)" fill="#50aeb2"/>
          <path id="Path_174677" data-name="Path 174677" d="M507.958,376.4l-2.354.033-.5.016h-.747l-.26.016h-.5l-1.8.032h-.844l-.146.016.081.049.195.179.195.179.373.308.146.13.081.065.227.195.39.341.519.438,1.558-.032,2.776-.032,2.581-.049-1.25-1.2Z" transform="translate(-488.398 -370.913)" fill="#50aeb2"/>
          <path id="Path_174678" data-name="Path 174678" d="M431.69,379.6h.747l.244-.016,1.656-.016-1.152-.438-.276-.1-.276-.114-.195-.065-3.019-1.152-1.445.032h-.649l-2.224,1.98,3.993-.065Z" transform="translate(-424.986 -372.002)" fill="#50aeb2"/>
          <path id="Path_174679" data-name="Path 174679" d="M428.929,358.584l.666.26.665.243,1.591.6.633.243.26.1.276.1.99.373.195.081-.162-.13-.7-.617-.195-.179-.195-.179-.487-.422-.292-.26-.292-.26-.033-.016-1.883-1.64-3.3-1.38-1.023.617-1.25.763,2.159.812Z" transform="translate(-424.4 -353.406)" fill="#50aeb2"/>
          <path id="Path_174680" data-name="Path 174680" d="M488.943,360.461l.016.016.114.1.065.049.016.016h.195l-.016-.146-.016-.032-.016-.114-.032-.195-.049-.276-.065-.471L489.09,359h-.195l-.049.39-.081.487-.065.373.049.049Z" transform="translate(-478.263 -356.338)" fill="#50aeb2"/>
          <path id="Path_174681" data-name="Path 174681" d="M447.965,347.328l.617.536.357.308.812.714.292.26.292.26.081.081.195.179.195.179.536.471.016.016h0l.341.292h.016v.016l.13.114.1.081.227.195.049.032.1.081.033.016.081.065.016.016.065.049.114.1.049.032.13.114.292.26h0l.73.633,1.071.941,1.1.958.227.195.308.276.308.276,1.364,1.185.99.877.276.243-.081-.325-.065-.243-.471-1.737-.292-1.055-.438-.39-.179-.162-1.023-.877-1.006-.86-.308-.26-.308-.26-.114-.1-.308-.26-.26-.227-.211-.13-.227-.195-.195-.162-.195-.179-.195-.179-.195-.179-.211-.179-.081-.065-.13-.114-.162-.146-.1-.1-.162-.146h-.016l-.016-.016h0l-.195-.162-.016-.016h0l-.1-.081h0l-.114-.1-.081-.081h0l-.1-.081-.1-.081-.032-.016-.162-.13-.227-.195-.714-.617-.455-.39-.454-.39-.195-.162-.617-.536-2.159-1.8-2.013.568,2.532,2.224Z" transform="translate(-441.489 -343.773)" fill="#50aeb2"/>
          <path id="Path_174682" data-name="Path 174682" d="M448.384,467.5l-.39.179-1.234.584-1.3.6-.211-.341-.357.179.179.357-2.873,1.347.455.99,2.873-1.412.162.325.536-.26-.292-.455.243-.26.584-.114.422-.081.049-.033,2.224-1.088Z" transform="translate(-439.311 -447.226)" fill="#50aeb2"/>
          <path id="Path_174683" data-name="Path 174683" d="M495.439,439.691l.99-.487,1.7-.828,2.061-1.023,4.578-2.24-.357-.016-1.088-.1-.179.1-3.344,1.558-2.63,1.234-.747.357-1.785.844-.244.114.244.114Z" transform="translate(-483.037 -420.001)" fill="#50aeb2"/>
        </g>
      </g>
    </g>
    <g id="Group_43117" data-name="Group 43117">
      <path id="Path_174684" data-name="Path 174684" d="M355.7,407.3h-5.649q-.049.8-.049,1.607a22.251,22.251,0,0,0,.308,3.766h5.746a16.949,16.949,0,0,1-.422-3.766A13.294,13.294,0,0,1,355.7,407.3Z" transform="translate(-328.411 -365.388)" fill="#eb2253"/>
      <path id="Path_174685" data-name="Path 174685" d="M635.992,408.823a24.209,24.209,0,0,1-.292,3.766h7.564a31.433,31.433,0,0,0,.26-4.123c0-.422-.016-.844-.032-1.266h-7.564C635.976,407.752,635.992,408.288,635.992,408.823Z" transform="translate(-567.735 -365.304)" fill="#eb2253"/>
      <path id="Path_174686" data-name="Path 174686" d="M293.232,407.3c-.016.422-.032.844-.032,1.266a34.914,34.914,0,0,0,.26,4.123h8.068a24.208,24.208,0,0,1-.292-3.766q0-.8.049-1.607h-8.051Z" transform="translate(-280.831 -365.388)" fill="#eb2253"/>
      <path id="Path_174687" data-name="Path 174687" d="M594.3,412.673h5.551a22.244,22.244,0,0,0,.308-3.766q0-.8-.049-1.607h-5.454c.049.536.081,1.071.081,1.607A17.833,17.833,0,0,1,594.3,412.673Z" transform="translate(-533.055 -365.388)" fill="#eb2253"/>
      <path id="Path_174688" data-name="Path 174688" d="M711.125,412.673V407.3h-8.814c.016.422.033.844.033,1.266a34.909,34.909,0,0,1-.244,4.123h9.025Z" transform="translate(-623.356 -365.388)" fill="#eb2253"/>
      <path id="Path_174689" data-name="Path 174689" d="M226.2,408.566c0-.422.016-.844.032-1.266H217v5.373h9.447A34.44,34.44,0,0,1,226.2,408.566Z" transform="translate(-217 -365.388)" fill="#eb2253"/>
      <path id="Path_174690" data-name="Path 174690" d="M309.6,323.513a23.883,23.883,0,0,1,3.23-7.077l-7.4-3.636a31.672,31.672,0,0,0-3.23,7.077Z" transform="translate(-288.37 -286.227)" fill="#f68c22"/>
      <path id="Path_174691" data-name="Path 174691" d="M357.514,338.3a22.348,22.348,0,0,0-3.214,7.077l5.211,2.565a17.106,17.106,0,0,1,3.117-7.126Z" transform="translate(-332.013 -307.588)" fill="#f68c22"/>
      <path id="Path_174692" data-name="Path 174692" d="M611.236,464a23.857,23.857,0,0,1-3.636,6.866l6.72,3.3a32,32,0,0,0,3.636-6.866Z" transform="translate(-544.196 -412.884)" fill="#f68c22"/>
      <path id="Path_174693" data-name="Path 174693" d="M669.93,493.925a35.157,35.157,0,0,1-3.23,5.957l15.242,7.483,3.425-6.98L670.3,493C670.19,493.308,670.06,493.617,669.93,493.925Z" transform="translate(-593.703 -437.177)" fill="#f68c22"/>
      <path id="Path_174694" data-name="Path 174694" d="M235.4,284.323a33.423,33.423,0,0,1,2.256-4.431l-9.528-4.691-3.425,6.98,9.723,4.772Q234.837,285.637,235.4,284.323Z" transform="translate(-223.45 -254.731)" fill="#f68c22"/>
      <path id="Path_174695" data-name="Path 174695" d="M575.032,455.1a22.582,22.582,0,0,0,3.652-6.866l-4.951-2.435A17.192,17.192,0,0,1,570,452.618Z" transform="translate(-512.699 -397.638)" fill="#f68c22"/>
      <path id="Path_174696" data-name="Path 174696" d="M546.8,535.206l3.587,5.828,5.811-3.571L552.66,531.7A23.684,23.684,0,0,1,546.8,535.206Z" transform="translate(-493.265 -469.595)" fill="#ffc10e"/>
      <path id="Path_174697" data-name="Path 174697" d="M527.938,504.714a22.863,22.863,0,0,0,5.86-3.49l-2.906-4.724A17.44,17.44,0,0,1,525,499.941Z" transform="translate(-475.004 -440.108)" fill="#ffc10e"/>
      <path id="Path_174698" data-name="Path 174698" d="M379.472,249.428,375.511,243l-5.811,3.571,4.009,6.525A23.436,23.436,0,0,1,379.472,249.428Z" transform="translate(-344.913 -227.758)" fill="#ffc10e"/>
      <path id="Path_174699" data-name="Path 174699" d="M403.946,288.7a22.533,22.533,0,0,0-5.746,3.652l3,4.87a17.162,17.162,0,0,1,5.714-3.7Z" transform="translate(-368.787 -266.039)" fill="#ffc10e"/>
      <path id="Path_174700" data-name="Path 174700" d="M466.5,628.8v8.538h6.785v-8.506c-1.055.1-2.11.146-3.182.146A29.436,29.436,0,0,1,466.5,628.8Z" transform="translate(-426 -550.933)" fill="#2d3985"/>
      <path id="Path_174701" data-name="Path 174701" d="M473.185,282.679v-5.584a22.141,22.141,0,0,0-2.938-.195,23.368,23.368,0,0,0-3.847.325v5.665a17.488,17.488,0,0,1,3.945-.455A18.124,18.124,0,0,1,473.185,282.679Z" transform="translate(-425.916 -256.155)" fill="#2d3985"/>
      <path id="Path_174702" data-name="Path 174702" d="M466.5,562.7v7.548a32.959,32.959,0,0,0,3.587.195,29.626,29.626,0,0,0,3.182-.162V562.83a25.262,25.262,0,0,1-2.938.179A23.029,23.029,0,0,1,466.5,562.7Z" transform="translate(-426 -495.562)" fill="#2d3985"/>
      <path id="Path_174703" data-name="Path 174703" d="M466.5,520.6v5.681a23.213,23.213,0,0,0,3.847.325,22.151,22.151,0,0,0,2.938-.195v-5.584a18.114,18.114,0,0,1-2.841.243A18.469,18.469,0,0,1,466.5,520.6Z" transform="translate(-426 -460.296)" fill="#2d3985"/>
      <path id="Path_174704" data-name="Path 174704" d="M473.269,228.111v-8.149c-1.055-.1-2.11-.162-3.182-.162a32.753,32.753,0,0,0-3.587.195v8.246a25.27,25.27,0,0,1,3.847-.308A21.889,21.889,0,0,1,473.269,228.111Z" transform="translate(-426 -208.324)" fill="#2d3985"/>
      <path id="Path_174705" data-name="Path 174705" d="M473.185,157.541V149.1H466.4v8.473c1.185-.114,2.386-.179,3.587-.179C471.075,157.395,472.13,157.443,473.185,157.541Z" transform="translate(-425.916 -149.1)" fill="#2d3985"/>
      <path id="Path_174706" data-name="Path 174706" d="M529.114,288.746a22.86,22.86,0,0,0-5.957-3.247l-2.857,4.821a17.346,17.346,0,0,1,6.022,3.133Z" transform="translate(-471.067 -263.359)" fill="#52b1b5"/>
      <path id="Path_174707" data-name="Path 174707" d="M400.154,491.9l-2.954,4.983a22.391,22.391,0,0,0,5.7,3.685l2.889-4.87A17.421,17.421,0,0,1,400.154,491.9Z" transform="translate(-367.949 -436.255)" fill="#52b1b5"/>
      <path id="Path_174708" data-name="Path 174708" d="M369.1,535.372a31.588,31.588,0,0,0,5.779,3.555l3.88-6.542a23.613,23.613,0,0,1-5.7-3.685Z" transform="translate(-344.41 -467.082)" fill="#52b1b5"/>
      <path id="Path_174709" data-name="Path 174709" d="M582.976,186l4.172-7.045L581.32,175.5l-4.22,7.126c.195.081.39.179.584.26A35.1,35.1,0,0,1,582.976,186Z" transform="translate(-518.647 -171.215)" fill="#52b1b5"/>
      <path id="Path_174710" data-name="Path 174710" d="M331.4,594.264l5.828,3.457,4.448-7.483A34.441,34.441,0,0,1,335.9,586.7Z" transform="translate(-312.83 -515.667)" fill="#52b1b5"/>
      <path id="Path_174711" data-name="Path 174711" d="M551.532,239.576a31.13,31.13,0,0,0-5.876-3.376l-4.156,7a24.143,24.143,0,0,1,5.957,3.246Z" transform="translate(-488.826 -222.061)" fill="#52b1b5"/>
      <path id="Path_174712" data-name="Path 174712" d="M567.181,326.155l4.2-3.539a22.1,22.1,0,0,0-1.656-2.078c-.325-.357-.649-.7-.99-1.039l-4.139,3.49A17.2,17.2,0,0,1,567.181,326.155Z" transform="translate(-508.176 -291.84)" fill="#02a586"/>
      <path id="Path_174713" data-name="Path 174713" d="M595.5,292.131c.325.325.649.666.958,1.006a25.783,25.783,0,0,1,1.688,2.094l5.259-4.415-2.63-3.117Z" transform="translate(-534.06 -265.202)" fill="#02a586"/>
      <path id="Path_174714" data-name="Path 174714" d="M623.737,339.2l7.093-3.1a38.617,38.617,0,0,0-1.769-4.5L622,334.684A29.821,29.821,0,0,1,623.737,339.2Z" transform="translate(-556.259 -301.976)" fill="#a32383"/>
      <path id="Path_174715" data-name="Path 174715" d="M358.7,454.056a35.661,35.661,0,0,0,2.191,4.334l5.129-2.256a16.79,16.79,0,0,1-2.208-4.334Z" transform="translate(-335.699 -402.664)" fill="#a32383"/>
      <path id="Path_174716" data-name="Path 174716" d="M591,358.013a28,28,0,0,0-1.721-4.513l-5.081,2.224a16.849,16.849,0,0,1,1.672,4.529Z" transform="translate(-524.594 -320.321)" fill="#a32383"/>
      <path id="Path_174717" data-name="Path 174717" d="M221.4,500.77l1.883,4.48,11.379-4.983c-.7-1.347-1.347-2.565-2.126-4.367Z" transform="translate(-220.686 -439.606)" fill="#a32383"/>
      <path id="Path_174718" data-name="Path 174718" d="M685.169,297.135l14.009-6.1-2.045-4.431L683.4,292.622a3.772,3.772,0,0,1,.292.617C684.114,294.245,684.569,295.447,685.169,297.135Z" transform="translate(-607.692 -264.28)" fill="#a32383"/>
      <path id="Path_174719" data-name="Path 174719" d="M315.007,468.5l-7.207,3.165c.779,1.786,1.428,3.019,2.159,4.35l7.24-3.165A35.988,35.988,0,0,1,315.007,468.5Z" transform="translate(-293.061 -416.653)" fill="#a32383"/>
    </g>
  </g>
</svg>
