<svg id="project-management" xmlns="http://www.w3.org/2000/svg" width="64.675" height="64.656" viewBox="0 0 64.675 64.656">
  <g id="Group_26791" data-name="Group 26791" transform="translate(0 0.267)">
    <g id="Group_26790" data-name="Group 26790" transform="translate(0)">
      <path id="Path_170311" data-name="Path 170311" d="M63.754,18.764h0l0,0-4.175-.6a1.073,1.073,0,0,1-.493-1.921l3.374-2.53a1.073,1.073,0,0,0,.215-1.5L58.81,7.061a1.073,1.073,0,0,0-1.5-.215l-3.373,2.53a1.073,1.073,0,0,1-1.711-1.01l.6-4.175a1.073,1.073,0,0,0-.91-1.215h0l-6.37-.91a1.073,1.073,0,0,0-1.215.91h0l-.6,4.175a1.073,1.073,0,0,1-1.921.493L39.277,4.271a1.073,1.073,0,0,0-1.5-.215L34.55,6.476a20.764,20.764,0,0,0-4.389,0A20.39,20.39,0,0,0,12.182,24.76c-.029.3-.04.605-.055.907h-.322a1.073,1.073,0,0,0-1.05.859l-.742,3.526L7.044,28a1.073,1.073,0,0,0-1.368.124L2.456,31.346a1.073,1.073,0,0,0-.124,1.367l2.039,2.965L.843,36.42A1.073,1.073,0,0,0,0,37.471v4.293a1.073,1.073,0,0,0,.852,1.051l3.527.742L2.341,46.521a1.073,1.073,0,0,0,.124,1.367l3.219,3.219a1.073,1.073,0,0,0,1.368.124l2.965-2.044.742,3.527a1.073,1.073,0,0,0,1.05.859H16.1a1.073,1.073,0,0,0,1.051-.852l.742-3.527,2.965,2.039a1.073,1.073,0,0,0,1.367-.124l1.667-1.672V52.5a4.279,4.279,0,0,0,2.146,3.7v5.962a4.293,4.293,0,0,0,4.293,4.293h4.293a4.293,4.293,0,0,0,4.293-4.293V56.191a4.279,4.279,0,0,0,2.146-3.7V48.248a5.258,5.258,0,0,1,2.482-4.381,20.594,20.594,0,0,0,2.526-1.932l-1.432-1.6a18.27,18.27,0,0,1-2.261,1.729,7.392,7.392,0,0,0-3.462,6.182V52.5a2.146,2.146,0,0,1-2.146,2.146H28.185A2.146,2.146,0,0,1,26.039,52.5V48.158a7.22,7.22,0,0,0-3.4-6.057,18.189,18.189,0,0,1,9.612-33.59,1.167,1.167,0,0,0-.042.117,1.073,1.073,0,0,0,.2.8L34.94,12.8A1.051,1.051,0,0,1,35,13.988a1.067,1.067,0,0,1-1.073.516l-4.175-.6a1.073,1.073,0,0,0-1.215.91h0l-.911,6.373a1.073,1.073,0,0,0,.91,1.215h0l4.175.6a1.073,1.073,0,0,1,.493,1.921l-3.373,2.529a1.073,1.073,0,0,0-.215,1.5l3.863,5.151a1.073,1.073,0,0,0,1.5.215l3.374-2.529a1.073,1.073,0,0,1,1.705,1.01l-.6,4.175a1.073,1.073,0,0,0,.91,1.215h0l6.375.911a1.189,1.189,0,0,0,.151.01,1.073,1.073,0,0,0,1.063-.921l.6-4.175a1.073,1.073,0,0,1,1.921-.493l2.53,3.373a1.073,1.073,0,0,0,1.5.215l5.151-3.863a1.073,1.073,0,0,0,.215-1.5l-2.529-3.373a1.055,1.055,0,0,1-.064-1.191,1.042,1.042,0,0,1,1.073-.515l4.175.6a1.073,1.073,0,0,0,1.215-.91h0l.91-6.375A1.073,1.073,0,0,0,63.754,18.764ZM28.185,56.788H36.77v2.146H28.185Zm0,4.293H36.77v1.073A2.146,2.146,0,0,1,34.624,64.3H30.331a2.146,2.146,0,0,1-2.146-2.146ZM19.642,42.574a20.284,20.284,0,0,0,1.834,1.336,5.238,5.238,0,0,1,2.162,2.746l-2.3,2.3-2.229-1.537a2.146,2.146,0,0,0-3.318,1.325l-.562,2.68H12.676l-.562-2.675A2.146,2.146,0,0,0,8.8,47.421l-2.23,1.532L4.61,47l1.536-2.228a2.146,2.146,0,0,0-1.324-3.319l-2.675-.563v-2.55l2.675-.563a2.146,2.146,0,0,0,1.325-3.313L4.61,32.232l1.955-1.951L8.8,31.818a2.146,2.146,0,0,0,3.317-1.326L12.3,29.6a20.436,20.436,0,0,0,.851,3.639,6.439,6.439,0,1,0,6.489,9.336Zm-1.667-1.512a4.286,4.286,0,1,1-4.024-5.737h.041A20.324,20.324,0,0,0,17.975,41.062Zm43.8-16.078-3.112-.444a3.219,3.219,0,0,0-3.031,5.119l1.886,2.514-3.434,2.576L52.2,32.235a3.219,3.219,0,0,0-5.763,1.476L46,36.827l-4.249-.607.444-3.112a3.219,3.219,0,0,0-5.119-3.032l-2.514,1.886-2.576-3.434L34.5,26.641a3.219,3.219,0,0,0-1.476-5.763l-3.112-.444.607-4.249,3.112.444a3.219,3.219,0,0,0,3.032-5.119L34.771,8.994l3.434-2.576,1.887,2.514a3.219,3.219,0,0,0,5.763-1.476L46.3,4.345l4.249.606L50.1,8.063a3.219,3.219,0,0,0,5.119,3.031l2.514-1.886,2.576,3.434L57.8,14.529a3.219,3.219,0,0,0,1.476,5.763l3.112.444Z" transform="translate(0 -2.057)" fill="#0a6dca"/>
    </g>
  </g>
  <g id="Group_26793" data-name="Group 26793" transform="translate(37.56 10.209)">
    <g id="Group_26792" data-name="Group 26792" transform="translate(0 0)">
      <path id="Path_170312" data-name="Path 170312" d="M288.585,76.171a8.585,8.585,0,1,0,8.585,8.585A8.585,8.585,0,0,0,288.585,76.171Zm0,15.024a6.439,6.439,0,1,1,6.439-6.439A6.439,6.439,0,0,1,288.585,91.2Z" transform="translate(-280 -76.171)" fill="#0a6dca"/>
    </g>
  </g>
  <g id="Group_26795" data-name="Group 26795" transform="translate(31.405 47.486)">
    <g id="Group_26794" data-name="Group 26794">
      <rect id="Rectangle_5823" data-name="Rectangle 5823" width="2.146" height="3.219" fill="#0a6dca"/>
    </g>
  </g>
  <g id="Group_26797" data-name="Group 26797" transform="translate(17.445 12.237)">
    <g id="Group_26796" data-name="Group 26796">
      <path id="Path_170313" data-name="Path 170313" d="M140.384,116a12.878,12.878,0,0,1-2.174-22.893l-1.147-1.816A15.024,15.024,0,0,0,139.6,118a6.851,6.851,0,0,1,4.4,6.4h2.146A8.979,8.979,0,0,0,140.384,116Z" transform="translate(-130.044 -91.291)" fill="#0a6dca"/>
    </g>
  </g>
  <g id="Group_26799" data-name="Group 26799" transform="translate(52.868 39.974)">
    <g id="Group_26798" data-name="Group 26798">
      <rect id="Rectangle_5824" data-name="Rectangle 5824" width="7.512" height="2.146" fill="#0a6dca"/>
    </g>
  </g>
  <g id="Group_26801" data-name="Group 26801" transform="translate(51.108 45.587)">
    <g id="Group_26800" data-name="Group 26800">
      <rect id="Rectangle_5825" data-name="Rectangle 5825" width="2.146" height="8.381" transform="matrix(0.64, -0.768, 0.768, 0.64, 0, 1.649)" fill="#0a6dca"/>
    </g>
  </g>
  <g id="Group_26803" data-name="Group 26803" transform="translate(46.429 48.559)">
    <g id="Group_26802" data-name="Group 26802">
      <rect id="Rectangle_5826" data-name="Rectangle 5826" width="2.146" height="7.512" fill="#0a6dca"/>
    </g>
  </g>
  <g id="Group_26805" data-name="Group 26805" transform="translate(1.096 16.396)">
    <g id="Group_26804" data-name="Group 26804" transform="translate(0)">
      <rect id="Rectangle_5827" data-name="Rectangle 5827" width="8.849" height="2.145" transform="translate(0 2.146) rotate(-14.035)" fill="#0a6dca"/>
    </g>
  </g>
  <g id="Group_26807" data-name="Group 26807" transform="translate(2.878 5.834)">
    <g id="Group_26806" data-name="Group 26806" transform="translate(0)">
      <rect id="Rectangle_5828" data-name="Rectangle 5828" width="2.145" height="9.231" transform="matrix(0.581, -0.814, 0.814, 0.581, 0, 1.746)" fill="#0a6dca"/>
    </g>
  </g>
  <g id="Group_26809" data-name="Group 26809" transform="translate(12.073)">
    <g id="Group_26808" data-name="Group 26808" transform="translate(0)">
      <rect id="Rectangle_5829" data-name="Rectangle 5829" width="2.146" height="8.861" transform="matrix(0.969, -0.248, 0.248, 0.969, 0, 0.532)" fill="#0a6dca"/>
    </g>
  </g>
</svg>
