<svg id="analytic_select" xmlns="http://www.w3.org/2000/svg" width="40.952" height="35.82" viewBox="0 0 40.952 35.82">
  <path id="Path_170433" data-name="Path 170433" d="M39.881,1.259a3.992,3.992,0,0,0-6.9,2.726,3.94,3.94,0,0,0,.143,1.048L28.8,8.092a3.981,3.981,0,0,0-6.577,4.156L18.244,15.6a3.98,3.98,0,0,0-7.024.953L7.912,15.213A3.961,3.961,0,1,0,7.75,17.2l3.308,1.344a3.984,3.984,0,0,0,7.911-.667c0-.124-.009-.258-.019-.382L23.3,13.831a3.983,3.983,0,0,0,6.49-4.1L34.057,6.7a3.985,3.985,0,0,0,5.824-5.442ZM3.984,17.967a2.078,2.078,0,1,1,2.079-2.077A2.082,2.082,0,0,1,3.984,17.967Zm10.99,2a2.078,2.078,0,1,1,2.077-2.077,2.082,2.082,0,0,1-2.077,2.077Zm11-7a2.077,2.077,0,1,1,2.077-2.077A2.083,2.083,0,0,1,25.975,12.972Zm10.989-6.91a2.078,2.078,0,1,1,2.079-2.077A2.082,2.082,0,0,1,36.964,6.062Z" transform="translate(0)" fill="#969caa"/>
  <path id="Path_170434" data-name="Path 170434" d="M37.972,10.578H32.634a.956.956,0,0,0-.952.953V34.216a.955.955,0,0,0,.952.953h5.338a.956.956,0,0,0,.953-.953V11.531a.957.957,0,0,0-.953-.953Zm-.953,22.78H33.588V12.485h3.431Z" transform="translate(1.66 0.554)" fill="#969caa"/>
  <path id="Path_170435" data-name="Path 170435" d="M27.557,17.1H22.219a.957.957,0,0,0-.953.953V33.874a.956.956,0,0,0,.953.953h5.338a.955.955,0,0,0,.952-.953V18.052A.956.956,0,0,0,27.557,17.1ZM26.6,33.017H23.173V19.006H26.6Z" transform="translate(1.114 0.896)" fill="#969caa"/>
  <path id="Path_170436" data-name="Path 170436" d="M17.051,23.892H11.713a.957.957,0,0,0-.953.953v8.769a.957.957,0,0,0,.953.953h5.338A.956.956,0,0,0,18,33.614V24.845A.956.956,0,0,0,17.051,23.892ZM16.1,32.661H12.667V25.8H16.1Z" transform="translate(0.564 1.252)" fill="#969caa"/>
  <path id="Path_170437" data-name="Path 170437" d="M6.635,21.99H1.3a.956.956,0,0,0-.952.953v10.77a.956.956,0,0,0,.952.953H6.635a.957.957,0,0,0,.953-.953V22.943A.957.957,0,0,0,6.635,21.99ZM5.683,32.76H2.251V23.9H5.683Z" transform="translate(0.018 1.152)" fill="#969caa"/>
</svg>
