<svg xmlns="http://www.w3.org/2000/svg" width="78.469" height="117.468" viewBox="0 0 78.469 117.468">
  <g id="Ministry-of-Media-01" transform="translate(0 0)">
    <path id="Path_174969" data-name="Path 174969" d="M241.123,737.239a2.934,2.934,0,0,0-1.1-.633,4.649,4.649,0,0,0-1.4-.206,4.286,4.286,0,0,0-1.4.221,3.173,3.173,0,0,0-1.1.648,2.952,2.952,0,0,0-.722,1.06,3.683,3.683,0,0,0-.265,1.458,1.636,1.636,0,0,0,.1.574,4.1,4.1,0,0,0,.236.589,3.214,3.214,0,0,0,.295.5,1.79,1.79,0,0,0,.295.339,2.669,2.669,0,0,0-1.782.913,2.822,2.822,0,0,0-.574,1.826v1.915h1.605v-1.929a2.052,2.052,0,0,1,.059-.515,1.074,1.074,0,0,1,.236-.442,1.14,1.14,0,0,1,.457-.309,2.112,2.112,0,0,1,.736-.1h1.856a4.775,4.775,0,0,0,1.429-.206,2.806,2.806,0,0,0,1.812-1.679,4.138,4.138,0,0,0,.25-1.488,3.834,3.834,0,0,0-.265-1.487,3.02,3.02,0,0,0-.751-1.046m-1.134,4.006a1.684,1.684,0,0,1-1.37.545,1.751,1.751,0,0,1-1.37-.545,2.195,2.195,0,0,1-.471-1.458,2.343,2.343,0,0,1,.457-1.473,1.956,1.956,0,0,1,2.739,0,2.2,2.2,0,0,1,.457,1.473,1.973,1.973,0,0,1-.442,1.458" transform="translate(-233.7 -642.967)" fill="#aeadb1"/>
    <path id="Path_174970" data-name="Path 174970" d="M317.84,723.164a2.52,2.52,0,0,1-.442-1.561,1.862,1.862,0,0,1,.442-1.34,1.553,1.553,0,0,1,1.178-.457,1.53,1.53,0,0,1,.516.1,1.782,1.782,0,0,1,.442.295,1.56,1.56,0,0,1,.324.427,2.092,2.092,0,0,1,.206.53h1.487a4.346,4.346,0,0,0-.295-1.1,2.738,2.738,0,0,0-.56-.884,2.3,2.3,0,0,0-.884-.574,3.479,3.479,0,0,0-1.252-.206,3.791,3.791,0,0,0-1.326.221,2.866,2.866,0,0,0-1.708,1.635,3.508,3.508,0,0,0-.236,1.34,2.869,2.869,0,0,0,.28,1.193,4.267,4.267,0,0,0,.28.515,1.6,1.6,0,0,0,.295.368v.059H306.175a1.45,1.45,0,0,1-.427-.074.933.933,0,0,1-.383-.236,1.134,1.134,0,0,1-.28-.427,1.509,1.509,0,0,1-.1-.619V715.3h-1.65v7.349a1.175,1.175,0,0,1-.1.53.8.8,0,0,1-.25.324,1.107,1.107,0,0,1-.309.177,1.294,1.294,0,0,1-.309.044h-2v-5.891h-1.649v5.891H297v1.414h5.2c.147,0,.324-.015.515-.029a3.116,3.116,0,0,0,.6-.118,3.762,3.762,0,0,0,.633-.25,2.064,2.064,0,0,0,.574-.457,2.209,2.209,0,0,0,.781.6,2.362,2.362,0,0,0,1.031.25h15.744v-1.414H319.15a1.457,1.457,0,0,1-1.311-.56" transform="translate(-287.677 -624.975)" fill="#aeadb1"/>
    <path id="Path_174971" data-name="Path 174971" d="M479.533,723.924h-2.975v-5.891h-1.649v5.891H473.2v1.414h7.982V715.5h-1.65Z" transform="translate(-437.927 -625.145)" fill="#aeadb1"/>
    <path id="Path_174972" data-name="Path 174972" d="M482.746,794.1a.65.65,0,0,1-.147-.427.6.6,0,0,1,.133-.412.446.446,0,0,1,.324-.147.433.433,0,0,1,.324.133.51.51,0,0,1,.147.324h.633a.883.883,0,0,0-.353-.751,1.311,1.311,0,0,0-.736-.221,1.181,1.181,0,0,0-.825.265.964.964,0,0,0-.295.736.77.77,0,0,0,.059.309.873.873,0,0,0,.162.28v.059H481.7v.56h2.489v-.56h-1.031a.463.463,0,0,1-.412-.147" transform="translate(-445.175 -690.89)" fill="#aeadb1"/>
    <rect id="Rectangle_8530" data-name="Rectangle 8530" width="1.605" height="9.838" transform="translate(44.934 90.354)" fill="#aeadb1"/>
    <rect id="Rectangle_8531" data-name="Rectangle 8531" width="1.605" height="1.605" transform="translate(52.593 90.354)" fill="#aeadb1"/>
    <rect id="Rectangle_8532" data-name="Rectangle 8532" width="1.605" height="1.605" transform="translate(54.964 90.354)" fill="#aeadb1"/>
    <path id="Path_174973" data-name="Path 174973" d="M585.994,737.369a2.9,2.9,0,0,0-1.09-.648,4.726,4.726,0,0,0-2.857,0,2.98,2.98,0,0,0-1.09.648,2.853,2.853,0,0,0-.707,1.075,4.632,4.632,0,0,0,0,3,2.743,2.743,0,0,0,.707,1.075,2.9,2.9,0,0,0,1.09.648,4.729,4.729,0,0,0,2.857,0,2.979,2.979,0,0,0,1.09-.648,2.854,2.854,0,0,0,.707-1.075,4.633,4.633,0,0,0,0-3,2.742,2.742,0,0,0-.707-1.075M584.86,741.4a1.92,1.92,0,0,1-2.739,0,2.556,2.556,0,0,1,0-2.916,1.92,1.92,0,0,1,2.739,0,2.557,2.557,0,0,1,0,2.916" transform="translate(-528.998 -643.052)" fill="#aeadb1"/>
    <path id="Path_174974" data-name="Path 174974" d="M634.547,748.335a5.547,5.547,0,0,1-.074.972,1.534,1.534,0,0,1-.191.574.655.655,0,0,1-.309.265,1.235,1.235,0,0,1-.427.074,2.071,2.071,0,0,1-1.046-.236v1.326a1.658,1.658,0,0,0,.324.118c.1.029.236.059.383.088a2.775,2.775,0,0,0,.515.029,2.063,2.063,0,0,0,1.87-.839,4.328,4.328,0,0,0,.56-2.386V742.4h-1.591v5.935Z" transform="translate(-573.766 -648.083)" fill="#aeadb1"/>
    <rect id="Rectangle_8533" data-name="Rectangle 8533" width="1.591" height="9.838" transform="translate(64.065 90.354)" fill="#aeadb1"/>
    <rect id="Rectangle_8534" data-name="Rectangle 8534" width="1.605" height="1.605" transform="translate(68.852 90.354)" fill="#aeadb1"/>
    <path id="Path_174975" data-name="Path 174975" d="M688.247,748.335a5.553,5.553,0,0,1-.074.972,1.534,1.534,0,0,1-.192.574.656.656,0,0,1-.309.265,1.236,1.236,0,0,1-.427.074,2.071,2.071,0,0,1-1.046-.236v1.326a1.659,1.659,0,0,0,.324.118c.1.029.236.059.383.088a2.775,2.775,0,0,0,.515.029,2.064,2.064,0,0,0,1.87-.839,4.335,4.335,0,0,0,.545-2.386V742.4h-1.591Z" transform="translate(-619.557 -648.083)" fill="#aeadb1"/>
    <path id="Path_174976" data-name="Path 174976" d="M728.221,738.686a3.345,3.345,0,0,0-.545-1.3,2.464,2.464,0,0,0-1.031-.81,4.158,4.158,0,0,0-1.591-.28,3.882,3.882,0,0,0-1.591.295,2.558,2.558,0,0,0-1,.781,2.755,2.755,0,0,0-.515,1.134,5.624,5.624,0,0,0-.147,1.325,3.482,3.482,0,0,0,.25,1.326,2.9,2.9,0,0,0,.692,1.016,2.981,2.981,0,0,0,1.06.648,3.963,3.963,0,0,0,1.355.221h1.4a3.426,3.426,0,0,1-.353,1,1.751,1.751,0,0,1-.545.589,1.92,1.92,0,0,1-.736.28,5.982,5.982,0,0,1-.943.074,2.318,2.318,0,0,1-.6-.059,2.546,2.546,0,0,1-.471-.162v1.355a2.018,2.018,0,0,0,.353.1c.118.03.25.044.412.074s.339.03.53.03a5.174,5.174,0,0,0,1.974-.324,2.881,2.881,0,0,0,1.3-1.031,4.459,4.459,0,0,0,.707-1.841,14.453,14.453,0,0,0,.206-2.725,8.785,8.785,0,0,0-.162-1.723m-1.5,2.975h-1.576a1.746,1.746,0,0,1-1.281-.427,1.951,1.951,0,0,1-.412-1.37,5.053,5.053,0,0,1,.074-.825,1.864,1.864,0,0,1,.265-.677,1.49,1.49,0,0,1,.5-.457,1.589,1.589,0,0,1,.8-.177,1.33,1.33,0,0,1,1.3.677,4.335,4.335,0,0,1,.353,1.974,9.213,9.213,0,0,1-.015,1.281" transform="translate(-649.914 -642.882)" fill="#aeadb1"/>
    <path id="Path_174977" data-name="Path 174977" d="M308.562,478.548c3.785,2.5,8.984,6.038,8.748,7.275a2.249,2.249,0,0,1-.353.781c-.162.221-.412.574-.707.574-.4-.015-.412-.692-1-1.075a1.867,1.867,0,0,0-2,.074,1.987,1.987,0,0,0-.781,1.576,2.082,2.082,0,0,0,1.355,1.782,2.885,2.885,0,0,0,2.283-.28c1.723-.8,1.856-2.106,2.857-2.136.633-.029,1.046.648,2.415,1.856,3.108,2.725,5.552,3.7,7,3.7.943,0,2.209-.133,2.71-1.267a2.036,2.036,0,0,0-.648-2.209,2.131,2.131,0,0,0-2.5-.221c-.471.368-.368.987-.707,1-.545.029-5.1-4.2-6.775-5.994-.191-.191,1.016-2.239,1.414-2.3.677-.1.884,1.031,1.915,1.208a1.915,1.915,0,0,0,1.885-.9,1.951,1.951,0,0,0-.029-1.723,2.688,2.688,0,0,0-2.725-1.149,4.569,4.569,0,0,0-2.946,2.371c-.339.56-.471.972-.854,1.075-.427.1-.839-.412-1.5-1.134-.987-1.1-4.61-4.3-4.742-4.566a.973.973,0,0,1-.044-.147c-.088-.471,7.349-4.212,13.711-5.626,5.7-1.267,15.332-1.679,15.184-1.944h0c.427-.4-8.7-2.445-15.538-2.135-3.564.162-10.1,1.075-17.629,6.628h-.059c-7.526-5.552-14.05-6.48-17.629-6.628-6.834-.309-15.95,1.738-15.538,2.135h0c-.147.265,9.485.677,15.184,1.944,6.362,1.414,13.8,5.155,13.711,5.626a.965.965,0,0,1-.044.147c-.133.265-3.741,3.461-4.742,4.566-.648.722-1.075,1.252-1.5,1.134-.383-.088-.53-.516-.854-1.075a4.656,4.656,0,0,0-2.946-2.371,2.677,2.677,0,0,0-2.725,1.149,1.951,1.951,0,0,0-.03,1.723,1.867,1.867,0,0,0,1.885.9c1.031-.162,1.237-1.311,1.915-1.208.4.059,1.605,2.106,1.414,2.3-1.694,1.8-6.245,6.024-6.775,5.994-.339-.015-.236-.633-.707-1a2.087,2.087,0,0,0-2.5.221,2.036,2.036,0,0,0-.648,2.209c.5,1.134,1.753,1.267,2.71,1.267,1.458,0,3.9-.972,7-3.7,1.37-1.208,1.8-1.87,2.415-1.856.987.03,1.119,1.34,2.857,2.136a2.826,2.826,0,0,0,2.283.28,2.082,2.082,0,0,0,1.355-1.782,1.987,1.987,0,0,0-.781-1.576,1.867,1.867,0,0,0-2-.074c-.589.383-.589,1.06-1,1.075-.295,0-.56-.353-.707-.574a2.25,2.25,0,0,1-.353-.781c-.236-1.237,4.963-4.786,8.748-7.275Z" transform="translate(-269.18 -413.231)" fill="#02785d"/>
    <path id="Path_174978" data-name="Path 174978" d="M368.328,115.122a16.656,16.656,0,0,0-7.673,6.981c-1.929,3.638-2.268,8.189-1.414,8.277.81.088.8-3.049,3.608-7.01,2.518-3.564,5.331-4.33,6.775-4.315.059,0,.574-.029-.147.707a15.392,15.392,0,0,0-5.67,7.909c-.987,3.535.118,8.144.442,8.115.8-.074.353-3.535,2.18-7.349.191-.4,2.268-4.639,4.551-4.507.118,0,.751.015.736.309-.015.427-1.075,1.4-2.239,3.284a9.286,9.286,0,0,0-1.06,5.14c.177,2.71,1,5.066,1.664,4.949.692-.133-.147-3.211,1.561-6.966.28-.619,2.327-5.287,4.006-4.2a3.19,3.19,0,0,1,1.443,2.666c.236,6.893.236,13.093-.074,20.648-.118,2.739-.9,5.287-1.075,7.909,0,.059.648.265.692.339a.388.388,0,0,0,.088.074,25.585,25.585,0,0,1,2.872,2.091.2.2,0,0,0,.265,0c.677-.574,1.988-1.532,2.666-1.973.088-.059.707-.324.707-.427-.236-2.622-1-5.155-1.134-7.924a183.15,183.15,0,0,1,.059-20.751,4.268,4.268,0,0,1,1.443-2.666c1.679-1.09,3.726,3.579,4.006,4.2,1.708,3.756.854,6.834,1.561,6.966.663.118,1.487-2.239,1.664-4.949a9.286,9.286,0,0,0-1.06-5.14c-1.164-1.885-2.224-2.872-2.239-3.284-.015-.295.619-.309.736-.309,2.283-.133,4.359,4.124,4.551,4.507,1.826,3.814,1.384,7.275,2.18,7.349.324.029,1.429-4.58.442-8.115a15.317,15.317,0,0,0-5.67-7.909c-.722-.722-.206-.692-.147-.707,1.458-.015,4.256.751,6.775,4.315,2.813,3.962,2.8,7.1,3.608,7.01.854-.088.515-4.639-1.414-8.277a16.655,16.655,0,0,0-7.673-6.981c-1-.486-.295-1-.221-1.09.53-.56,4.6.28,6.583,1.959.692.589,1.8,1.753,1.429.295-.353-1.414-2.209-3.328-4.006-4.168a53.847,53.847,0,0,0-5.214-1.826c-.972-.383-1.193-.825-1.016-1,.913-.884,4.08-.869,5.832-1.163.957-.162-1.944-1.281-3.888-1.429-3.741-.28-4.875,1.664-5.552,1.075a1,1,0,0,1-.28-.81c.177-1.34,3.962-2.857,3.019-3.063-1.605-.383-4.507,1.517-6.215,3.034-.206.177-.589.074-.545-.589.133-1.62.177-2.312-.471-3.505-.177-.339-.56-.81-.781-.825s-.589.486-.781.825a5.33,5.33,0,0,0-.471,3.505c.044.663-.339.766-.545.589-1.708-1.517-4.61-3.4-6.215-3.034-.928.221,2.842,1.738,3.019,3.063a.977.977,0,0,1-.265.81c-.677.589-1.812-1.355-5.552-1.075-1.959.147-4.86,1.267-3.888,1.429,1.753.295,4.919.28,5.832,1.163.191.177-.029.619-1.016,1-1.664.648-3.137.854-5.214,1.826-1.8.839-3.638,2.754-4.006,4.168-.368,1.458.736.295,1.429-.295,1.973-1.664,6.053-2.518,6.583-1.959.1.1.81.619-.177,1.1" transform="translate(-340.375 -102)" fill="#02785d"/>
    <path id="Path_174979" data-name="Path 174979" d="M394.532,668.826c10.84,0,19.632-.412,19.632-.913S405.372,667,394.532,667s-19.632.412-19.632.913,8.792.913,19.632.913" transform="translate(-354.104 -583.789)" fill="#aeadb1"/>
    <path id="Path_174980" data-name="Path 174980" d="M237.426,843.837l-.221.81-.221-.81-1.87-5.037H233.7v6.981h1.119v-5.125l.059.221,1.8,4.9h1.046l1.8-4.89.074-.236v5.125h1.1V838.8h-1.414Z" transform="translate(-233.7 -730.286)" fill="#aeadb1"/>
    <rect id="Rectangle_8535" data-name="Rectangle 8535" width="1.134" height="4.86" transform="translate(8.572 110.635)" fill="#aeadb1"/>
    <path id="Path_174981" data-name="Path 174981" d="M291.707,840.3a.635.635,0,0,0-.707.6.7.7,0,0,0,1.4,0,.63.63,0,0,0-.692-.6" transform="translate(-282.561 -731.565)" fill="#aeadb1"/>
    <path id="Path_174982" data-name="Path 174982" d="M311.453,852.2a17.256,17.256,0,0,0-2.253.236v4.757h1.119v-3.829a5.978,5.978,0,0,1,1.075-.1c.722,0,1.149.265,1.149.987v2.931h1.134c0-1.046-.015-2.106-.015-3.152.015-1.4-.987-1.826-2.209-1.826" transform="translate(-298.081 -741.713)" fill="#aeadb1"/>
    <rect id="Rectangle_8536" data-name="Rectangle 8536" width="1.134" height="4.86" transform="translate(17.025 110.635)" fill="#aeadb1"/>
    <path id="Path_174983" data-name="Path 174983" d="M349.107,840.3a.635.635,0,0,0-.707.6.647.647,0,0,0,.707.633.63.63,0,0,0,.677-.633.609.609,0,0,0-.677-.6" transform="translate(-331.507 -731.565)" fill="#aeadb1"/>
    <path id="Path_174984" data-name="Path 174984" d="M365.721,854.076l-.353-.088c-.677-.177-.972-.25-.972-.6s.353-.442.943-.442a3.8,3.8,0,0,1,1.517.339l.309-.869a4.378,4.378,0,0,0-1.959-.412c-1.237,0-1.974.53-1.974,1.384,0,.8.486,1.267,1.561,1.532.147.029.295.074.442.118.84.221,1,.295,1,.663,0,.412-.471.515-1.164.515a4.522,4.522,0,0,1-1.679-.353l-.295.869a5.015,5.015,0,0,0,2.091.427c1.443,0,2.165-.516,2.165-1.517-.015-.781-.486-1.267-1.635-1.561" transform="translate(-344.042 -741.542)" fill="#aeadb1"/>
    <path id="Path_174985" data-name="Path 174985" d="M396.318,845.942v-1.988H398.2v-1h-1.885V841.2H395.2v1.753h-.9v1h.9v2.312c0,1.046.427,1.546,1.694,1.546H398.2V846.8h-.9c-.663.015-.987-.192-.987-.854" transform="translate(-370.647 -732.333)" fill="#aeadb1"/>
    <path id="Path_174986" data-name="Path 174986" d="M427.1,853.335v4.625h1.119v-3.741a3.342,3.342,0,0,1,.972-.1h.766V853.1h-.9a9.375,9.375,0,0,0-1.959.236" transform="translate(-398.617 -742.48)" fill="#aeadb1"/>
    <path id="Path_174987" data-name="Path 174987" d="M457.674,853.2h-1.119v3.549a4.524,4.524,0,0,1-1.075.118c-.692,0-1.06-.25-1.06-1V853.2H453.3v2.872c0,1.325.751,1.856,2.135,1.856a5.084,5.084,0,0,0,1.119-.1V858c0,.8-.471,1.06-1.384,1.06a4.81,4.81,0,0,1-1.62-.28l.236,1a4.729,4.729,0,0,0,1.62.25c1.267,0,2.253-.633,2.253-2v-.5l.015-.015-.015-.015v-4.3Z" transform="translate(-420.958 -742.565)" fill="#aeadb1"/>
    <path id="Path_174988" data-name="Path 174988" d="M502.11,851.9h0a2.6,2.6,0,0,0-2.71,2.592v.015a2.578,2.578,0,0,0,2.7,2.563h.015a2.573,2.573,0,0,0,2.71-2.562v-.015a2.579,2.579,0,0,0-2.71-2.592m1.591,2.607a1.505,1.505,0,0,1-1.576,1.532h-.015a1.5,1.5,0,0,1-1.561-1.532v-.015a1.517,1.517,0,0,1,1.561-1.561h.015a1.532,1.532,0,0,1,1.576,1.576Z" transform="translate(-460.268 -741.457)" fill="#aeadb1"/>
    <path id="Path_174989" data-name="Path 174989" d="M540.213,840.276v.545H539.3v1.031h.913v3.829h1.134v-3.829h1.885v-1.031h-1.885v-.368c0-.619.295-.81,1-.81h.9V838.7h-1.031c-1.414.015-2,.353-2,1.576" transform="translate(-494.292 -730.201)" fill="#aeadb1"/>
    <path id="Path_174990" data-name="Path 174990" d="M645.063,851.9a2.431,2.431,0,0,0-2.563,2.577v.015a2.451,2.451,0,0,0,2.622,2.563,4.527,4.527,0,0,0,2.091-.471l-.471-.869a3.18,3.18,0,0,1-1.532.368,1.43,1.43,0,0,1-1.547-1.193h3.814v-.53a2.3,2.3,0,0,0-2.415-2.459m-1.384,2.047a1.264,1.264,0,0,1,1.37-1.06,1.2,1.2,0,0,1,1.34,1.06Z" transform="translate(-582.293 -741.457)" fill="#aeadb1"/>
    <path id="Path_174991" data-name="Path 174991" d="M737.927,852.1a4.8,4.8,0,0,0-1.679.28l-.265,1.016a4.905,4.905,0,0,1,1.694-.324c.9,0,1.355.339,1.355.928v.03a8.92,8.92,0,0,0-1.193-.089c-1.443,0-2.239.574-2.239,1.605v.015c0,1.075.84,1.649,2.356,1.649a9.141,9.141,0,0,0,2.194-.309V854c0-1.34-.913-1.9-2.224-1.9m1.1,4.006a5.114,5.114,0,0,1-1.075.118c-.839,0-1.222-.221-1.222-.692s.383-.677,1.222-.677a9.005,9.005,0,0,1,1.075.088Z" transform="translate(-661.682 -741.627)" fill="#aeadb1"/>
    <path id="Path_174992" data-name="Path 174992" d="M720.807,840.4a.635.635,0,0,0-.707.6.7.7,0,0,0,1.4,0,.63.63,0,0,0-.692-.6" transform="translate(-648.464 -731.65)" fill="#aeadb1"/>
    <rect id="Rectangle_8537" data-name="Rectangle 8537" width="1.134" height="4.86" transform="translate(71.783 110.635)" fill="#aeadb1"/>
    <path id="Path_174993" data-name="Path 174993" d="M591.726,844.551l-.221.81-.221-.825-1.87-5.037H588v6.981h1.119V841.37l.059.221,1.8,4.89h1.06l1.782-4.875.074-.25v5.125H595V839.5h-1.414Z" transform="translate(-535.82 -730.883)" fill="#aeadb1"/>
    <path id="Path_174994" data-name="Path 174994" d="M683.79,842.87a2.434,2.434,0,0,0-.707-.088,2.565,2.565,0,0,0-2.784,2.43,2.286,2.286,0,0,0,.8,1.694,3.019,3.019,0,0,0,1.973.692h1.856V841H683.79Zm0,3.52a1.706,1.706,0,0,1-.692.133h-.015a1.355,1.355,0,0,1-1.429-1.326v-.015a1.355,1.355,0,0,1,1.429-1.326h.015a1.763,1.763,0,0,1,.692.147Z" transform="translate(-614.526 -732.162)" fill="#aeadb1"/>
  </g>
</svg>
