<svg id="Ministry-of-Interior-01" xmlns="http://www.w3.org/2000/svg" width="109.491" height="109.491" viewBox="0 0 109.491 109.491">
  <g id="XMLID_2_" transform="translate(10.591 17.779)">
    <g id="Group_43130" data-name="Group 43130" transform="translate(0 0)">
      <path id="Path_174929" data-name="Path 174929" d="M266.019,272.794c.246,2.8-1.708,5.07-3.649,6.327a20.476,20.476,0,0,1-.765,3.649,37.53,37.53,0,0,0,4.414-4.988c.164,4.072-4.715,4.742-5.371,8.623,1.449-.916,3.321-3.061,4.988-4.414a8.826,8.826,0,0,1-5.371,5.945c-.328.506-.451,1.216-.765,1.722,2.214-1.175,3.785-2.979,6.327-3.84-1.025,2.679-3.307,4.1-6.327,4.8a5.01,5.01,0,0,0-1.148,2.487c2.132-.615,4.086-3.075,7.093-3.457a9.181,9.181,0,0,1-4.223,3.84c-1.818.916-4.318.806-4.8,3.061,2.542-.9,4.523-2.378,7.858-2.487-1.339,2.692-4.264,3.786-8.432,3.649-.519.957-1.476,1.462-1.913,2.487,2.6-.765,5.3-2.31,8.623-1.722-1.339,2.706-5.357,4.291-9.388,3.061-1,.465-1.353,1.585-2.1,2.3,2.555-.478,5.808-1.189,8.24-.191-1.285,2.473-6.751,2.747-8.814.765-1.121.929-2.05,2.036-3.252,2.87,2.569.273,6.546-.314,8.241,1.339-2.269,1.558-7.858,1.216-9.771-.383a18.1,18.1,0,0,1-3.649,1.913c1.312.615,4.469.67,6.71.957a12.01,12.01,0,0,1-5.562.574c-.9-.109-1.859-.765-2.678-.765-2.132,0-4.728,1.572-6.9,2.3-2.392.806-4.619,1.585-6.9,2.3,4.564,2.528,9.8,4.387,14.759,6.519-2.023,1.3-4.5,2.146-6.519,3.457-3.635-3.649-9.211-5.371-14.185-7.667-4.8,2.173-10.277,3.662-13.42,7.475-2.3-1.148-4.605-2.3-6.9-3.457,4.7-2.255,10.345-4.086,14.185-6.136-2.023-.793-4.018-1.38-6.136-2.1-1.859-.642-4.127-2.036-5.945-2.1-2.091-.1-5.056,1.763-8.049.383,1.531-.9,4.674-.178,6.136-1.148a9.532,9.532,0,0,1-3.061-1.722,14.5,14.5,0,0,1-9.962.574c1.08-2,5.507-1.626,8.24-1.339-.806-1.244-2.31-1.777-3.061-3.061-2.31,1.79-7.093,1.667-8.814-.574,2.036-1.394,5.685-.465,8.049,0a17.219,17.219,0,0,0-1.913-2.3c-3.908,1.093-8.145-.109-9.2-3.061,3.567-.178,5.863.9,8.241,1.913-.246-1.23-1.435-1.5-1.722-2.678-4.154.383-7.448-1.107-8.241-3.457,3.1.219,5.166,1.49,7.475,2.487.178-.642-.82-1.544-1.339-2.1a9.2,9.2,0,0,1-7.284-4.605c2.884.506,4.578,2.2,6.71,3.457.232-.752-.533-1.982-.957-2.678-3.034-.533-5.179-1.982-6.136-4.605,2.351.847,3.881,2.514,5.945,3.649.1-.6-.273-.752-.383-1.148-2.378-1.517-4.592-3.2-5.562-6.136,1.927,1.216,3.293,2.966,4.988,4.414-.492-4.1-4.947-4.25-5.371-8.432,1.722,1.339,2.788,3.334,4.414,4.8-.014-4.715-4.373-5.084-4.414-9.771,1.49,1.326,2.3,3.321,3.457,4.988.97-4.482-3.129-5.562-2.87-9.963,1.271,1.353,1.818,3.417,2.679,5.179,1.216-5.439-2.638-7.462-2.679-12.272,1.367,1.708,2.009,4.113,2.87,6.327,1.613-3.84-2.023-6.245-1.339-10.933,1.175,1.831,1.3,4.7,2.1,6.9,2.323-3.444-1.148-6.751-.191-10.933a13.641,13.641,0,0,1,1.531,5.753c2.31-2-.055-5.685.765-8.814a11.658,11.658,0,0,1,.765,4.988c2.241-1.326.137-5.958,1.339-8.432a11.2,11.2,0,0,1,.383,4.988c2.214-.779,1.093-4.906,2.1-6.9.437.834.068,2.487.191,3.649a1.841,1.841,0,0,0,.847-.574,1.69,1.69,0,0,0-.273.765c.629.219,2.118-.164,3.061.191-1.216,1.6-5.166.451-5.179,3.253,1.216-.314,2.719-.355,4.031-.574-.793,1.052-2.446,1.257-4.414,1.148a5.208,5.208,0,0,0-1.148,2.3c.7-.26,2.569-1.148,4.223-.574-.506,1.544-2.474,1.613-4.605,1.531a6.261,6.261,0,0,0-1.148,2.87c1.6-.451,3.1-1,4.605-1.531-.478,1.244-2.993,2.118-4.988,2.487-.711.888-.738,2.46-1.148,3.649,1.736-1.148,2.938-2.815,5.179-3.457-1.025,2.159-3.266,3.13-5.371,4.223-.055,1.162-.287,2.132-.383,3.253,1.476-1.326,3.184-2.446,4.8-3.649-.465,1.968-2.911,3.608-4.988,4.605-.082.875.191,2.1-.191,2.679.943-.014.875-1.052,1.339-1.531a36.43,36.43,0,0,1,3.649-2.487c-.533,1.9-2.719,3.8-4.8,4.8.123,1.285-.26,3.061.191,4.031a17.784,17.784,0,0,1,4.414-5.371c-.328,2.3-2.515,4.387-4.414,5.753.014,1.271-.109,2.665.383,3.457,1.2-1.982,2.077-4.318,4.031-5.562-.3,2.309-2.474,4.428-4.031,6.136a9.075,9.075,0,0,0,1.148,3.84,22.424,22.424,0,0,1,3.457-7.093c.1,3.594-4.824,7.038-2.3,10.741a30.864,30.864,0,0,1,3.061-7.093c-.178,2.569-1.79,5.371-2.87,7.667a6.334,6.334,0,0,0,1.148,2.487,35.443,35.443,0,0,1,2.487-6.9c.082,3.211-3.512,7.557-.574,10.359.97-2.159,1.162-5.111,1.722-7.667.779,4.209-2.774,9.088.765,11.315.4-1.134.205-2.856.574-4.031v-1.148c-.027-.478.232-.328.191,0-.041,3.485-.451,7.352,1.913,8.432.424-1.544.191-3.772.574-5.371v-1.148c.424,1.49.191,5.3.574,7.475.656.7,1.134,1.544,2.1,1.913a41.337,41.337,0,0,1-.383-7.475c1.667,3.129-.178,9.771,3.84,10.55a28.346,28.346,0,0,1-1.148-7.284c1.326,1.49,1.763,4.892,1.531,7.284a6.2,6.2,0,0,0,3.061,1.913,23.182,23.182,0,0,1-1.339-5.371c1.517.273,2,3.252,2.1,5.562,5.084,1.558,11.151,3.717,17.26,3.649,6.027-.068,12.723-2.815,18.025-4.031.219-1.818.465-4.947,1.913-6.136.547,2.009-.56,4.031-1.148,5.562.806.1,2.186-.875,3.061-1.339.014-3.116.383-5.876,1.531-7.858.4,2.378-.41,5.207-.957,7.284a7.2,7.2,0,0,0,2.678-2.1,37.437,37.437,0,0,1,1.148-8.814c.533,2.515-.014,5.6-.383,7.858a6.842,6.842,0,0,0,2.3-1.913c.1-2.46.328-4.783.383-7.284-.027-.219.041-.342.191-.383v2.1a34.293,34.293,0,0,1,.383,4.605c.97-.492,1.326-1.613,2.1-2.3.014-.806-.014-2.733,0-4.223.014-1.326.068-3.772.191-1.339.3,1.421.26,3.2.574,4.605,3.389-2.528.383-7.2.574-11.889.711,2.487,1.2,5.193,1.722,7.858,3.457-2.282-.109-6.6-.383-10.167a17.282,17.282,0,0,1,2.487,6.71c.888-.328.82-1.613,1.339-2.3a35.36,35.36,0,0,1-3.061-7.858,17.3,17.3,0,0,1,3.061,7.093c2.788-3.594-2.023-7.216-2.487-11.124,1.6,2.1,3.211,4.209,3.649,7.475,1.039-.683.984-2.46,1.339-3.84-1.462-2.05-3.444-3.58-4.223-6.327,2.064,1.121,3.1,3.293,4.031,5.562,2.815-4.141-3.58-5.712-4.031-9.006,2.036.451,3.471,3.171,4.605,5.179.451-.957.068-2.747.191-4.031a15.083,15.083,0,0,1-4.988-4.8c.683-.752,1.736,1.162,1.722,1.148.383.232.82-.068,1.148.191.779.615,1.244,1.681,2.1,2.487.506-.642-.273-1.64,0-2.679a13.452,13.452,0,0,1-5.179-4.414c1.708.2,3.348,2.145,4.8,3.252.424-.752-.178-2.118-.191-3.061-1.982-1.339-4.387-2.269-5.562-4.414,1.763.355,3.813,2.064,5.179,3.457.26-1.093-.519-2.8-.957-3.84a9.182,9.182,0,0,1-5.179-2.1c1.408-.26,3.061.9,4.605,1.148.355-.875-.642-2.036-.957-2.87-2.187.068-4.223.014-4.8-1.531a6.018,6.018,0,0,1,4.414.574,8.033,8.033,0,0,0-1.148-2.3c-1.9.109-3.471-.1-4.414-.957,1.107-.465,2.733.191,3.84.383-.027-1.121-.875-1.421-1.148-2.3a7.581,7.581,0,0,1-4.031-.765c.465-.738,1.968-.615,2.87-.383.369-.629-.834-1.339-1.148-1.913-1.353.355-3.731.355-4.223-.765a13.971,13.971,0,0,1,3.457.191c.383-.15.451-1.708.383-2.87.424,2.063.7,4.291,2.3,5.179a27.224,27.224,0,0,1,.191-4.031c1.121,2.419-.055,5.945,2.1,7.284a25.426,25.426,0,0,1,.383-5.371c1.49,2.583-.656,6.737,1.148,8.623.533-1.449.56-3.4.957-4.988,1.257,3.225-1.449,6.628.765,9.006.656-1.9.779-4.332,1.722-5.945,1.121,4.482-2.528,7.653-.191,11.315.752-2.186,1.107-4.783,1.913-6.9,1.093,4.674-2.514,6.792-1.339,11.124,1.175-2.009,1.749-4.633,3.061-6.519.178,4.523-3.512,6.847-2.87,12.463,1.23-1.517,1.763-3.731,2.87-5.371.547,4.25-3.457,5.617-3.061,10.359C263.832,276.484,264.666,274.379,266.019,272.794Z" transform="translate(-177.3 -240.201)" fill="#259146"/>
      <path id="Path_174930" data-name="Path 174930" d="M694.6,230.1c1.722.711,2.706,2.159,3.84,3.457C697.429,232.888,695.242,231.767,694.6,230.1Z" transform="translate(-623.906 -230.1)" fill="#259146"/>
      <path id="Path_174931" data-name="Path 174931" d="M284.052,246.9c.027,1.49-2.432,2.173-3.252,3.458C280.868,249.7,282.713,247.556,284.052,246.9Z" transform="translate(-266.656 -244.604)" fill="#259146"/>
      <path id="Path_174932" data-name="Path 174932" d="M267.276,260.878c1.2,0,2.555-.465,3.649,0-1.271,1.257-4.031.246-5.125,1.339a6.691,6.691,0,0,0,1.093-4.018C267.18,258.87,267.139,260.673,267.276,260.878Z" transform="translate(-253.706 -254.36)" fill="#259146"/>
      <path id="Path_174933" data-name="Path 174933" d="M264.75,287.6c-.055.068-.1.123-.15.191A1.035,1.035,0,0,1,264.75,287.6Z" transform="translate(-252.67 -279.742)" fill="#259146"/>
    </g>
  </g>
  <path id="Path_174934" data-name="Path 174934" d="M452.02,182.943,448.9,185.2l-3.116-2.255h2.351s-.724-1.722.1-1.913c0,0-.957-1.585-.246-1.777,0,0-1.052-1.244.1-1.818,0,0-.82-1.394.055-1.818,0,0-1.011-1.626,0-1.913,0,0-.861-1.585.055-1.818v-4.4s-1.189-.738-.82,3.253l-.287.287.1,1.148s-1.052-.533-.67-1.3l-.724.287a2.671,2.671,0,0,1,0-1.722s-.137-.287-.41.383a1.709,1.709,0,0,1,.068-2.678V166.8s-.67-.82.629-1.435c0,0,.82-1.2-.7-1.244,0,0-.369,1.435-.847,1.435,0,0-.055,1.052-.56,1.052,0,0,.068,1.08-.67,1.339,0,0,.191.765-.164.861,0,0-.068.67.164.793a3.222,3.222,0,0,1-.793-3.676l1.052-2.173s.287-.642-.793-.451l-.068.738s-.3.478-.451-.123c0,0-.7-.547-.629,1.121l.123.929s-.26.506-.478-.314c0,0-1.148.027,0,2.241a3.05,3.05,0,0,1-.793-3.963l2.719-2.911s-.123-1.216-2.077-.287a4.812,4.812,0,0,0-1.08.888,4.985,4.985,0,0,1,3.567-3.13h1.859s.642-1.531-2.05-.793c0,0-.451-2.077,2.268-1.572L447.5,157.7l.164.027v-1.982l1.093-1.148,1.285,1.121v2.009L451.9,156.1s2.528-.67,2.624,1.476c0,0-2.747-.67-2.337.888h2.337a4.015,4.015,0,0,1,3.389,2.965s-1.886-1.886-3.389-.7l3.225,3.321a2.919,2.919,0,0,1-.738,3.744s.861-1.859-.164-2.269c0,0-.219-.068-.478.41,0,0,.287-1.667-.26-2.05a.632.632,0,0,0-.793.26.744.744,0,0,0-1.052-.793s-.123.642,1.08,2.337c0,0,1.025,2.583-.574,3.867,0,0,.164-1.667-.765-2.146a.881.881,0,0,0-.574-1.244s.314-.451-.547-.861c0,0-.383-.164-.314-.888,0,0-.984-.834-.957.6,0,0,1.408,1.08.7,1.695,0,0,1.476,1.339.547,2.2,0,0,.219,1.244-.547.738,0,0-.451-.765-.355.765,0,0,.478.984-.506.574a1.692,1.692,0,0,1-.7,1.189V171h-.287V168.32a.68.68,0,0,0-.834-.765v4.154s.834.41.027,1.954c0,0,.957.191.027,1.859,0,0,.861.191.068,1.818,0,0,1.121.068.164,1.982,0,0,.834,0-.26,1.695,0,0,.957-.1.1,1.818Z" transform="translate(-393.53 -147.138)" fill="#259146"/>
  <path id="Path_174935" data-name="Path 174935" d="M385.338,345.967l-1.08.861c-1.818.765-3.676-1.025-3.676-1.025-.67-.547.451-.861.451-.861,1.667-.6.314-1.6.314-1.6-1.626-.287-1.121.957-1.121.957.383.929-.506.793-.506.793l-3.047-2.883c1.886-1.8,5.658-5.234,8.623-6.7,0,0,2.72-1.982,10.454-2.3a13.932,13.932,0,0,0-12.914,1.695s-5.275,3.362-7.38,5.849l-.082.082-.082-.082c-2.1-2.487-7.38-5.849-7.38-5.849A13.932,13.932,0,0,0,355,333.217c7.735.314,10.454,2.3,10.454,2.3,2.965,1.476,6.751,4.892,8.623,6.7l-3.047,2.883s-.888.123-.506-.793c0,0,.506-1.244-1.121-.957,0,0-1.339.984.314,1.6,0,0,1.121.314.451.861,0,0-1.859,1.79-3.676,1.025l-1.08-.861a1.29,1.29,0,0,0-1.818,1.052s1.285,3.294,5.521,1.722a6.963,6.963,0,0,0,2.815-1.982l.6.547s-.068,1.244.957,1.312a.909.909,0,0,0,.67-1.025,1.235,1.235,0,0,0-1.216-.765l-.506-.451s1.927-1.777,2.924-2.884c1,1.107,2.924,2.884,2.924,2.884l-.506.451a1.235,1.235,0,0,0-1.216.765.923.923,0,0,0,.67,1.025c1.025-.068.957-1.312.957-1.312l.6-.547a6.871,6.871,0,0,0,2.815,1.982c4.25,1.572,5.521-1.722,5.521-1.722A1.266,1.266,0,0,0,385.338,345.967Z" transform="translate(-320.125 -300.596)" fill="#259146"/>
  <path id="Path_174936" data-name="Path 174936" d="M391.132,465.4h8.145s-2.1,17.356-20.512,17.356c0,0-15.429.191-19.365-17.356h7.954a14.3,14.3,0,0,0,11.985,8.145C379.338,473.558,388.071,473.558,391.132,465.4Z" transform="translate(-323.923 -415.465)" fill="#259146"/>
  <path id="Path_174937" data-name="Path 174937" d="M329.3,461.9h9.388s-2.583,25.5-30.092,27.892c0,0-26.553,2.3-32.593-27.414h9.2s3.252,18.408,22.139,18.408C307.336,480.786,324.787,481.934,329.3,461.9Z" transform="translate(-251.921 -412.443)" fill="#259146"/>
  <g id="Group_43131" data-name="Group 43131" transform="translate(0 0)">
    <path id="Path_174938" data-name="Path 174938" d="M154.545,209.491a55.092,55.092,0,0,1-11.028-1.107,54.26,54.26,0,0,1-10.277-3.2,55.709,55.709,0,0,1-9.306-5.043,54.893,54.893,0,0,1-14.786-14.786,53.717,53.717,0,0,1-5.043-9.306,55.079,55.079,0,0,1-3.2-32.333,54.262,54.262,0,0,1,3.2-10.277,55.708,55.708,0,0,1,5.043-9.306,54.892,54.892,0,0,1,14.786-14.786,53.716,53.716,0,0,1,9.306-5.043,55.079,55.079,0,0,1,32.333-3.2,54.262,54.262,0,0,1,10.277,3.2,55.709,55.709,0,0,1,9.306,5.043,54.892,54.892,0,0,1,14.786,14.786,53.717,53.717,0,0,1,5.043,9.306,55.079,55.079,0,0,1,3.2,32.333,54.263,54.263,0,0,1-3.2,10.277,55.71,55.71,0,0,1-5.043,9.306,54.893,54.893,0,0,1-14.786,14.786,53.719,53.719,0,0,1-9.306,5.043,54.266,54.266,0,0,1-21.305,4.3Zm0-107.168a52.437,52.437,0,0,0-20.4,4.113,51.927,51.927,0,0,0-8.9,4.838,53.5,53.5,0,0,0-7.762,6.4,52.887,52.887,0,0,0-11.233,16.659,51.592,51.592,0,0,0-3.047,9.839,52.587,52.587,0,0,0,3.047,30.967,51.928,51.928,0,0,0,4.838,8.9,53.5,53.5,0,0,0,6.4,7.762,52.884,52.884,0,0,0,16.659,11.233,51.589,51.589,0,0,0,9.839,3.048,52.587,52.587,0,0,0,30.967-3.048,51.927,51.927,0,0,0,8.9-4.838,53.5,53.5,0,0,0,7.762-6.4,52.888,52.888,0,0,0,11.233-16.659,51.59,51.59,0,0,0,3.047-9.839,52.587,52.587,0,0,0-3.047-30.967,51.926,51.926,0,0,0-4.838-8.9,53.5,53.5,0,0,0-6.4-7.762,52.887,52.887,0,0,0-16.659-11.233,51.592,51.592,0,0,0-9.839-3.047A52.567,52.567,0,0,0,154.545,102.323Z" transform="translate(-99.8 -100)" fill="#259146"/>
  </g>
  <g id="Group_43136" data-name="Group 43136" transform="translate(27.682 52.517)">
    <path id="Path_174939" data-name="Path 174939" d="M601.461,492.482s-.7.861-.861-.478c0,0,1.216-1.025,2.146,1.339,0,0,.123,1.818-.929,1.886a2.752,2.752,0,0,0,.287-2.146S602.144,492.345,601.461,492.482Z" transform="translate(-559.843 -490.759)" fill="#fff"/>
    <path id="Path_174940" data-name="Path 174940" d="M590.285,503.938a2.628,2.628,0,0,0,.929,2.2,2.222,2.222,0,0,1-.943,2.678s-.574.15,0-.765c0,0,.929-.793-.123-2.706,0,0-.916-1.134-.41-1.613C589.752,503.747,590.285,503.419,590.285,503.938Z" transform="translate(-550.334 -500.999)" fill="#fff"/>
    <path id="Path_174941" data-name="Path 174941" d="M561.674,515.869A4.161,4.161,0,0,1,559.2,513.3a5.242,5.242,0,0,1,3.526,2.569s.7,2-1.107,2.487a3.822,3.822,0,0,1,.478-1.312s.355-1.025-.164-1.558a4.333,4.333,0,0,0-1.8-1.312S561.113,515.35,561.674,515.869Z" transform="translate(-524.101 -509.336)" fill="#fff"/>
    <path id="Path_174942" data-name="Path 174942" d="M670.767,486.235a4.687,4.687,0,0,1-3.567-1.9,5.893,5.893,0,0,1,4.687,1.517s1.476,1.913-.232,3.116a4.624,4.624,0,0,1,.014-1.613s0-1.257-.752-1.64a4.989,4.989,0,0,0-2.391-.793A24.314,24.314,0,0,0,670.767,486.235Z" transform="translate(-617.342 -484.294)" fill="#fff"/>
    <path id="Path_174943" data-name="Path 174943" d="M505.117,538.526a4.123,4.123,0,0,1-.478-3.526,5.218,5.218,0,0,1,1.326,4.155s-.615,2.022-2.364,1.366c0,0,.109-.191,1.162-.779,0,0,.9-.615.779-1.353a4.3,4.3,0,0,0-.67-2.118C504.871,536.243,504.98,537.774,505.117,538.526Z" transform="translate(-476.099 -528.07)" fill="#fff"/>
    <path id="Path_174944" data-name="Path 174944" d="M579.838,593.348a4.2,4.2,0,0,1-1.49-3.348,5.169,5.169,0,0,1,2.5,3.662s-.014,2.241-1.886,2.214a4.678,4.678,0,0,1,.9-1.2s.7-.943.369-1.64a4.347,4.347,0,0,0-1.271-1.886C578.95,591.148,579.5,592.637,579.838,593.348Z" transform="translate(-540.626 -575.554)" fill="#fff"/>
    <path id="Path_174945" data-name="Path 174945" d="M401.887,592.021a4.169,4.169,0,0,1,1.572-3.321,5.144,5.144,0,0,1-1.148,4.291s-1.695,1.449-2.911.014a4.641,4.641,0,0,1,1.5-.1s1.162-.1,1.476-.793a4.433,4.433,0,0,0,.6-2.186A23.024,23.024,0,0,0,401.887,592.021Z" transform="translate(-386.139 -574.432)" fill="#fff"/>
    <path id="Path_174946" data-name="Path 174946" d="M455.25,534.512a4.141,4.141,0,0,1,.6-3.512,5.257,5.257,0,0,1,.014,4.359s-1.189,1.736-2.665.588a4,4,0,0,1,1.353-.4s1.039-.314,1.162-1.052a4.473,4.473,0,0,0,0-2.227C455.715,532.257,455.345,533.747,455.25,534.512Z" transform="translate(-432.587 -524.617)" fill="#fff"/>
    <path id="Path_174947" data-name="Path 174947" d="M558.509,532.538s-.41-.164-.15,1.271c0,0,.834,2.61-1.531,3.089,0,0-.451.123.191-.6a2.551,2.551,0,0,0,.929-2.542s-.506-1.736.246-1.954C558.195,531.814,558.714,531.759,558.509,532.538Z" transform="translate(-521.92 -525.308)" fill="#fff"/>
    <g id="Group_43132" data-name="Group 43132" transform="translate(32.598 8.364)">
      <path id="Path_174948" data-name="Path 174948" d="M542.321,545.883a2.8,2.8,0,0,1-1.175-.383l-.246.67c.478.219.246.793.246.793,0,1.462,1.175.861,1.175.861C543.278,546.62,542.321,545.883,542.321,545.883Zm-.055,1.271s-.642.342-.793-.191a3.54,3.54,0,0,1,0-.765C541.488,546.183,542.7,546.361,542.267,547.153Z" transform="translate(-540.9 -545.5)" fill="#fff"/>
    </g>
    <path id="Path_174949" data-name="Path 174949" d="M474.145,541.007a5.67,5.67,0,0,1,0-3.307,4.624,4.624,0,0,1,.861,3.854s-.26,1.394-1.367,1.107c0,0-.765.123-.957-.916,0,0-.861,2.706-2.583,1.052,0,0,2,.15,2.282-1.6l.478-1.052a4.011,4.011,0,0,1,.219,1.394s.6,1.052,1.6-.055a4.392,4.392,0,0,0-.41-2.61A6.875,6.875,0,0,0,474.145,541.007Z" transform="translate(-447.177 -530.401)" fill="#fff"/>
    <g id="Group_43134" data-name="Group 43134" transform="translate(11.428 1.382)">
      <path id="Path_174950" data-name="Path 174950" d="M431.5,559.6Z" transform="translate(-425.28 -550.691)" fill="#fff"/>
      <g id="Group_43133" data-name="Group 43133">
        <path id="Path_174951" data-name="Path 174951" d="M395.884,502.77a11.4,11.4,0,0,1-.929-1.394c-.67-.888-2.091.7-2.091.7-1.052-.191-.793-.861-.793-.861l2.228-2.966-.6.1-1.968,2.583c-1.121.287-1.3-.97-1.3-.97.533-.355.164-.56.164-.56a1.562,1.562,0,0,1-1.6-.383c-.506-.6.478-1.312.478-1.312.765-.916-.355-1.011-.355-1.011l-2.351-.027c-.287-.82,1.011-1.777,1.011-1.777a1.946,1.946,0,0,1,2.159.765c.834.916.861.6.861.6l-1.394-1.654c-1.654-.765-3.048,1.025-3.048,1.025-.834,1.175,0,1.585,0,1.585h2.282c.7.246-.342,1.025-.342,1.025-.287,1.6,1.6,1.708,1.6,1.708-.191,1.613,1.6,1.435,1.6,1.435a1.122,1.122,0,0,0,.916,1.23,3.406,3.406,0,0,1-.219.711l.519-.547c1.913.027,2.186.26,2.186.26C396.363,503.344,395.884,502.77,395.884,502.77Zm-2.433-.519a.633.633,0,0,1,.547-.574c.806-.068.82.574.82.574Z" transform="translate(-385.989 -494.408)" fill="#fff"/>
      </g>
    </g>
    <path id="Path_174952" data-name="Path 174952" d="M419.624,499.374V498.8H418.9v.574l.492.123v.478l.629.15v-.533Z" transform="translate(-402.974 -496.818)" fill="#fff"/>
    <g id="Group_43135" data-name="Group 43135" transform="translate(42.491 1.552)">
      <path id="Path_174953" data-name="Path 174953" d="M623.638,499.484c.888-1.462-.328-1.585-.328-1.585l-.1.67c-.547.547-.41-1.066-.41-1.066a2.665,2.665,0,0,0-2.8-1.845c.055,1.052,1.9,2.159,1.9,2.159-.055-.355-1.052-1.367-1.052-1.367,1.312.314,1.585.861,1.585.861l.055.765c-.137,1.08.574,1.271.574,1.271a1.955,1.955,0,0,1-.7,2.31l-.765.055.055.246a1.227,1.227,0,0,1-.957,1.654l-2.87-2.542-.1.506,2.706,2.487c.123,1.435-1.394,1.462-1.394,1.462l-2.036-2.118.26-1.134,1.121,1.435A29.744,29.744,0,0,0,616.955,501a9.733,9.733,0,0,1-1.3,4.291,3.545,3.545,0,0,0,1.2-1.408l1.79,1.968c.506.82-.957,1.749-.957,1.749l-.574-.355c-.97-.984-1.3.15-1.3.15l.027,2.679-.164.342c-2.282-.15-1.954-2.569-1.954-2.569,1.613-1.5,1.5-2.1,1.5-2.1l-1.736,1.845a2.369,2.369,0,0,0,.957,2.952c1.107,1.121,1.872.26,1.872.26l-.068-2c-.219-1.558.41-1.312.41-1.312.574.82,1.011.724,1.011.724,1.708.068,1.585-2,1.585-2a1.532,1.532,0,0,0,1.6-2.009c.984.3,1.216-1.093,1.216-1.093.533,1.011,1.121.451,1.121.451.533-.834-.314-1.654-.314-1.654C623.939,501.671,623.638,499.484,623.638,499.484Zm-1.3,2.979a.437.437,0,0,1,.533.478C622.859,502.942,622.34,503.27,622.34,502.463Z" transform="translate(-613.292 -495.651)" fill="#fff"/>
    </g>
    <path id="Path_174954" data-name="Path 174954" d="M527.094,598.453s-1.708-1.872-1.107-3.553a4.546,4.546,0,0,1,2.132,3.553s.547,2.542-2.063,1.777a2.928,2.928,0,0,1-2.638,1.08,1.675,1.675,0,0,0-.916,1.2s-.328,1.394-2.555.957c0,0-.806-.1.97-.41a3.983,3.983,0,0,0,1.722-2,2.036,2.036,0,0,1,1.462-.478s1.271-.41,1.49-.738c0,0-.1-.342-.806-.191,0,0-.178-.82.943-1.148,0,0,.7-.164.67.506l.027.67s1.531.164,1.271-1.558a5.694,5.694,0,0,0-1.244-1.968Z" transform="translate(-490.055 -579.785)" fill="#fff"/>
    <path id="Path_174955" data-name="Path 174955" d="M455.813,615.344s1.2.7.178,2.515c0,0-1.913,1.175-3.034,0,0,0,.027-.246-.437-.055a2.151,2.151,0,0,1-3.02-.342,1.293,1.293,0,0,1-.15-1.011s-.41-.642-1.093.287l-1.353,1.394s-1.08.615-1.148-1.285c0,0-.7-3.007,1.872-3.047a9.675,9.675,0,0,0,2.091.287s-.629.451-2.392.123c0,0-1.148-.1-.984,1.708,0,0,.055,1.612.724,1.5l1.8-1.886s.9-.656.97.738a1.17,1.17,0,0,0,.752,1.244s2,.533,2.487-.888l.506.834s1.435.533,2.228-.219c0,0,.478-.451-.219-.738C455.595,616.519,454.829,615.891,455.813,615.344Z" transform="translate(-426.085 -596.102)" fill="#fff"/>
    <path id="Path_174956" data-name="Path 174956" d="M346.024,573.724s.861-3.061,1.913-3.184a4.593,4.593,0,0,1-1.49,4.51s-.67.478-1.913-.26l-2.8-2.323v-.6l-.724-.1-1.08-.833v-.478s-2.228,1.271-2.829-1.558c0,0,1.107,1.708,2.569,1.3v-.273s-.6-.478-.15-.847c0,0,.834-.15.834.191l.068,1.271,1.011.834h.26V570.9l-.191-.027.1-.383.97.1.15,1.08-.383.15.027.437.7.547.533-.314-.191.506.533.451.67-.164-.314.383.246.164.7-.219-.451.533s1.052,1.189,2.009.15a3.816,3.816,0,0,0,.547-2.61C347.349,571.633,346.311,573.683,346.024,573.724Z" transform="translate(-332.353 -557.338)" fill="#fff"/>
    <path id="Path_174957" data-name="Path 174957" d="M327.741,539.449a1.441,1.441,0,0,1,1.435-1.749h.642s.765,2.392-.834,2.993c0,0-2.064,1.039-3.184-1.654v-.3a16.291,16.291,0,0,0,2.1,1.79,1.186,1.186,0,0,0,1.421-1.216s.355-1.025-.41-1.216c0,0-.437-.123-.342,1.107A.669.669,0,0,1,327.741,539.449Z" transform="translate(-322.597 -530.401)" fill="#fff"/>
    <path id="Path_174958" data-name="Path 174958" d="M307.766,495.679h-.793l-.342.793h-.383l-1.011-1.312v-.779l.738-.724s.642-.533-.738-.984c0,0-1.845-.383-1.941-.355a1.211,1.211,0,0,1,.287-1.531s1.558-1.5,2.474.219a2.84,2.84,0,0,0,1.216,1.6,11.1,11.1,0,0,1-.984-1.968s-1.093-1.9-3.143-.068c0,0-1.257.929-.588,2.036.027.15.629.533,2.159.41,0,0,1.367.246.219,1.121,0,0-.642.123-.478,1.257l1.435,1.694s.82.642,1.872-.916Z" transform="translate(-302.363 -489.023)" fill="#fff"/>
    <path id="Path_174959" data-name="Path 174959" d="M579.5,499.9h.875v.738l-.752-.123Z" transform="translate(-541.627 -497.767)" fill="#fff"/>
    <path id="Path_174960" data-name="Path 174960" d="M534.012,534.851V534.4l.7.082v.642l-.7-.1-.123.6-.642-.342s-.055-.533,0-.547A5.708,5.708,0,0,1,534.012,534.851Z" transform="translate(-501.673 -527.553)" fill="#fff"/>
    <path id="Path_174961" data-name="Path 174961" d="M617.093,562.278V561.8h.752v.642h-.752v.7H616.3l.15-.67Z" transform="translate(-573.398 -551.208)" fill="#fff"/>
    <path id="Path_174962" data-name="Path 174962" d="M511.51,650.5l.56.642-.56.478-.41-.451Z" transform="translate(-482.574 -627.786)" fill="#fff"/>
    <path id="Path_174963" data-name="Path 174963" d="M490.04,653.1l.588.506-.588.7-.519-.6-.451.6-.67-.6.615-.6.492.369Z" transform="translate(-462.976 -630.031)" fill="#fff"/>
    <path id="Path_174964" data-name="Path 174964" d="M466.98,605.174l.506-.273.519.642-.7.478-.451-.478-.506.2-.451-.67.574-.478Z" transform="translate(-443.551 -588.159)" fill="#fff"/>
    <path id="Path_174965" data-name="Path 174965" d="M451.16,533.5l.191.738H450.6v-.615Z" transform="translate(-430.342 -526.775)" fill="#fff"/>
    <path id="Path_174966" data-name="Path 174966" d="M400.671,539.515v.56h-.615v-.56h-.56l-.1-.615h.752l.068.588Z" transform="translate(-386.139 -531.438)" fill="#fff"/>
    <path id="Path_174967" data-name="Path 174967" d="M315.2,536.38s.1.588,0,.588h-.888l.15-.834H314V535.3l.82.123-.027.711Z" transform="translate(-312.41 -528.329)" fill="#fff"/>
    <path id="Path_174968" data-name="Path 174968" d="M338.416,499.034l-.205.765-.465-.219v-.711l-.547-.273v-.7l.888.123-.246.752Z" transform="translate(-332.439 -496.041)" fill="#fff"/>
  </g>
</svg>
