<svg id="Minisrty-of-Health-01-1" xmlns="http://www.w3.org/2000/svg" width="121.473" height="110.782" viewBox="0 0 121.473 110.782">
  <g id="Group_43120" data-name="Group 43120">
    <g id="Group_43119" data-name="Group 43119">
      <path id="Path_174720" data-name="Path 174720" d="M186.036,718.914h-.076l-3.926-7.737H180.3v10.081h.743v-8.214h.114l4.193,8.214h.343l4.135-8.271h.057v8.271h1.7V711.177h-1.7Zm7.795-5.146v7.49h1.544V713.33h-.457Zm1.391-4.04a.717.717,0,0,0-.286-.172,1.058,1.058,0,0,0-.686,0,.878.878,0,0,0-.286.172,1.228,1.228,0,0,0-.191.248.649.649,0,0,0,0,.61,1.222,1.222,0,0,0,.191.248.715.715,0,0,0,.286.172,1.057,1.057,0,0,0,.686,0,.715.715,0,0,0,.286-.172.785.785,0,0,0,.191-.248.648.648,0,0,0,0-.61,1.226,1.226,0,0,0-.191-.248m7.966,4.288a1.774,1.774,0,0,0-.629-.5,1.8,1.8,0,0,0-.762-.191,3.214,3.214,0,0,0-1.544.4,5.483,5.483,0,0,0-1.467,1.182V713.5h-1.544v7.775h1.544V715.5a4.152,4.152,0,0,1,.553-.458c.191-.133.381-.248.572-.362a4.254,4.254,0,0,1,.553-.229,1.773,1.773,0,0,1,.515-.076,1.132,1.132,0,0,1,.9.4,1.728,1.728,0,0,1,.343,1.163v5.317h1.544v-5.584a2.877,2.877,0,0,0-.152-.915,2.036,2.036,0,0,0-.419-.743M207,709.729a.716.716,0,0,0-.286-.172,1.058,1.058,0,0,0-.686,0,.878.878,0,0,0-.286.172.788.788,0,0,0-.191.248.648.648,0,0,0,0,.61,1.223,1.223,0,0,0,.191.248.715.715,0,0,0,.286.172,1.057,1.057,0,0,0,.686,0,.714.714,0,0,0,.286-.172,1.221,1.221,0,0,0,.191-.248.648.648,0,0,0,0-.61.787.787,0,0,0-.191-.248m-1.372,4.04v7.49h1.544V713.33h-.457Zm8.157,3.811a4.031,4.031,0,0,0-.724-.5c-.267-.133-.553-.267-.839-.4s-.572-.248-.839-.362a5.135,5.135,0,0,1-.724-.381,2.071,2.071,0,0,1-.515-.477.97.97,0,0,1-.191-.61.8.8,0,0,1,.114-.4.985.985,0,0,1,.3-.324,1.582,1.582,0,0,1,.476-.229,2.057,2.057,0,0,1,.61-.076,2,2,0,0,1,1.162.362,3.268,3.268,0,0,1,.991,1.086l.572-.515a5.33,5.33,0,0,0-.667-.743,2.59,2.59,0,0,0-.648-.438,2.71,2.71,0,0,0-.667-.21,4.456,4.456,0,0,0-.724-.057,3.8,3.8,0,0,0-1.067.152,2.722,2.722,0,0,0-.839.457,2.144,2.144,0,0,0-.553.686,2.168,2.168,0,0,0-.019,1.734,1.969,1.969,0,0,0,.476.648,3.57,3.57,0,0,0,.667.5c.248.133.5.267.762.4.267.114.515.248.762.362a4.382,4.382,0,0,1,.667.381,1.885,1.885,0,0,1,.476.476,1.109,1.109,0,0,1,.171.629.816.816,0,0,1-.114.419,1.106,1.106,0,0,1-.3.362,1.333,1.333,0,0,1-.457.248,1.92,1.92,0,0,1-.591.1,2.273,2.273,0,0,1-.629-.076,2.117,2.117,0,0,1-.553-.267,3.612,3.612,0,0,1-.534-.457,5.379,5.379,0,0,1-.534-.686l-.629.572a4.448,4.448,0,0,0,.705.743,3.339,3.339,0,0,0,.724.438,3.451,3.451,0,0,0,.724.21,4.585,4.585,0,0,0,.705.057,3.983,3.983,0,0,0,1.315-.191,2.561,2.561,0,0,0,.934-.5,1.9,1.9,0,0,0,.553-.743,2.453,2.453,0,0,0,.191-.915,1.778,1.778,0,0,0-.191-.858,2.507,2.507,0,0,0-.515-.61m5.66,2.744a.819.819,0,0,1-.476.133.892.892,0,0,1-.324-.057.646.646,0,0,1-.267-.172.8.8,0,0,1-.172-.267.89.89,0,0,1-.057-.324V714.15H219.9V713.5h-1.753v-2.668h-.438c-.076.4-.172.762-.267,1.125a3.231,3.231,0,0,1-.419.934,1.816,1.816,0,0,1-.686.629,2.214,2.214,0,0,1-1.067.229v.381h1.353v5.489a3.048,3.048,0,0,0,.1.743,1.349,1.349,0,0,0,.286.572,1.272,1.272,0,0,0,.476.362,1.521,1.521,0,0,0,.686.133,2.438,2.438,0,0,0,1.277-.3,2.466,2.466,0,0,0,.819-.839l-.381-.267c-.171.114-.3.229-.438.3m6.308-6.727a1.805,1.805,0,0,0-.381-.21,1.315,1.315,0,0,0-.476-.076,1.354,1.354,0,0,0-.61.133,2.738,2.738,0,0,0-.591.362,4.515,4.515,0,0,0-.534.514,3.9,3.9,0,0,0-.476.629v-1.467H221.14v7.775h1.544v-5.393a5.152,5.152,0,0,1,.324-.477,3.382,3.382,0,0,1,.324-.381,1.165,1.165,0,0,1,.3-.248.633.633,0,0,1,.3-.1.76.76,0,0,1,.324.057c.1.038.171.076.267.114a2.054,2.054,0,0,0,.286.133,1.231,1.231,0,0,0,.419.057.941.941,0,0,0,.648-.19.72.72,0,0,0,.229-.572.788.788,0,0,0-.1-.362,2.051,2.051,0,0,0-.267-.3m5.317,5.508-3.011-5.6H226.3l3.983,7.413-.515,1.162c-.057.133-.133.286-.21.458a2.617,2.617,0,0,1-.267.457,1.465,1.465,0,0,1-.343.343.686.686,0,0,1-.419.133.961.961,0,0,1-.362-.057c-.1-.038-.171-.076-.248-.114a1.428,1.428,0,0,0-.248-.114,1.071,1.071,0,0,0-.381-.057.853.853,0,0,0-.381.076.755.755,0,0,0-.286.191,1.354,1.354,0,0,0-.191.267.89.89,0,0,0-.057.324.789.789,0,0,0,.1.362.765.765,0,0,0,.267.286,1.952,1.952,0,0,0,.4.19,1.921,1.921,0,0,0,.476.057,2.047,2.047,0,0,0,.743-.133,3.139,3.139,0,0,0,.743-.4,3.893,3.893,0,0,0,.686-.686,4.5,4.5,0,0,0,.572-.991l3.964-9.129h-.819Zm15.322-4.669a4.291,4.291,0,0,0-1.3-.819,4.556,4.556,0,0,0-1.639-.3,4.19,4.19,0,0,0-1.639.324,3.675,3.675,0,0,0-1.3.9,4.356,4.356,0,0,0-.858,1.315,4.221,4.221,0,0,0-.3,1.62,3.784,3.784,0,0,0,.3,1.544,4.091,4.091,0,0,0,.858,1.258,3.71,3.71,0,0,0,1.3.839,4.185,4.185,0,0,0,1.639.3,3.882,3.882,0,0,0,1.639-.343,4.2,4.2,0,0,0,1.3-.915,4.318,4.318,0,0,0,1.163-3.011,3.518,3.518,0,0,0-.3-1.486,3.716,3.716,0,0,0-.858-1.22m-.724,4.631a2.818,2.818,0,0,1-.438.934,2.09,2.09,0,0,1-.667.629,1.582,1.582,0,0,1-.839.229,2.046,2.046,0,0,1-1.124-.324,2.849,2.849,0,0,1-.839-.877,4.19,4.19,0,0,1-.515-1.3,7.087,7.087,0,0,1-.191-1.6,3.447,3.447,0,0,1,.171-1.105,4.069,4.069,0,0,1,.438-.915,2.177,2.177,0,0,1,.648-.61,1.421,1.421,0,0,1,.762-.229,2.234,2.234,0,0,1,1.277.324,2.413,2.413,0,0,1,.839.858,4.233,4.233,0,0,1,.476,1.277,8.251,8.251,0,0,1,.152,1.582,4.328,4.328,0,0,1-.152,1.124m8.8-9.186a2.569,2.569,0,0,0-.686-.286,3.378,3.378,0,0,0-.915-.1,2.759,2.759,0,0,0-1.124.229,2.657,2.657,0,0,0-.915.648,2.89,2.89,0,0,0-.61.972,3.2,3.2,0,0,0-.229,1.2v.915h-1.62v.648h1.62v7.128h1.544v-7.128h2.077v-.648h-2.077v-1.849a1.883,1.883,0,0,1,.076-.572,1.7,1.7,0,0,1,.229-.5.983.983,0,0,1,.343-.343.741.741,0,0,1,.438-.133.838.838,0,0,1,.476.114.814.814,0,0,1,.248.267,2.031,2.031,0,0,1,.133.362,2.036,2.036,0,0,0,.133.362.634.634,0,0,0,.229.267.708.708,0,0,0,.438.114.788.788,0,0,0,.3-.057.548.548,0,0,0,.248-.152.521.521,0,0,0,.172-.229.791.791,0,0,0,.057-.3.958.958,0,0,0-.152-.515,1.543,1.543,0,0,0-.438-.419m11.873,5.889h-5.069v-4.593h-1.7v10.081h1.7v-4.841h5.069v4.841h1.7V711.177h-1.7Zm10.2,3.278a2.828,2.828,0,0,1-.648.61,3.142,3.142,0,0,1-.839.419,2.744,2.744,0,0,1-.972.171,2.426,2.426,0,0,1-1.105-.267,2.788,2.788,0,0,1-.877-.762,3.49,3.49,0,0,1-.572-1.163,5.016,5.016,0,0,1-.21-1.448h5.793a3,3,0,0,0-.248-1.239,3.278,3.278,0,0,0-.705-1.048,3.617,3.617,0,0,0-1.086-.724,3.718,3.718,0,0,0-1.41-.267,3.756,3.756,0,0,0-1.563.324,3.314,3.314,0,0,0-1.2.9,4.374,4.374,0,0,0-.781,1.372,5.092,5.092,0,0,0-.267,1.734,3.493,3.493,0,0,0,.3,1.467,3.734,3.734,0,0,0,.819,1.2,3.68,3.68,0,0,0,1.2.8,3.837,3.837,0,0,0,1.486.3,3.352,3.352,0,0,0,1.2-.229,4.317,4.317,0,0,0,1.086-.61,4.987,4.987,0,0,0,.877-.915,3.589,3.589,0,0,0,.534-1.124l-.438-.191a2.477,2.477,0,0,1-.381.686m-4.993-3.888a2.238,2.238,0,0,1,.419-.648,2.083,2.083,0,0,1,.572-.438,1.37,1.37,0,0,1,.667-.152,2.112,2.112,0,0,1,.781.152,1.865,1.865,0,0,1,.629.438,1.731,1.731,0,0,1,.419.667,2.318,2.318,0,0,1,.152.819h-3.869a3.356,3.356,0,0,1,.229-.838m12.368-1.277a2.254,2.254,0,0,0-.858-.419,5.529,5.529,0,0,0-2.5-.019,3.986,3.986,0,0,0-.991.381,2.605,2.605,0,0,0-.686.572,1.15,1.15,0,0,0-.248.724,1.109,1.109,0,0,0,.057.362.716.716,0,0,0,.172.286.683.683,0,0,0,.267.191.9.9,0,0,0,.324.076.753.753,0,0,0,.381-.1.659.659,0,0,0,.229-.229.938.938,0,0,0,.114-.324,2.588,2.588,0,0,0,.038-.4,1.732,1.732,0,0,1,.057-.438,1.026,1.026,0,0,1,.191-.381.92.92,0,0,1,.381-.267,1.6,1.6,0,0,1,.648-.1,2.176,2.176,0,0,1,.629.1,1.019,1.019,0,0,1,.476.324,1.57,1.57,0,0,1,.3.591,3.069,3.069,0,0,1,.1.9v.476c-.343.1-.705.172-1.067.286a9.944,9.944,0,0,0-1.067.343c-.343.133-.667.286-.972.438a4.287,4.287,0,0,0-.8.572,2.528,2.528,0,0,0-.553.724,2.221,2.221,0,0,0-.057,1.658,1.883,1.883,0,0,0,.4.61,2.134,2.134,0,0,0,.629.419,2.242,2.242,0,0,0,.819.152,2.918,2.918,0,0,0,.858-.114,3.694,3.694,0,0,0,.686-.286,3.068,3.068,0,0,0,.572-.4c.171-.133.362-.286.534-.419v1.067h1.544v-5.87a2.347,2.347,0,0,0-.152-.839,1.5,1.5,0,0,0-.457-.648m-.934,5.755c-.152.114-.3.229-.457.324s-.286.191-.438.267a4.629,4.629,0,0,1-.457.191,2.073,2.073,0,0,1-.5.076,1.034,1.034,0,0,1-.476-.114,1.243,1.243,0,0,1-.4-.3,1.558,1.558,0,0,1-.286-.457,1.263,1.263,0,0,1-.1-.534,1.057,1.057,0,0,1,.133-.534,1.746,1.746,0,0,1,.381-.476,3.226,3.226,0,0,1,.553-.419,7.089,7.089,0,0,1,.648-.362c.229-.114.457-.21.705-.3.229-.1.476-.172.686-.248Zm3.678-9.7v11.32H288.2V709.5h-.438Zm6.823,10.386a.86.86,0,0,1-.476.133.893.893,0,0,1-.324-.057.747.747,0,0,1-.438-.438.89.89,0,0,1-.057-.324V714.15h1.753V713.5h-1.753v-2.668h-.457c-.076.4-.172.762-.267,1.125a3.23,3.23,0,0,1-.419.934,1.816,1.816,0,0,1-.686.629,2.266,2.266,0,0,1-1.067.229v.381h1.353v5.489a3.053,3.053,0,0,0,.1.743,1.35,1.35,0,0,0,.286.572,1.272,1.272,0,0,0,.477.362,1.521,1.521,0,0,0,.686.133,2.323,2.323,0,0,0,1.258-.3,2.466,2.466,0,0,0,.819-.839l-.381-.267a2.789,2.789,0,0,1-.4.3m8.042-5.565a2.355,2.355,0,0,0-.419-.743,1.775,1.775,0,0,0-.629-.5,1.8,1.8,0,0,0-.762-.191,3.214,3.214,0,0,0-1.544.4,5.484,5.484,0,0,0-1.467,1.182v-5.393h-.438l-1.105.438v11.32H296.7V715.5a5.714,5.714,0,0,1,.534-.458c.191-.133.381-.248.553-.362a4.252,4.252,0,0,1,.553-.229,1.773,1.773,0,0,1,.515-.076,1.132,1.132,0,0,1,.9.4,1.728,1.728,0,0,1,.343,1.163v5.317h1.544v-5.584a1.845,1.845,0,0,0-.114-.915" transform="translate(-180.3 -614.098)" fill="#9e925e"/>
      <path id="Path_174721" data-name="Path 174721" d="M456.5,366.437c-.934.572-1.887,1.2-2.382,1.544-1.525,1.067-3.087,2.192-4.631,3.354a134.427,134.427,0,0,0-18.753,17.037H418.4s30.168-26.033,44-28.034c12.33-1.772,17.133,7.147,16.1,16.752a12.445,12.445,0,0,0-7.852-13.054,12.4,12.4,0,0,0-5.66-.762,20.6,20.6,0,0,0-8.5,3.164" transform="translate(-373.024 -331.295)" fill="#9e925e" fill-rule="evenodd"/>
      <path id="Path_174722" data-name="Path 174722" d="M284.838,366.437c.934.572,1.887,1.2,2.382,1.544,1.525,1.067,3.087,2.192,4.631,3.354A134.421,134.421,0,0,1,310.6,388.372h12.33s-30.168-26.033-44-28.034c-12.33-1.772-17.133,7.147-16.1,16.752a12.445,12.445,0,0,1,7.852-13.054,12.367,12.367,0,0,1,5.66-.762,20.688,20.688,0,0,1,8.5,3.164" transform="translate(-246.99 -331.295)" fill="#9e925e" fill-rule="evenodd"/>
      <path id="Path_174723" data-name="Path 174723" d="M240.431,582.4h-5.489l.057-.343a15.984,15.984,0,0,0,.248-2.535c0-3.354-1.486-7.28-5.679-7.28a7.145,7.145,0,0,0-3.964,1.448,12.98,12.98,0,0,0-3.373,3.392c-.991,1.525-1.753,3.221-2.592,4.822-.076.152-.172.324-.248.476h-.1V575.9h-1.7v6.48h-4.955v-.648c0-6.861-4.955-9.281-9.2-9.281H196.9V573.9c.476-.038,6.041-.057,6.308-.057,4.745,0,7.585,3.087,7.6,8.252v.286H189.853v-10.92c-.5-.057-1.391-.1-1.772-.1-3.087,0-7.68,2.23-7.68,7.013a4.974,4.974,0,0,0,1.677,3.907,6.013,6.013,0,0,0,3.945,1.372h.534l1.086-1.162.1-.1H186.5a3.953,3.953,0,0,1-4.25-4.1,5.27,5.27,0,0,1,2-4.307,5.749,5.749,0,0,1,3.3-1.22h.591v10.882h53.952V564.2h-1.7v18.2Zm-7.185-.21-.057.21H221.031l.076-.343c1.067-4.726,5.317-8.4,8.271-8.4.953,0,4.059.438,4.059,6.194a11.623,11.623,0,0,1-.191,2.344m14.255,1.467h1.7V564.2h-1.7Zm-62.585-14.979a1.3,1.3,0,1,0-1.3-1.3,1.285,1.285,0,0,0,1.3,1.3m77.24.019a1.3,1.3,0,1,0-1.3-1.3,1.285,1.285,0,0,0,1.3,1.3m-73.371-.019a1.3,1.3,0,1,0-1.3-1.3,1.3,1.3,0,0,0,1.3,1.3m90.981,14.979h1.7V564.2h-1.7Zm-22.107-5.126c0,2.916,2.42,5.126,5.622,5.126h3.811V571.48a14.417,14.417,0,0,0-1.658-.1c-4.364,0-7.775,3.144-7.775,7.147M265.4,582.4h-1.62a3.976,3.976,0,0,1-4.288-4.1,5.3,5.3,0,0,1,5.279-5.527h.629Zm22.716-16.294a1.3,1.3,0,1,0,1.3,1.3,1.323,1.323,0,0,0-1.3-1.3m12.559,5.66c-4.421,0-7.89,3.011-7.89,6.88,0,3.678,3.221,5.012,5.393,5.012a5.58,5.58,0,0,0,.648-.019l.838-.877.362-.381H298.9c-2.153,0-4.307-1.22-4.307-3.945a5.423,5.423,0,0,1,5.279-5.165h.286v10.634c0,2.039-.381,3.926-3.145,3.926a5.541,5.541,0,0,1-.877-.1l-.21,1.3a7.766,7.766,0,0,0,1.525.133c1.315,0,4.4-.438,4.4-4.536V571.861a10.387,10.387,0,0,0-1.182-.1m-13.416,12.959c0,2.23-.9,3.144-3.087,3.144a4.524,4.524,0,0,1-.839-.1l-.21,1.353a9.273,9.273,0,0,0,1.525.114c1.3,0,4.326-.4,4.326-4.021V573.2h-1.7v11.53Zm-21.23-18.619a1.3,1.3,0,1,0,1.3,1.3,1.322,1.322,0,0,0-1.3-1.3m6.842,18.619c0,2.23-.9,3.144-3.087,3.144a4.524,4.524,0,0,1-.839-.1l-.21,1.353a9.273,9.273,0,0,0,1.525.114c1.3,0,4.307-.4,4.307-4.021V573.2h-1.7v11.53Z" transform="translate(-180.381 -496.489)" fill="#008556"/>
      <path id="Path_174724" data-name="Path 174724" d="M297.78,409.412l-4.193-4.212-3.7,3.7-3.7-3.7L282,409.412l4.193,4.212,3.7-3.7,3.7,3.7Z" transform="translate(-262.618 -367.79)" fill="#008556"/>
      <path id="Path_174725" data-name="Path 174725" d="M436.453,219.229a15.139,15.139,0,0,0-1.163-2.192,14.912,14.912,0,0,0-17.457-5.984c-.381-1.372-.667-2.153-.667-2.153s-.3.8-.667,2.153a14.919,14.919,0,0,0-17.438,5.984,15.145,15.145,0,0,0-1.163,2.192,14.93,14.93,0,0,1,10.177-4.841,14.887,14.887,0,0,0-5.832,11.816,15.165,15.165,0,0,0,.21,2.477,14.966,14.966,0,0,1,6.975-10.272,14.94,14.94,0,0,0,.781,14.808,14.175,14.175,0,0,0,1.525,1.963,14.925,14.925,0,0,1,3.43-16.713c-.1,1.105-.171,2.287-.171,3.488a41.712,41.712,0,0,0,2.173,13.073,41.714,41.714,0,0,0,2.172-13.073,34.477,34.477,0,0,0-.172-3.488,14.925,14.925,0,0,1,3.43,16.713,15.422,15.422,0,0,0,1.525-1.963,14.894,14.894,0,0,0,.781-14.808,14.907,14.907,0,0,1,6.975,10.272,14.866,14.866,0,0,0-5.622-14.293,14.9,14.9,0,0,1,10.2,4.841" transform="translate(-356.431 -208.9)" fill="#008556"/>
      <path id="Path_174726" data-name="Path 174726" d="M419.9,367.611s10.729-15.475,29.577,4.593c17.762,18.905,24.413,15.722,29.463,9.719a7.952,7.952,0,0,1-.724,1.448c-.343.553-.553.858-.629.953a12.955,12.955,0,0,1-10.5,5.508c-5.66.057-12.673-3.335-20.525-12.006-17.476-19.305-26.661-10.215-26.661-10.215" transform="translate(-374.238 -332.755)" fill="#008556" fill-rule="evenodd"/>
    </g>
  </g>
</svg>
