<svg xmlns="http://www.w3.org/2000/svg" width="155.776" height="98.146" viewBox="0 0 155.776 98.146">
  <g id="Ministry-of-Culture" transform="translate(0 0)">
    <path id="Path_174773" data-name="Path 174773" d="M127.191,542.425,125.786,541l-1.386,1.425,1.386,1.405Z" transform="translate(-119.95 -484.033)" fill="#0f2837"/>
    <path id="Path_174774" data-name="Path 174774" d="M110.371,542.425,108.986,541l-1.386,1.425,1.386,1.405Z" transform="translate(-106.429 -484.033)" fill="#0f2837"/>
    <path id="Path_174775" data-name="Path 174775" d="M247.171,541.825l-1.386-1.425-1.386,1.425,1.386,1.425Z" transform="translate(-216.531 -483.55)" fill="#0f2837"/>
    <g id="Group_43121" data-name="Group 43121" transform="translate(0 0)">
      <path id="Path_174776" data-name="Path 174776" d="M133.548,565.352a2.87,2.87,0,0,0-4-1.464,3.213,3.213,0,0,0-1.093.9,4.46,4.46,0,0,0-.722,1.347,5.186,5.186,0,0,0-.273,1.659,3.321,3.321,0,0,0,.839,2.42,3.049,3.049,0,0,0,2.322.859,3.839,3.839,0,0,0,1.269-.2,3.9,3.9,0,0,0,1.054-.566v1.581c0,.293-.488.527-1.483.683s-17.877.234-19.828.234H111.1a2.5,2.5,0,0,1-1.6-.41,1.642,1.642,0,0,1-.468-1.385l.1-7.611-1.776.312v1.366a10.013,10.013,0,0,0-4.235,1.776A3.646,3.646,0,0,0,101.6,569.8a2.725,2.725,0,0,0,.293,1.288,2.677,2.677,0,0,0,.781.956,3.768,3.768,0,0,0,1.151.585,4.835,4.835,0,0,0,1.425.2,4.276,4.276,0,0,0,2.225-.546c.254,1.7,1.464,2.537,3.61,2.537h.527c.8,0,16.9-.019,17.506-.039s1.132-.059,1.6-.117.859-.136,1.21-.215a4.843,4.843,0,0,0,.937-.332,2.407,2.407,0,0,0,1.229-1.171,5.651,5.651,0,0,0,.351-2.264,12.191,12.191,0,0,0-.9-5.328m-1.6,3.845a4.4,4.4,0,0,1-1.132.156,2.129,2.129,0,0,1-1.444-.429,1.547,1.547,0,0,1-.507-1.249,2.342,2.342,0,0,1,.566-1.581,1.766,1.766,0,0,1,1.386-.644,1.533,1.533,0,0,1,1.386.781,6.137,6.137,0,0,1,.644,2.537,2.959,2.959,0,0,1-.9.429m-26.425,1.639a4.716,4.716,0,0,1-.917-.078,3.048,3.048,0,0,1-.781-.254,1.2,1.2,0,0,1-.527-.449,1.09,1.09,0,0,1-.2-.683,1.424,1.424,0,0,1,.351-.917,3.352,3.352,0,0,1,.937-.742,7.38,7.38,0,0,1,1.366-.546,10.1,10.1,0,0,1,1.6-.312l.039,3.61a4.281,4.281,0,0,1-1.874.371" transform="translate(-101.6 -502.061)" fill="#0f2837"/>
      <path id="Path_174777" data-name="Path 174777" d="M394.291,554.105l-1.386-1.405-1.405,1.405,1.405,1.425Z" transform="translate(-334.923 -493.449)" fill="#0f2837"/>
      <path id="Path_174778" data-name="Path 174778" d="M411.091,554.105l-1.386-1.405-1.405,1.405,1.405,1.425Z" transform="translate(-348.445 -493.449)" fill="#0f2837"/>
      <path id="Path_174779" data-name="Path 174779" d="M528.691,552.225l-1.405-1.425-1.386,1.425,1.386,1.405Z" transform="translate(-443.094 -491.92)" fill="#0f2837"/>
      <path id="Path_174780" data-name="Path 174780" d="M535.686,568.53l1.405-1.425-1.405-1.405-1.386,1.405Z" transform="translate(-449.854 -503.912)" fill="#0f2837"/>
      <path id="Path_174781" data-name="Path 174781" d="M520.291,567.105l-1.405-1.405-1.386,1.405,1.386,1.425Z" transform="translate(-436.333 -503.912)" fill="#0f2837"/>
      <path id="Path_174782" data-name="Path 174782" d="M353.916,547.812l.059,11.007a.739.739,0,0,1-.234.546,1.418,1.418,0,0,1-.6.351,3.521,3.521,0,0,1-.839.2c-.312.039-16.023.059-16.354.059-1.776,0-2.674-.468-2.674-1.386,0-.117.039-.449.1-.976s.137-1.093.2-1.737l-1.522-.176c-.039.2-.059.429-.1.683s-.059.507-.117.761c-.039.254-.1.507-.137.761s-.078.449-.117.625a1.583,1.583,0,0,1-.878,1.132c-.468.234-16.589.332-17.584.332h0c-.449,0-.878,0-1.288-.019s-.781-.039-1.132-.059a3.614,3.614,0,0,0,1.171-2.752,4.608,4.608,0,0,0-.273-1.561,4.3,4.3,0,0,0-.761-1.268,3.782,3.782,0,0,0-1.132-.859,3.144,3.144,0,0,0-2.732,0,3.7,3.7,0,0,0-1.132.859,3.612,3.612,0,0,0-.761,1.268,4.176,4.176,0,0,0-.273,1.561,3.585,3.585,0,0,0,1.171,2.752,10.793,10.793,0,0,1-1.151.059c-.41.019-16.237.019-16.667.019a2.4,2.4,0,0,1-1.581-.41,1.709,1.709,0,0,1-.488-1.386l.1-10.675-1.776.312.1,11.026c.039,2.088,1.249,3.142,3.669,3.142.839,0,17.076-.059,17.9-.2a13.461,13.461,0,0,0,2.283-.586,13.951,13.951,0,0,0,2.283.586,14.981,14.981,0,0,0,2.478.2c.937,0,17.174-.137,17.857-.39a2.733,2.733,0,0,0,1.464-1.112c.585,1,1.756,1.5,3.513,1.5h0c.566,0,16.471-.059,16.979-.176a3.791,3.791,0,0,0,1.347-.566,2.871,2.871,0,0,0,.956-1.034,3.058,3.058,0,0,0,.371-1.581l.1-11.143Zm-45.57,11.612c-1.386-.449-2.069-1.19-2.069-2.225a2.377,2.377,0,0,1,.156-.839,2.252,2.252,0,0,1,.429-.683,1.905,1.905,0,0,1,.664-.449,2.27,2.27,0,0,1,.82-.156,2.166,2.166,0,0,1,.8.156,1.905,1.905,0,0,1,.664.449,2.116,2.116,0,0,1,.6,1.522c0,1.034-.7,1.776-2.069,2.225" transform="translate(-248.725 -489.264)" fill="#0f2837"/>
      <path id="Path_174783" data-name="Path 174783" d="M664.317,561.981l-.117-14.169,1.776-.312-.117,14.481Z" transform="translate(-554.403 -489.264)" fill="#0f2837"/>
      <path id="Path_174784" data-name="Path 174784" d="M714.467,562.729a3.38,3.38,0,0,1-1.034,2.576,3.978,3.978,0,0,1-2.83.956,4.1,4.1,0,0,1-2.908-.937,3.52,3.52,0,0,1-1-2.693,6.47,6.47,0,0,1,.312-2.069,6.4,6.4,0,0,1,.839-1.717,4.366,4.366,0,0,1,1.23-1.171,2.791,2.791,0,0,1,1.5-.429,2.857,2.857,0,0,1,1.522.429,4.367,4.367,0,0,1,1.229,1.171,5.72,5.72,0,0,1,.82,1.737,6.964,6.964,0,0,1,.312,2.147m-5.523-7.279-1.386-1.425,1.386-1.425,1.386,1.425Zm4,7.475a5.523,5.523,0,0,0-.176-1.444,3.865,3.865,0,0,0-.488-1.151,2.761,2.761,0,0,0-.742-.761,1.8,1.8,0,0,0-.937-.273,1.942,1.942,0,0,0-.917.234,2.394,2.394,0,0,0-.761.644,3.589,3.589,0,0,0-.507.937,3.654,3.654,0,0,0-.2,1.151,1.766,1.766,0,0,0,.6,1.464,2.73,2.73,0,0,0,1.757.507,4.514,4.514,0,0,0,.9-.1,2.108,2.108,0,0,0,.742-.293,1.848,1.848,0,0,0,.508-.429.626.626,0,0,0,.215-.488m-.722-7.475-1.385-1.425,1.385-1.425,1.386,1.425Z" transform="translate(-588.609 -493.369)" fill="#0f2837"/>
      <path id="Path_174785" data-name="Path 174785" d="M743.3,592a13.985,13.985,0,0,0,2.244-1.034,12.01,12.01,0,0,0,1.8-1.229,5.831,5.831,0,0,0,1.171-1.288,2.182,2.182,0,0,0,.429-1.229,3.9,3.9,0,0,0-.156-.917,11.764,11.764,0,0,0-.429-1.229c-.2-.449-.41-.9-.664-1.386s-.527-.937-.82-1.386l1.62-.9a10.338,10.338,0,0,1,1.483,2.791,8.821,8.821,0,0,1,.547,2.849,5.693,5.693,0,0,1-1.62,3.884,11.385,11.385,0,0,1-4.567,2.849Z" transform="translate(-618.066 -516.549)" fill="#0f2837"/>
      <path id="Path_174786" data-name="Path 174786" d="M795.717,561.981l-.117-14.169,1.776-.312-.117,14.481Z" transform="translate(-660.159 -489.264)" fill="#0f2837"/>
      <path id="Path_174787" data-name="Path 174787" d="M810.4,572.761a14.8,14.8,0,0,0,2.244-1.034,12,12,0,0,0,1.8-1.229,5.843,5.843,0,0,0,1.171-1.288,2.183,2.183,0,0,0,.429-1.23,3.893,3.893,0,0,0-.156-.917,11.764,11.764,0,0,0-.429-1.229c-.2-.449-.41-.9-.664-1.386s-.527-.937-.82-1.386l1.62-.9a10.34,10.34,0,0,1,1.483,2.791,8.827,8.827,0,0,1,.546,2.849,5.693,5.693,0,0,1-1.62,3.884,11.382,11.382,0,0,1-4.567,2.849Zm4.118-12.412-1.386-1.425,1.386-1.425,1.386,1.425Z" transform="translate(-672.071 -497.313)" fill="#0f2837"/>
      <path id="Path_174788" data-name="Path 174788" d="M862.5,590.148c3.24-.449,5.094-1.62,5.6-3.532a3.336,3.336,0,0,1-1.054.527,4.428,4.428,0,0,1-1.269.176,3.017,3.017,0,0,1-2.381-1.034,3.959,3.959,0,0,1-.9-2.713,5.493,5.493,0,0,1,.273-1.737,4.483,4.483,0,0,1,.742-1.385,3.221,3.221,0,0,1,1.132-.917,3.106,3.106,0,0,1,1.405-.332,3.044,3.044,0,0,1,2.732,1.581,8.58,8.58,0,0,1,.976,4.469,6.543,6.543,0,0,1-.468,2.5,6.358,6.358,0,0,1-1.308,2.03,6.962,6.962,0,0,1-2.03,1.444A8.756,8.756,0,0,1,863.3,592Zm3.571-4.645a4.458,4.458,0,0,0,1.229-.176,2.994,2.994,0,0,0,.937-.449,5.928,5.928,0,0,0-.663-2.752,1.823,1.823,0,0,0-3.006-.332,2.5,2.5,0,0,0-.546,1.7,1.914,1.914,0,0,0,.546,1.464,1.976,1.976,0,0,0,1.5.546" transform="translate(-714.003 -514.778)" fill="#0f2837"/>
      <path id="Path_174789" data-name="Path 174789" d="M102.2,662.7h1.834l4.02,6.87,4.02-6.87h1.776l.625,13.212h-1.874l-.429-10.148-3.728,6.245h-.956l-3.669-6.167-.449,10.07H101.6Z" transform="translate(-101.6 -581.982)" fill="#0f2837"/>
      <path id="Path_174790" data-name="Path 174790" d="M178.325,662.4l1.405,1.405-1.405,1.425-1.425-1.425Zm-.878,4.059h1.776v9.212h-1.776Z" transform="translate(-162.205 -581.74)" fill="#0f2837"/>
      <path id="Path_174791" data-name="Path 174791" d="M201.719,691.526V682.9c0-.117,0-.312-.02-.585h1.7l.059,1.385c.117-.156.273-.332.429-.527a3.307,3.307,0,0,1,.625-.527,3.622,3.622,0,0,1,.878-.39,4.07,4.07,0,0,1,1.132-.156,3.265,3.265,0,0,1,2.674,1.054,4.324,4.324,0,0,1,.878,2.849v5.523H208.3V686.14a2.743,2.743,0,0,0-.546-1.893,2,2,0,0,0-1.561-.605,2.424,2.424,0,0,0-1.288.312,2.355,2.355,0,0,0-.82.82,3.547,3.547,0,0,0-.449,1.151,6.01,6.01,0,0,0-.137,1.327v4.274Z" transform="translate(-182.165 -597.596)" fill="#0f2837"/>
      <path id="Path_174792" data-name="Path 174792" d="M254.525,662.4l1.405,1.405-1.405,1.425-1.425-1.425Zm-.9,4.059H255.4v9.212h-1.776Z" transform="translate(-223.533 -581.74)" fill="#0f2837"/>
      <path id="Path_174793" data-name="Path 174793" d="M275.693,688.8a3.985,3.985,0,0,0,1.19.8,4.1,4.1,0,0,0,1.6.293,3.346,3.346,0,0,0,1.483-.293.945.945,0,0,0,.586-.9.99.99,0,0,0-.137-.547,1.243,1.243,0,0,0-.429-.41,3.369,3.369,0,0,0-.82-.332c-.332-.1-.761-.215-1.249-.332a7.177,7.177,0,0,1-1.054-.312,3.64,3.64,0,0,1-.937-.527,2.709,2.709,0,0,1-.683-.8,2.232,2.232,0,0,1-.254-1.112,2.1,2.1,0,0,1,.312-1.171,2.639,2.639,0,0,1,.82-.859,3.875,3.875,0,0,1,1.151-.527,5.061,5.061,0,0,1,1.327-.176,5.646,5.646,0,0,1,2.01.312,4.846,4.846,0,0,1,1.483.859L281.118,684a3.592,3.592,0,0,0-1.034-.644,3.706,3.706,0,0,0-1.464-.254,2.974,2.974,0,0,0-1.366.273.931.931,0,0,0-.507.917.954.954,0,0,0,.683.878,11.186,11.186,0,0,0,1.8.546,9.818,9.818,0,0,1,1.21.371,4.024,4.024,0,0,1,1,.527,2.45,2.45,0,0,1,.683.8,2.573,2.573,0,0,1,.254,1.151,2.237,2.237,0,0,1-.312,1.21,2.634,2.634,0,0,1-.859.878,3.9,3.9,0,0,1-1.229.527,5.973,5.973,0,0,1-1.444.176,5.124,5.124,0,0,1-3.923-1.405Z" transform="translate(-240.837 -597.193)" fill="#0f2837"/>
      <path id="Path_174794" data-name="Path 174794" d="M322.359,672.289H320.7v-1.483h1.659V667.8h1.776v3.005h2.693v1.483h-2.693v4.547a2.415,2.415,0,0,0,.351,1.522,1.226,1.226,0,0,0,.976.41,2.178,2.178,0,0,0,.859-.156,3.292,3.292,0,0,0,.683-.468l.82,1.093a3.652,3.652,0,0,1-1.19.8,3.979,3.979,0,0,1-1.444.254,2.684,2.684,0,0,1-2.147-.8,3.652,3.652,0,0,1-.683-2.479Z" transform="translate(-277.941 -586.087)" fill="#0f2837"/>
      <path id="Path_174795" data-name="Path 174795" d="M364.819,691.848v-8.626c0-.117,0-.312-.02-.566h1.7l.059,1.483a6.652,6.652,0,0,1,.41-.527,3.3,3.3,0,0,1,.624-.527,4.39,4.39,0,0,1,.859-.41,3.328,3.328,0,0,1,1.112-.176,4.473,4.473,0,0,1,.546.039,2.057,2.057,0,0,1,.468.117l-.39,1.659a2.454,2.454,0,0,0-.917-.137,2.607,2.607,0,0,0-1.054.215,2.645,2.645,0,0,0-.839.605,3.046,3.046,0,0,0-.566.9,2.948,2.948,0,0,0-.215,1.093v4.859h-1.776Z" transform="translate(-313.434 -597.918)" fill="#0f2837"/>
      <path id="Path_174796" data-name="Path 174796" d="M399.193,694.756a3.665,3.665,0,0,0,.449.312,1.309,1.309,0,0,0,.644.137.989.989,0,0,0,.546-.137,1.243,1.243,0,0,0,.41-.429,4.459,4.459,0,0,0,.351-.683c.117-.273.234-.586.39-.937l.234-.585L398.1,683.3h2.049l2.966,6.948,2.615-6.948h1.932l-3.689,8.977q-.263.644-.527,1.405a8.848,8.848,0,0,1-.664,1.444,3.941,3.941,0,0,1-.976,1.132,2.2,2.2,0,0,1-1.444.449,2.939,2.939,0,0,1-1.171-.2,2.836,2.836,0,0,1-.839-.507Z" transform="translate(-340.235 -598.562)" fill="#0f2837"/>
      <path id="Path_174797" data-name="Path 174797" d="M471.9,691.4a5.075,5.075,0,0,1-1.971-.39,4.71,4.71,0,0,1-1.542-1.054,5.256,5.256,0,0,1-1.015-1.561,5.018,5.018,0,0,1,0-3.786,4.9,4.9,0,0,1,1.015-1.561,4.514,4.514,0,0,1,1.542-1.054,5.122,5.122,0,0,1,3.923,0,4.71,4.71,0,0,1,1.542,1.054,4.9,4.9,0,0,1,1.015,1.561,5.018,5.018,0,0,1,0,3.786,5.257,5.257,0,0,1-1.015,1.561,4.711,4.711,0,0,1-1.542,1.054,4.59,4.59,0,0,1-1.952.39m0-1.542a2.84,2.84,0,0,0,1.288-.293,3.138,3.138,0,0,0,.976-.761,3.063,3.063,0,0,0,.605-1.073,3.628,3.628,0,0,0,0-2.459,3.4,3.4,0,0,0-.605-1.073,3.136,3.136,0,0,0-.976-.761,2.724,2.724,0,0,0-1.288-.293,2.838,2.838,0,0,0-1.288.293,3.137,3.137,0,0,0-.976.761,3.061,3.061,0,0,0-.6,1.073,3.9,3.9,0,0,0-.215,1.249,3.7,3.7,0,0,0,.215,1.229,3.632,3.632,0,0,0,.6,1.073,2.842,2.842,0,0,0,2.264,1.034" transform="translate(-395.689 -597.193)" fill="#0f2837"/>
      <path id="Path_174798" data-name="Path 174798" d="M524.159,666.735H522.5v-1.483h1.659v-.761a4.539,4.539,0,0,1,.273-1.62,3.194,3.194,0,0,1,.7-1.112,2.8,2.8,0,0,1,1.015-.644,3.587,3.587,0,0,1,1.21-.215,4.566,4.566,0,0,1,1.444.234,3.414,3.414,0,0,1,1.288.781l-.9,1.151a2.389,2.389,0,0,0-1.561-.605,1.645,1.645,0,0,0-1.23.488,2.454,2.454,0,0,0-.468,1.7v.586h2.635v1.483h-2.635v7.728h-1.776Z" transform="translate(-440.358 -580.533)" fill="#0f2837"/>
      <path id="Path_174799" data-name="Path 174799" d="M592.988,672.141a4.42,4.42,0,0,1-.683.82,6.439,6.439,0,0,1-1.112.859,6.311,6.311,0,0,1-3.376.956,6.943,6.943,0,0,1-2.674-.507,6.259,6.259,0,0,1-2.088-1.444,6.588,6.588,0,0,1-1.366-2.186,7.894,7.894,0,0,1,0-5.464,7.2,7.2,0,0,1,1.366-2.225,6.33,6.33,0,0,1,4.8-2.049,6.351,6.351,0,0,1,1.893.254,7.2,7.2,0,0,1,1.464.644,6.024,6.024,0,0,1,1.073.839,5.523,5.523,0,0,1,.722.878l-1.347,1.151c-.156-.215-.351-.449-.566-.7a3.693,3.693,0,0,0-.781-.664,4.356,4.356,0,0,0-1.054-.488,4.2,4.2,0,0,0-1.366-.2,4.478,4.478,0,0,0-1.952.41,4.353,4.353,0,0,0-1.464,1.132,4.91,4.91,0,0,0-.917,1.659,6.315,6.315,0,0,0-.312,2.03,6.116,6.116,0,0,0,.332,2.01,5.167,5.167,0,0,0,.917,1.639,4.229,4.229,0,0,0,1.444,1.093,4.65,4.65,0,0,0,1.913.39,4.573,4.573,0,0,0,1.542-.234,4.392,4.392,0,0,0,1.093-.546,5.021,5.021,0,0,0,.742-.644c.2-.215.351-.39.488-.546Z" transform="translate(-487.602 -580.533)" fill="#0f2837"/>
      <path id="Path_174800" data-name="Path 174800" d="M651.019,683.2H652.8v5.406a2.778,2.778,0,0,0,.527,1.893,1.987,1.987,0,0,0,1.542.586,2.424,2.424,0,0,0,1.288-.312,2.737,2.737,0,0,0,.82-.82,3.547,3.547,0,0,0,.449-1.151,7.465,7.465,0,0,0,.137-1.327V683.2h1.776v8.646a5.3,5.3,0,0,0,.02.566h-1.7l-.059-1.366c-.117.156-.273.332-.429.507a3.527,3.527,0,0,1-.644.508,4.58,4.58,0,0,1-.878.39,3.969,3.969,0,0,1-1.132.156,3.247,3.247,0,0,1-2.654-1.034,4.354,4.354,0,0,1-.859-2.849V683.2Z" transform="translate(-543.779 -598.481)" fill="#0f2837"/>
      <rect id="Rectangle_8529" data-name="Rectangle 8529" width="1.776" height="13.212" transform="translate(118.032 80.718)" fill="#0f2837"/>
      <path id="Path_174801" data-name="Path 174801" d="M725.259,672.289H723.6v-1.483h1.659V667.8h1.776v3.005h2.693v1.483h-2.693v4.547a2.415,2.415,0,0,0,.351,1.522,1.226,1.226,0,0,0,.976.41,2.178,2.178,0,0,0,.859-.156,3.293,3.293,0,0,0,.683-.468l.82,1.093a3.8,3.8,0,0,1-1.171.8,3.979,3.979,0,0,1-1.444.254,2.685,2.685,0,0,1-2.147-.8,3.652,3.652,0,0,1-.683-2.479v-4.723Z" transform="translate(-602.211 -586.087)" fill="#0f2837"/>
      <path id="Path_174802" data-name="Path 174802" d="M765.619,683.2H767.4v5.406a2.778,2.778,0,0,0,.527,1.893,1.986,1.986,0,0,0,1.542.586,2.425,2.425,0,0,0,1.288-.312,2.737,2.737,0,0,0,.82-.82,3.545,3.545,0,0,0,.449-1.151,7.454,7.454,0,0,0,.137-1.327V683.2h1.776v8.646a5.279,5.279,0,0,0,.02.566h-1.7l-.059-1.366c-.117.156-.273.332-.429.507a3.523,3.523,0,0,1-.644.508,4.581,4.581,0,0,1-.878.39,3.969,3.969,0,0,1-1.132.156,3.247,3.247,0,0,1-2.654-1.034,4.355,4.355,0,0,1-.859-2.849V683.2Z" transform="translate(-636.014 -598.481)" fill="#0f2837"/>
      <path id="Path_174803" data-name="Path 174803" d="M820.92,691.848v-8.626c0-.117,0-.312-.02-.566h1.7l.059,1.483a6.635,6.635,0,0,1,.41-.527,3.306,3.306,0,0,1,.625-.527,4.389,4.389,0,0,1,.859-.41,3.328,3.328,0,0,1,1.112-.176,4.477,4.477,0,0,1,.547.039,2.057,2.057,0,0,1,.468.117l-.39,1.659a2.453,2.453,0,0,0-.917-.137,2.607,2.607,0,0,0-1.054.215,2.645,2.645,0,0,0-.839.605,3.047,3.047,0,0,0-.566.9,2.949,2.949,0,0,0-.215,1.093v4.859H820.92Z" transform="translate(-680.522 -597.918)" fill="#0f2837"/>
      <path id="Path_174804" data-name="Path 174804" d="M861.96,689.938a5.489,5.489,0,0,1-.469.449,3.963,3.963,0,0,1-.82.527,6.919,6.919,0,0,1-1.19.449,6.2,6.2,0,0,1-1.561.2,5.364,5.364,0,0,1-1.971-.351,3.945,3.945,0,0,1-1.522-1.015,4.418,4.418,0,0,1-.976-1.561,5.6,5.6,0,0,1-.351-2.03,5.431,5.431,0,0,1,.332-1.893,4.385,4.385,0,0,1,.956-1.522,4.575,4.575,0,0,1,1.464-1.015,4.863,4.863,0,0,1,3.9.078,4.215,4.215,0,0,1,1.405,1.21,5.147,5.147,0,0,1,.8,1.717,7.716,7.716,0,0,1,.254,2.03h-7.279a2.761,2.761,0,0,0,.273,1.132,3.065,3.065,0,0,0,.663.9,2.8,2.8,0,0,0,.956.585,3.155,3.155,0,0,0,1.132.215,3.965,3.965,0,0,0,3.005-1.171Zm-1.6-4.059a2.949,2.949,0,0,0-.761-1.815,2.386,2.386,0,0,0-1.893-.761,2.927,2.927,0,0,0-1.132.215,2.634,2.634,0,0,0-.859.566,2.323,2.323,0,0,0-.546.82,2.353,2.353,0,0,0-.215.956h5.406Z" transform="translate(-706.438 -597.354)" fill="#0f2837"/>
      <path id="Path_174805" data-name="Path 174805" d="M720.824,279.847c-.976,13.193.215,26.327-.1,39.637-.059,2.439.254,5.055.059,7.514-.02.293-.1.507-.546.527a6.286,6.286,0,0,0-1.815,0c-.2-1.756-.117-3.122-.273-4.645a91.608,91.608,0,0,1-.176-9.621c-.039-6.187-.566-12.471-.117-18.638a78.142,78.142,0,0,0,.059-8,57.716,57.716,0,0,1-.1-6.752,11.945,11.945,0,0,1,3.006-.02" transform="translate(-597.444 -273.778)" fill="#eb5a3c"/>
      <path id="Path_174806" data-name="Path 174806" d="M115.487,260.879c1.073.1,1.561.429,1.639,1.639.117,1.815-.137,2.791.059,4.567.644,5.894-.742,11.885-.117,17.8.332,3.123.02,5.933.117,9.055.156,4.664-.039,9.953-.156,15.418H102.489c-.507-.722-.41-4.352-.254-5.308a13.528,13.528,0,0,0,.117-2.518c-.039-3.435.176-6.5.156-9.934a38.952,38.952,0,0,0-.371-6.03c-.293-1.756.156-4.84-.1-6.616-.332-2.225-.507-15.457-.39-17.994,0,0,12.119-.234,13.837-.078" transform="translate(-101.611 -258.537)" fill="#eb5a3c"/>
      <path id="Path_174807" data-name="Path 174807" d="M306.213,276.755c-.839-.312-.7.683-.7,1.19,0,.488,0,.781-.019,1.425-.02,1.269.1,4.762.1,6.011.02,2.108.156,3.962.117,5.621-.078,3.123-.078,6.265.039,9.407.312,7.787-.059,15.613.176,23.361.02.664.449.859,1.054,1.015l.9.156c-.039-6.635.488-13.6.078-20.219-.176-2.771-.078-5.523-.078-8.294,0-2.654-.02-5.308.02-7.962.039-1.62.02-3.22-.039-4.84-.059-1.991.039-5.835-.488-6.362-.273-.332-.605-.312-1.151-.507" transform="translate(-265.698 -271.31)" fill="#6e1946"/>
      <path id="Path_174808" data-name="Path 174808" d="M228.7,297.346c.878-.02.7-.683.7-1.21,0-.488.117-.781.117-1.425.02-1.288-.059-4.8-.078-6.069-.02-2.127-.137-3.981-.1-5.66.078-3.162.117-6.323,0-9.485-.273-7.865.137-15.749-.059-23.556-.02-.683-.468-.7-1.229-.742l-1.054.039c0,6.694.078,13.817.156,20.941.039,2.791,0,4.957,0,7.748,0,2.674.059,4.82.039,7.494,0,1.425-.059,2.986-.078,4.957-.02,2.01-.117,5.816.351,6.421a1.368,1.368,0,0,0,1.229.546" transform="translate(-202.527 -249.18)" fill="#91b9b4"/>
      <path id="Path_174809" data-name="Path 174809" d="M327.661,318.113c-.8-.1-.917-.468-.9-1.386.078-2.732-.1-8.587-.39-12.158a47.929,47.929,0,0,1,.215-9.758c.273-2.225-.117-3.864-.117-6.616-.02-3.61.2-6.44.2-8.88-.02-1.5-.059-3.005-.137-4.508-.059-1.405-.039-4.508-.039-4.84a5.722,5.722,0,0,1,1.288-.039,4.159,4.159,0,0,1,1.7.449,36.92,36.92,0,0,1,.234,6.148c0,1-.059,5.094,0,6.069.117,1.639.059,3.3.059,4.938.02,2.088.137,4.2.137,6.284,0,2.654-.215,5.308-.293,7.962-.117,4.9.507,11.222.449,15.32-.02.82.078,1.249-.781,1.249a12.256,12.256,0,0,0-1.62-.234" transform="translate(-282.384 -265.849)" fill="#eb5a3c"/>
      <path id="Path_174810" data-name="Path 174810" d="M687.981,308.014c.156-2.03-.273-5.172-.273-6.811,0-.956-.117-4.918-.059-5.874.1-1.581.02-3.181.02-4.781,0-2.03.117-4.059.1-6.089-.02-2.576-.273-5.133-.371-7.709-.2-5.347.6-12.471.273-16.257a21.4,21.4,0,0,0-4.82-.332,58.507,58.507,0,0,0-.273,9.6c.039,2.361-.176,5.094-.117,8.607.039,2.654.722,5.835.449,8a43.65,43.65,0,0,0-.156,9.446c.429,4.489.273,11.846.332,11.944Z" transform="translate(-569.09 -257.995)" fill="#b41932"/>
      <path id="Path_174811" data-name="Path 174811" d="M781.046,307.031c.215-5.543.176-8.88.273-13.661.059-3.376-.468-7.65-.41-11.2a111.968,111.968,0,0,0-.332-14.813c-.117-1.366.078-3.923.019-5.289-.039-.917-.078-2.088-.1-3.005a23.02,23.02,0,0,0,7.943.234c5.523-1.171,14.656.039,14.656.039a9.107,9.107,0,0,1,.6,3.61,61.644,61.644,0,0,0-.039,6.577c.137,3.767-.566,7.1-.566,12.412,0,3.493.527,5.8.644,8.119.117,2.4-.293,4.411-.137,8.2.1,2.342.039,8.489.078,9.055,0,0-16.452.1-19.965-.332a6.435,6.435,0,0,0-2.674.059" transform="translate(-648.006 -256.894)" fill="#6e1946"/>
      <path id="Path_174812" data-name="Path 174812" d="M616.266,249.236c.1,8.275.156,17.447.566,24.9.137,2.5.059,5.621.156,8.45.039,1.269-.176,3.786-.273,5.464-.078,1.366-.039,2.732-.019,4.079a37.259,37.259,0,0,1-.059,4.528,8.763,8.763,0,0,0-2.674,0,10.973,10.973,0,0,1-.078-3.3c.176-9.934-.527-17.174-.351-26.307.059-2.966-.039-7.026-.273-9.973a41.965,41.965,0,0,1,.2-7.982,26.079,26.079,0,0,1,2.81.137" transform="translate(-513.32 -249.1)" fill="#fac39b"/>
      <path id="Path_174813" data-name="Path 174813" d="M746.855,250.383c.254,4.274.059,7.084.137,10.753.078,3.22.429,5.972.234,9.66-.176,3.181.156,6.382.234,9.582.059,3.1.117,6.226.156,9.329.059,2.4.117,4.586.117,7.006,0,.41-.039,1.268-.039,1.678a6.956,6.956,0,0,0-1.678-.078,15.674,15.674,0,0,1-4.313-.176c-.507-.117-.078-8.528-.059-9.309.059-3.162.059-6.323.059-9.485-.019-3.2-.312-6.6-.371-9.777-.058-3.24.117-6.265.039-9.485-.078-3.259-.176-6.03-.273-9.29-.02-.664.6-1.015,1.659-.722,1.366.351,2.83-.1,4.1.312" transform="translate(-616.294 -249.797)" fill="#ff9619"/>
      <path id="Path_174814" data-name="Path 174814" d="M193.847,271.907a2.124,2.124,0,0,1,1.717,2.147c.02,1.561,0,2.947-.039,4.313-.039,1.522-.1,3.005-.059,4.664.078,6.753.371,13.193.078,20.179-.254,5.913.293,11.69.234,17.115-1.8-.1-3.942-.273-5.679-.351.488-10.012.176-19.5.059-29.918-.059-5.855.9-10.441.078-18.247a14.776,14.776,0,0,1,3.61.1" transform="translate(-172.828 -267.321)" fill="#6e1946"/>
      <path id="Path_174815" data-name="Path 174815" d="M402.611,287.065c-.117-3.571-.1-10.3.176-13.9.293-3.981-.683-10.012-2.888-9.895-1.913-.1-4.02.117-5.952.215-1.542.078-3.513.078-5.055.215-2.635.234-2.927-.117-5.582-.117-3.318,0-6.167.273-9.485.273-3.2,0-6.772-.078-9.973-.332a93.548,93.548,0,0,0-9.6-.585c-.449.02-.7,2.03-.8,4.528-.078,2.4-.234,7.572-.039,10.051a7.193,7.193,0,0,1,5.094-2.654,19.806,19.806,0,0,1,4.684.02,10.635,10.635,0,0,0-1.991-1.854,4.1,4.1,0,0,0-1.834-.976c-.839-.117-1.717-.039-2.576-.1a4.726,4.726,0,0,1,4.391-1.561c1.444.2,3.864,2.713,4.742,2.03.976-.761.586-3.747,1.874-4.079,1.054-.273,1.737,3.728,2.244,4.606a7.281,7.281,0,0,1,4.82-2.791c1-.117,4.04.254,4.45,1.7a6.523,6.523,0,0,0-6.284,2.771,9.673,9.673,0,0,1,9.777,1.327,9.526,9.526,0,0,1,1.874,2.01,2.624,2.624,0,0,1,.664,2.127c-1.269-.254-2.439-2.439-4.625-3.1a9.745,9.745,0,0,0-5.64.1c4.157.683,9.914,6.206,7.923,10.753-.644,1.464-.82.488-1.054-.742a7.127,7.127,0,0,0-1.386-3.259,15.892,15.892,0,0,0-2.01-2.283,7,7,0,0,0-3.669-1.483c2.674.761,4.411,6.089,4.625,6.655a12.6,12.6,0,0,1,.585,4.43c.019.839.1,3.786-.976,4.059.02,0,.176-7.123-4.859-11.2,1.308,2.3,1.425,5.133,1.269,7.709a9.442,9.442,0,0,1-.956,3.923c-.137.293-.664,1.6-.878,1.639-.664.156-.312-3.981-.41-4.723-.117-.9-1.756-7.026-3.474-5.523-.878.761-.429,4.2-.312,5.738.137,1.874.351,4.625.39,6.5a87.733,87.733,0,0,0,.683,10.578c4.489-2.42,24.2-12.51,27.01-4.176.02.273-.156.078-.156.078h0c-1.932-2.888-7.182-1.405-9.816-.585a67.713,67.713,0,0,0-13.407,6.147c6.967.02,17.72,0,25.683,0a3.246,3.246,0,0,0,3.24-3.357c-.039-1.347-.078-2.966-.078-4.7,0-1.971.1-4.1.156-6.069.078-3.884-.449-6.206-.585-10.129m-39.129,4.1a30.368,30.368,0,0,0-.663,3.181c-.059.449-.41,2.869-.41,2.869a.971.971,0,0,1-.332-.449,15.475,15.475,0,0,1-.8-5.816c.351-5.582,2.342-7.084,2.342-7.065-.9-.507-2.693,1.6-3.649,2.927-1.269,1.776-1.054,2.986-1.21,5.757-.683-.137-1.347-1.269-1.386-2.108-.234-4.352,1.7-8.333,3.786-9.973.234-.215-2.4.312-2.869.488a7.273,7.273,0,0,0-3.786,3.571c-1.776,3.435-.644,7.533-.878,11.3-.137,2.166.176,4.313.156,6.479-.02,1.639-.429,1.952,1.21,2.088a16.494,16.494,0,0,1,1.932.293,18.356,18.356,0,0,1,9.66,5.425c.429-5.016.488-9.641.488-14.676,0-1.991.332-6.265-1-7.963-1.347-1.7-2.283,2.537-2.6,3.669m-9.446,14.656c-.1,1.952.039,3.513.059,5.8a32.636,32.636,0,0,1,4.977.156c1.835.117,3.786-.078,5.621.156-2.81-3.044-6.4-5.738-10.656-6.109m3.142-26.893a21.28,21.28,0,0,1,3.845-1.874,7.157,7.157,0,0,0-6.245.546c-1.737,1.093-1.151,4.137-1.386,6.089a12.381,12.381,0,0,1,3.786-4.762" transform="translate(-304.192 -260.231)" fill="#0f2837"/>
      <path id="Path_174816" data-name="Path 174816" d="M645.693,266.608a.56.56,0,0,1,.468.507c.137,5.425.254,10.3.605,15.925a47.317,47.317,0,0,1-.078,8.119c-.429,3.435.449,6.226.215,9.68-.312,4.567.351,8.294.1,12.861l-5.66.117c-.468.019-.9-.429-.82-1.522.059-1.093-.02-5.777-.02-9.309s.468-6.792.078-10.734c-.2-1.932.273-4,.156-5.933-.2-3.513-.312-6.6-.39-10.109-.039-2.088,0-5.269-.059-7.318-.039-1.425.273-2.479,1.054-2.83.859-.39,3.337.41,4.352.546" transform="translate(-535.154 -262.666)" fill="#91b9b4"/>
      <path id="Path_174817" data-name="Path 174817" d="M248.466,298.48c-.059,1.308-.078,1.776-.078,2.264,0,.332.293.39.566.527.176.1,1.7.41,2.205.527a7.655,7.655,0,0,0,1.483.156c1.464-.019,2.927.488,4.391.351a.362.362,0,0,0,.137-.039,1.314,1.314,0,0,0,.644-1.093c.176-1.249-.176-2.342.02-4.606s.02-8.411.039-9.895c.1-11.2-.546-11.378-.254-20.023a41.75,41.75,0,0,0-.312-7.26,21.242,21.242,0,0,1-.273-4.469.832.832,0,0,0-.781-1.015c-2.42-.117-7.514.254-7.514.254a12.265,12.265,0,0,0-.254,3.708c.039,1.054-.156,2.791-.156,3.845,0,1.19-.078,2.381-.02,3.571.137,3.2.234,6.4.137,9.582-.254,8.1.468,12.8.156,20.745Z" transform="translate(-219.661 -252.949)" fill="#ff9619"/>
    </g>
  </g>
</svg>
