<svg xmlns="http://www.w3.org/2000/svg" width="43.848" height="35.079" viewBox="0 0 43.848 35.079">
  <g id="Group_43308" data-name="Group 43308" transform="translate(-338.37 -900.155)">
    <g id="human-resources" transform="translate(338.371 900.154)">
      <path id="Path_170348" data-name="Path 170348" d="M40.77,5.846V3.654A3.658,3.658,0,0,0,37.116,0H35.654A3.658,3.658,0,0,0,32,3.654V5.846a4.385,4.385,0,1,0,8.77,0ZM35.654,1.462h1.462a2.193,2.193,0,0,1,2.192,2.192H38.019A1.9,1.9,0,0,1,36.312,2.6.761.761,0,0,0,35,2.6l-.327.653a.726.726,0,0,1-.657.4h-.558A2.193,2.193,0,0,1,35.654,1.462Zm.731,7.308a2.923,2.923,0,0,1-2.923-2.923V5.116h.558a2.176,2.176,0,0,0,1.743-.862,3.356,3.356,0,0,0,2.256.862h1.289v.731A2.923,2.923,0,0,1,36.385,8.77Zm0,0" transform="translate(-29.077)" fill="#969caa"/>
      <path id="Path_170349" data-name="Path 170349" d="M112,168h1.462v1.462H112Zm0,0" transform="translate(-101.769 -152.653)" fill="#969caa"/>
      <path id="Path_170350" data-name="Path 170350" d="M360.77,5.846V3.654A3.658,3.658,0,0,0,357.116,0h-1.462A3.658,3.658,0,0,0,352,3.654V5.846a4.385,4.385,0,0,0,8.77,0Zm-5.116-4.385h1.462a2.192,2.192,0,0,1,2.192,2.192h-1.289A1.9,1.9,0,0,1,356.312,2.6.761.761,0,0,0,355,2.6l-.326.653a.725.725,0,0,1-.653.4h-.562A2.192,2.192,0,0,1,355.654,1.462Zm.731,7.308a2.923,2.923,0,0,1-2.923-2.923V5.116h.558a2.176,2.176,0,0,0,1.743-.862,3.356,3.356,0,0,0,2.256.862h1.289v.731A2.923,2.923,0,0,1,356.385,8.77Zm0,0" transform="translate(-319.845)" fill="#969caa"/>
      <path id="Path_170351" data-name="Path 170351" d="M38.733,112H34.348a5.122,5.122,0,0,0-5.116,5.116v4.733a8.078,8.078,0,0,0-5.846-2.541H20.463a8.078,8.078,0,0,0-5.846,2.541v-4.733A5.122,5.122,0,0,0,9.5,112H5.116A5.122,5.122,0,0,0,0,117.116v9.5a1.462,1.462,0,0,0,1.462,1.462H12.424v7.308a1.462,1.462,0,0,0,1.462,1.462H29.963a1.462,1.462,0,0,0,1.462-1.462v-7.308H42.387a1.462,1.462,0,0,0,1.462-1.462v-9.5A5.122,5.122,0,0,0,38.733,112Zm-1.109,1.462-1.084,2.529-1.084-2.529Zm-6.93,3.654a3.647,3.647,0,0,1,3.192-3.607l1.923,4.484v8.623H31.391a1.049,1.049,0,0,0-.014-.1c-.008-.073-.02-.146-.03-.219-.027-.2-.061-.4-.1-.6-.017-.082-.034-.163-.054-.244-.056-.228-.121-.452-.2-.674-.012-.037-.021-.073-.035-.11-.079-.219-.167-.443-.266-.658Zm-7.308,3.654a6.5,6.5,0,0,1,1.663.227l-3.124,3.124L18.8,121a6.5,6.5,0,0,1,1.663-.227Zm-10.231-3.654V124c-.1.214-.187.434-.266.658-.012.034-.021.069-.032.1q-.114.336-.2.681c-.02.08-.036.161-.053.242q-.064.3-.1.605c-.01.073-.022.146-.03.219,0,.035-.011.073-.014.105H8.039v-8.623l1.923-4.487A3.647,3.647,0,0,1,13.154,117.116Zm-4.763-3.654-1.084,2.529-1.084-2.529Zm-6.93,3.654a3.647,3.647,0,0,1,3.192-3.607l1.923,4.484v8.623H1.462Zm12.424,10.231a6.552,6.552,0,0,1,.056-.828,6.438,6.438,0,0,1,.6-2.032,6.6,6.6,0,0,1,2.787-2.895l3.865,3.865v9.929H13.885Zm16.078,8.039H22.655v-9.929l3.865-3.865a6.608,6.608,0,0,1,2.786,2.9,6.472,6.472,0,0,1,.658,2.858Zm12.424-8.77H37.271v-8.623l1.923-4.487a3.647,3.647,0,0,1,3.192,3.61Zm0,0" transform="translate(0 -101.769)" fill="#969caa"/>
      <path id="Path_170352" data-name="Path 170352" d="M432,168h1.462v1.462H432Zm0,0" transform="translate(-392.537 -152.653)" fill="#969caa"/>
      <path id="Path_170353" data-name="Path 170353" d="M194.231,70.577V69.116a5.116,5.116,0,1,0-10.231,0v1.462a5.116,5.116,0,1,0,10.231,0Zm-5.116-5.116a3.66,3.66,0,0,1,3.581,2.923h-3.129l-.525-1.057a.73.73,0,0,0-.537-.395.717.717,0,0,0-.634.2l-1.251,1.247h-1.086A3.66,3.66,0,0,1,189.116,65.462Zm0,8.77a3.658,3.658,0,0,1-3.654-3.654v-.731h1.462a.731.731,0,0,0,.517-.214l.745-.745.277.555a.731.731,0,0,0,.654.4h3.654v.731A3.658,3.658,0,0,1,189.116,74.231Zm0,0" transform="translate(-167.192 -58.154)" fill="#969caa"/>
      <path id="Path_170354" data-name="Path 170354" d="M272,264h2.923v1.462H272Zm0,0" transform="translate(-247.153 -239.883)" fill="#969caa"/>
    </g>
  </g>
</svg>
