<svg id="expances_select" xmlns="http://www.w3.org/2000/svg" width="29.975" height="36.203" viewBox="0 0 29.975 36.203">
  <path id="Path_170872" data-name="Path 170872" d="M7.977,10.184a1.643,1.643,0,0,1-.624.084,3.879,3.879,0,0,1-1.061-.156,4.3,4.3,0,0,1-1-.415l-.678,1.534a3.9,3.9,0,0,0,1.013.42,6.027,6.027,0,0,0,1.28.205V12.8H8.165v-.99A2.745,2.745,0,0,0,9.7,11.076a1.818,1.818,0,0,0,.54-1.307A1.519,1.519,0,0,0,9.881,8.7a2.088,2.088,0,0,0-.852-.566,8.194,8.194,0,0,0-1.2-.308,5.005,5.005,0,0,1-.794-.2c-.16-.063-.241-.156-.241-.281q0-.393.812-.392a3.863,3.863,0,0,1,1.739.464l.634-1.526a4.492,4.492,0,0,0-1.811-.517V4.417H6.906v.972A2.809,2.809,0,0,0,5.279,6.1a1.83,1.83,0,0,0-.566,1.346A1.548,1.548,0,0,0,5.07,8.525a2.044,2.044,0,0,0,.838.571,9.088,9.088,0,0,0,1.2.325,5.313,5.313,0,0,1,.808.214c.163.066.245.164.245.295a.273.273,0,0,1-.188.254Z" transform="translate(0.121 0.116)" fill="#969caa"/>
  <path id="Path_170873" data-name="Path 170873" d="M29.975,0H0V29.07A7.139,7.139,0,0,0,7.119,36.2H29.975V0ZM2.413,30.753a3.545,3.545,0,0,0,1.137.186H5.385V32.6a3.584,3.584,0,0,0,.219,1.238A5.024,5.024,0,0,1,2.413,30.753Zm25.442,3.315H8.8a1.487,1.487,0,0,1-1.3-1.472V28.818H3.55a1.394,1.394,0,0,1-1-.415,1.515,1.515,0,0,1-.428-1.1V2.12H27.855Z" fill="#969caa"/>
  <path id="Path_170874" data-name="Path 170874" d="M19.66,22.342h2.026l-4.641,4.641-6.772-6.772L6.027,24.456l1.5,1.5,2.746-2.745,6.772,6.772,6.038-6.038v1.819H25.2V20.222H19.66v2.12Z" transform="translate(0.158 0.529)" fill="#969caa"/>
  <rect id="Rectangle_5892" data-name="Rectangle 5892" width="9.902" height="2.12" transform="translate(15.529 7.141)" fill="#969caa"/>
  <rect id="Rectangle_5893" data-name="Rectangle 5893" width="9.902" height="2.12" transform="translate(15.529 11.382)" fill="#969caa"/>
  <rect id="Rectangle_5894" data-name="Rectangle 5894" width="20.781" height="2.12" transform="translate(4.65 15.623)" fill="#969caa"/>
</svg>
